Workaround Round Roman.ufo
<glyph name="!" format="1">
  <advance width="305"/>
  <unicode hex="0021"/>
  <outline>
    <contour>
      <point x="0" y="74" type="curve" smooth="yes"/>
      <point x="0" y="30"/>
      <point x="38" y="-5"/>
      <point x="85" y="-5" type="curve" smooth="yes"/>
      <point x="132" y="-5"/>
      <point x="170" y="30"/>
      <point x="170" y="74" type="curve" smooth="yes"/>
      <point x="170" y="117"/>
      <point x="132" y="153"/>
      <point x="85" y="153" type="curve" smooth="yes"/>
      <point x="38" y="153"/>
      <point x="0" y="117"/>
    </contour>
    <contour>
      <point x="170" y="926" type="line" smooth="yes"/>
      <point x="170" y="970"/>
      <point x="132" y="1005"/>
      <point x="85" y="1005" type="curve" smooth="yes"/>
      <point x="38" y="1005"/>
      <point x="0" y="970"/>
      <point x="0" y="926" type="curve" smooth="yes"/>
      <point x="0" y="371" type="line" smooth="yes"/>
      <point x="0" y="328"/>
      <point x="38" y="293"/>
      <point x="85" y="293" type="curve" smooth="yes"/>
      <point x="132" y="293"/>
      <point x="170" y="328"/>
      <point x="170" y="371" type="curve" smooth="yes"/>
    </contour>
  </outline>
</glyph>
<glyph name="exclam" format="1">
  <advance width="317"/>
  <unicode hex="0021"/>
  <outline>
    <contour>
      <point x="182" y="95" type="line" smooth="yes"/>
      <point x="182" y="139"/>
      <point x="141" y="174"/>
      <point x="91" y="174" type="curve" smooth="yes"/>
      <point x="41" y="174"/>
      <point x="0" y="139"/>
      <point x="0" y="95" type="curve" smooth="yes"/>
      <point x="0" y="74" type="line" smooth="yes"/>
      <point x="0" y="30"/>
      <point x="41" y="-5"/>
      <point x="91" y="-5" type="curve" smooth="yes"/>
      <point x="141" y="-5"/>
      <point x="182" y="30"/>
      <point x="182" y="74" type="curve" smooth="yes"/>
    </contour>
    <contour>
      <point x="182" y="926" type="line"/>
      <point x="182" y="970"/>
      <point x="141" y="1005"/>
      <point x="91" y="1005" type="curve" smooth="yes"/>
      <point x="41" y="1005"/>
      <point x="0" y="970"/>
      <point x="0" y="926" type="curve" smooth="yes"/>
      <point x="12" y="372" type="line" smooth="yes"/>
      <point x="12" y="334"/>
      <point x="47" y="304"/>
      <point x="91" y="304" type="curve" smooth="yes"/>
      <point x="135" y="304"/>
      <point x="170" y="334"/>
      <point x="170" y="372" type="curve"/>
    </contour>
  </outline>
</glyph>
<glyph name="quotedbl" format="1">
  <advance width="569"/>
  <unicode hex="0022"/>
  <outline>
    <contour>
      <point x="169" y="923" type="line" smooth="yes"/>
      <point x="173" y="952"/>
      <point x="159" y="978"/>
      <point x="130" y="993" type="curve" smooth="yes"/>
      <point x="102" y="1009"/>
      <point x="68" y="1009"/>
      <point x="40" y="993" type="curve" smooth="yes"/>
      <point x="11" y="978"/>
      <point x="-3" y="952"/>
      <point x="1" y="923" type="curve" smooth="yes"/>
      <point x="28" y="726" type="line" smooth="yes"/>
      <point x="31" y="700"/>
      <point x="56" y="682"/>
      <point x="85" y="682" type="curve" smooth="yes"/>
      <point x="115" y="682"/>
      <point x="139" y="700"/>
      <point x="142" y="726" type="curve" smooth="yes"/>
    </contour>
    <contour>
      <point x="433" y="923" type="line" smooth="yes"/>
      <point x="437" y="952"/>
      <point x="422" y="978"/>
      <point x="394" y="993" type="curve" smooth="yes"/>
      <point x="365" y="1009"/>
      <point x="332" y="1009"/>
      <point x="303" y="993" type="curve" smooth="yes"/>
      <point x="275" y="978"/>
      <point x="260" y="952"/>
      <point x="264" y="923" type="curve" smooth="yes"/>
      <point x="291" y="726" type="line" smooth="yes"/>
      <point x="295" y="700"/>
      <point x="319" y="682"/>
      <point x="349" y="682" type="curve" smooth="yes"/>
      <point x="378" y="682"/>
      <point x="402" y="700"/>
      <point x="406" y="726" type="curve" smooth="yes"/>
    </contour>
  </outline>
</glyph>
<glyph name="numbersign" format="1">
  <advance width="1068"/>
  <unicode hex="0023"/>
  <outline>
    <contour>
      <point x="584" y="621" type="line"/>
      <point x="536" y="379" type="line"/>
      <point x="349" y="379" type="line"/>
      <point x="397" y="621" type="line"/>
    </contour>
    <contour>
      <point x="754" y="621" type="line"/>
      <point x="837" y="621" type="line" smooth="yes"/>
      <point x="880" y="621"/>
      <point x="923" y="657"/>
      <point x="932" y="700" type="curve" smooth="yes"/>
      <point x="940" y="743"/>
      <point x="912" y="779"/>
      <point x="868" y="779" type="curve" smooth="yes"/>
      <point x="786" y="779" type="line"/>
      <point x="816" y="931" type="line" smooth="yes"/>
      <point x="824" y="972"/>
      <point x="793" y="1005"/>
      <point x="746" y="1005" type="curve" smooth="yes"/>
      <point x="699" y="1005"/>
      <point x="654" y="972"/>
      <point x="646" y="931" type="curve" smooth="yes"/>
      <point x="616" y="779" type="line"/>
      <point x="429" y="779" type="line"/>
      <point x="459" y="931" type="line" smooth="yes"/>
      <point x="467" y="972"/>
      <point x="436" y="1005"/>
      <point x="389" y="1005" type="curve" smooth="yes"/>
      <point x="342" y="1005"/>
      <point x="297" y="972"/>
      <point x="289" y="931" type="curve" smooth="yes"/>
      <point x="259" y="779" type="line"/>
      <point x="177" y="779" type="line" smooth="yes"/>
      <point x="133" y="779"/>
      <point x="90" y="743"/>
      <point x="82" y="700" type="curve" smooth="yes"/>
      <point x="73" y="657"/>
      <point x="101" y="621"/>
      <point x="145" y="621" type="curve" smooth="yes"/>
      <point x="227" y="621" type="line"/>
      <point x="179" y="379" type="line"/>
      <point x="97" y="379" type="line" smooth="yes"/>
      <point x="53" y="379"/>
      <point x="10" y="343"/>
      <point x="2" y="300" type="curve" smooth="yes"/>
      <point x="-7" y="257"/>
      <point x="21" y="221"/>
      <point x="65" y="221" type="curve" smooth="yes"/>
      <point x="147" y="221" type="line"/>
      <point x="117" y="69" type="line" smooth="yes"/>
      <point x="109" y="28"/>
      <point x="140" y="-5"/>
      <point x="187" y="-5" type="curve" smooth="yes"/>
      <point x="234" y="-5"/>
      <point x="279" y="28"/>
      <point x="287" y="69" type="curve" smooth="yes"/>
      <point x="317" y="221" type="line"/>
      <point x="504" y="221" type="line"/>
      <point x="474" y="69" type="line" smooth="yes"/>
      <point x="466" y="28"/>
      <point x="497" y="-5"/>
      <point x="544" y="-5" type="curve" smooth="yes"/>
      <point x="591" y="-5"/>
      <point x="636" y="28"/>
      <point x="644" y="69" type="curve" smooth="yes"/>
      <point x="674" y="221" type="line"/>
      <point x="757" y="221" type="line" smooth="yes"/>
      <point x="800" y="221"/>
      <point x="843" y="257"/>
      <point x="852" y="300" type="curve" smooth="yes"/>
      <point x="860" y="343"/>
      <point x="832" y="379"/>
      <point x="788" y="379" type="curve" smooth="yes"/>
      <point x="706" y="379" type="line"/>
    </contour>
  </outline>
</glyph>
<glyph name="dollar" format="1">
  <advance width="798"/>
  <unicode hex="0024"/>
  <outline>
    <contour>
      <point x="386" y="4" type="line"/>
      <point x="545" y="37"/>
      <point x="663" y="161"/>
      <point x="663" y="310" type="curve" smooth="yes"/>
      <point x="663" y="468"/>
      <point x="534" y="552"/>
      <point x="386" y="606" type="curve"/>
      <point x="386" y="839" type="line"/>
      <point x="406" y="834"/>
      <point x="425" y="826"/>
      <point x="442" y="815" type="curve"/>
      <point x="471" y="785"/>
      <point x="520" y="785"/>
      <point x="553" y="815" type="curve" smooth="yes"/>
      <point x="585" y="846"/>
      <point x="589" y="895"/>
      <point x="561" y="926" type="curve"/>
      <point x="511" y="965"/>
      <point x="453" y="990"/>
      <point x="386" y="1000" type="curve"/>
      <point x="386" y="1060" type="line" smooth="yes"/>
      <point x="386" y="1088"/>
      <point x="360" y="1111"/>
      <point x="327" y="1111" type="curve" smooth="yes"/>
      <point x="294" y="1111"/>
      <point x="267" y="1088"/>
      <point x="267" y="1060" type="curve" smooth="yes"/>
      <point x="267" y="1001" type="line"/>
      <point x="121" y="981"/>
      <point x="10" y="870"/>
      <point x="10" y="736" type="curve" smooth="yes"/>
      <point x="10" y="597"/>
      <point x="135" y="526"/>
      <point x="267" y="480" type="curve"/>
      <point x="267" y="154" type="line"/>
      <point x="218" y="159"/>
      <point x="175" y="173"/>
      <point x="138" y="198" type="curve"/>
      <point x="109" y="228"/>
      <point x="60" y="228"/>
      <point x="27" y="198" type="curve" smooth="yes"/>
      <point x="-5" y="168"/>
      <point x="-9" y="119"/>
      <point x="18" y="88" type="curve"/>
      <point x="88" y="32"/>
      <point x="171" y="2"/>
      <point x="267" y="-4" type="curve"/>
      <point x="267" y="-60" type="line" smooth="yes"/>
      <point x="267" y="-88"/>
      <point x="294" y="-111"/>
      <point x="327" y="-111" type="curve" smooth="yes"/>
      <point x="360" y="-111"/>
      <point x="386" y="-88"/>
      <point x="386" y="-60" type="curve" smooth="yes"/>
    </contour>
    <contour>
      <point x="267" y="839" type="curve"/>
      <point x="267" y="649" type="line"/>
      <point x="224" y="670"/>
      <point x="184" y="697"/>
      <point x="184" y="736" type="curve" smooth="yes"/>
      <point x="184" y="783"/>
      <point x="218" y="823"/>
    </contour>
    <contour>
      <point x="386" y="170" type="curve"/>
      <point x="386" y="433" type="line"/>
      <point x="440" y="405"/>
      <point x="487" y="365"/>
      <point x="487" y="310" type="curve" smooth="yes"/>
      <point x="487" y="249"/>
      <point x="446" y="196"/>
    </contour>
  </outline>
</glyph>
<glyph name="percent" format="1">
  <advance width="1035"/>
  <unicode hex="0025"/>
  <outline>
    <contour>
      <point x="138" y="803" type="curve" smooth="yes"/>
      <point x="138" y="845"/>
      <point x="174" y="879"/>
      <point x="218" y="879" type="curve" smooth="yes"/>
      <point x="261" y="879"/>
      <point x="297" y="845"/>
      <point x="297" y="803" type="curve" smooth="yes"/>
      <point x="297" y="762"/>
      <point x="261" y="728"/>
      <point x="218" y="728" type="curve" smooth="yes"/>
      <point x="174" y="728"/>
      <point x="138" y="762"/>
    </contour>
    <contour>
      <point x="0" y="803" type="curve" smooth="yes"/>
      <point x="0" y="692"/>
      <point x="97" y="602"/>
      <point x="218" y="602" type="curve" smooth="yes"/>
      <point x="338" y="602"/>
      <point x="435" y="692"/>
      <point x="435" y="803" type="curve" smooth="yes"/>
      <point x="435" y="915"/>
      <point x="338" y="1005"/>
      <point x="218" y="1005" type="curve" smooth="yes"/>
      <point x="97" y="1005"/>
      <point x="0" y="915"/>
    </contour>
    <contour>
      <point x="603" y="197" type="curve" smooth="yes"/>
      <point x="603" y="238"/>
      <point x="639" y="272"/>
      <point x="682" y="272" type="curve" smooth="yes"/>
      <point x="726" y="272"/>
      <point x="762" y="238"/>
      <point x="762" y="197" type="curve" smooth="yes"/>
      <point x="762" y="155"/>
      <point x="726" y="121"/>
      <point x="682" y="121" type="curve" smooth="yes"/>
      <point x="639" y="121"/>
      <point x="603" y="155"/>
    </contour>
    <contour>
      <point x="465" y="197" type="curve" smooth="yes"/>
      <point x="465" y="85"/>
      <point x="562" y="-5"/>
      <point x="682" y="-5" type="curve" smooth="yes"/>
      <point x="803" y="-5"/>
      <point x="900" y="85"/>
      <point x="900" y="197" type="curve" smooth="yes"/>
      <point x="900" y="308"/>
      <point x="803" y="398"/>
      <point x="682" y="398" type="curve" smooth="yes"/>
      <point x="562" y="398"/>
      <point x="465" y="308"/>
    </contour>
    <contour>
      <point x="804" y="914" type="line" smooth="yes"/>
      <point x="816" y="932"/>
      <point x="817" y="954"/>
      <point x="806" y="975" type="curve"/>
      <point x="794" y="995"/>
      <point x="775" y="1008"/>
      <point x="751" y="1011" type="curve" smooth="yes"/>
      <point x="728" y="1013"/>
      <point x="708" y="1004"/>
      <point x="696" y="986" type="curve" smooth="yes"/>
      <point x="96" y="86" type="line" smooth="yes"/>
      <point x="78" y="59"/>
      <point x="87" y="21"/>
      <point x="117" y="1" type="curve" smooth="yes"/>
      <point x="147" y="-19"/>
      <point x="186" y="-13"/>
      <point x="204" y="14" type="curve" smooth="yes"/>
    </contour>
  </outline>
</glyph>
<glyph name="ampersand" format="1">
  <advance width="963"/>
  <unicode hex="0026"/>
  <outline>
    <contour>
      <point x="289" y="611" type="curve"/>
      <point x="274" y="630"/>
      <point x="258" y="650"/>
      <point x="243" y="670" type="curve" smooth="yes"/>
      <point x="228" y="690"/>
      <point x="220" y="711"/>
      <point x="220" y="736" type="curve" smooth="yes"/>
      <point x="220" y="797"/>
      <point x="272" y="847"/>
      <point x="336" y="847" type="curve" smooth="yes"/>
      <point x="400" y="847"/>
      <point x="452" y="797"/>
      <point x="452" y="736" type="curve" smooth="yes"/>
      <point x="452" y="654"/>
      <point x="346" y="640"/>
      <point x="300" y="616" type="curve"/>
      <point x="297" y="614"/>
      <point x="293" y="613"/>
    </contour>
    <contour>
      <point x="569" y="334" type="curve"/>
      <point x="511" y="384"/>
      <point x="455" y="435"/>
      <point x="400" y="489" type="curve"/>
      <point x="499" y="538"/>
      <point x="622" y="601"/>
      <point x="622" y="736" type="curve" smooth="yes"/>
      <point x="622" y="884"/>
      <point x="494" y="1005"/>
      <point x="336" y="1005" type="curve" smooth="yes"/>
      <point x="178" y="1005"/>
      <point x="50" y="884"/>
      <point x="50" y="736" type="curve" smooth="yes"/>
      <point x="50" y="676"/>
      <point x="68" y="626"/>
      <point x="105" y="578" type="curve" smooth="yes"/>
      <point x="117" y="562"/>
      <point x="129" y="547"/>
      <point x="142" y="532" type="curve"/>
      <point x="64" y="482"/>
      <point x="0" y="415"/>
      <point x="0" y="310" type="curve" smooth="yes"/>
      <point x="0" y="136"/>
      <point x="151" y="-5"/>
      <point x="336" y="-5" type="curve" smooth="yes"/>
      <point x="432" y="-5"/>
      <point x="521" y="33"/>
      <point x="596" y="103" type="curve"/>
      <point x="630" y="75"/>
      <point x="664" y="47"/>
      <point x="698" y="17" type="curve" smooth="yes"/>
      <point x="730" y="-10"/>
      <point x="779" y="-4"/>
      <point x="807" y="29" type="curve" smooth="yes"/>
      <point x="836" y="63"/>
      <point x="834" y="112"/>
      <point x="802" y="139" type="curve" smooth="yes"/>
      <point x="766" y="170"/>
      <point x="730" y="199"/>
      <point x="695" y="229" type="curve"/>
      <point x="723" y="276"/>
      <point x="747" y="329"/>
      <point x="766" y="389" type="curve"/>
      <point x="782" y="426"/>
      <point x="761" y="471"/>
      <point x="720" y="489" type="curve" smooth="yes"/>
      <point x="678" y="508"/>
      <point x="631" y="492"/>
      <point x="614" y="455" type="curve"/>
      <point x="602" y="410"/>
      <point x="586" y="370"/>
    </contour>
    <contour>
      <point x="242" y="419" type="curve"/>
      <point x="316" y="342"/>
      <point x="393" y="274"/>
      <point x="473" y="206" type="curve"/>
      <point x="432" y="171"/>
      <point x="386" y="153"/>
      <point x="336" y="153" type="curve" smooth="yes"/>
      <point x="244" y="153"/>
      <point x="170" y="223"/>
      <point x="170" y="310" type="curve" smooth="yes"/>
      <point x="170" y="363"/>
      <point x="202" y="396"/>
    </contour>
  </outline>
</glyph>
<glyph name="quotesingle" format="1">
  <advance width="305"/>
  <unicode hex="0027"/>
  <outline>
    <contour>
      <point x="169" y="923" type="line" smooth="yes"/>
      <point x="173" y="952"/>
      <point x="159" y="978"/>
      <point x="130" y="993" type="curve" smooth="yes"/>
      <point x="102" y="1009"/>
      <point x="68" y="1009"/>
      <point x="40" y="993" type="curve" smooth="yes"/>
      <point x="11" y="978"/>
      <point x="-3" y="952"/>
      <point x="1" y="923" type="curve" smooth="yes"/>
      <point x="28" y="726" type="line" smooth="yes"/>
      <point x="31" y="700"/>
      <point x="56" y="682"/>
      <point x="85" y="682" type="curve" smooth="yes"/>
      <point x="115" y="682"/>
      <point x="139" y="700"/>
      <point x="142" y="726" type="curve" smooth="yes"/>
    </contour>
  </outline>
</glyph>
<glyph name="parenleft" format="1">
  <advance width="414"/>
  <unicode hex="0028"/>
  <outline>
    <contour>
      <point x="275" y="971" type="curve" smooth="yes"/>
      <point x="289" y="1009"/>
      <point x="266" y="1053"/>
      <point x="223" y="1069" type="curve" smooth="yes"/>
      <point x="181" y="1085"/>
      <point x="134" y="1067"/>
      <point x="120" y="1029" type="curve" smooth="yes"/>
      <point x="-40" y="606"/>
      <point x="-40" y="194"/>
      <point x="120" y="-229" type="curve" smooth="yes"/>
      <point x="134" y="-267"/>
      <point x="181" y="-285"/>
      <point x="223" y="-269" type="curve" smooth="yes"/>
      <point x="266" y="-253"/>
      <point x="289" y="-209"/>
      <point x="275" y="-171" type="curve" smooth="yes"/>
      <point x="130" y="213"/>
      <point x="130" y="587"/>
    </contour>
  </outline>
</glyph>
<glyph name="parenright" format="1">
  <advance width="414"/>
  <unicode hex="0029"/>
  <outline>
    <contour>
      <point x="4" y="971" type="curve" smooth="yes"/>
      <point x="149" y="587"/>
      <point x="149" y="213"/>
      <point x="4" y="-171" type="curve" smooth="yes"/>
      <point x="-10" y="-209"/>
      <point x="13" y="-253"/>
      <point x="56" y="-269" type="curve" smooth="yes"/>
      <point x="98" y="-285"/>
      <point x="145" y="-267"/>
      <point x="159" y="-229" type="curve" smooth="yes"/>
      <point x="319" y="194"/>
      <point x="319" y="606"/>
      <point x="159" y="1029" type="curve" smooth="yes"/>
      <point x="145" y="1067"/>
      <point x="98" y="1085"/>
      <point x="56" y="1069" type="curve" smooth="yes"/>
      <point x="13" y="1053"/>
      <point x="-10" y="1009"/>
    </contour>
  </outline>
</glyph>
<glyph name="asterisk" format="1">
  <advance width="597"/>
  <unicode hex="002A"/>
  <outline>
    <contour>
      <point x="295" y="975" type="line"/>
      <point x="295" y="1005"/>
      <point x="266" y="1030"/>
      <point x="231" y="1030" type="curve" smooth="yes"/>
      <point x="196" y="1030"/>
      <point x="167" y="1005"/>
      <point x="167" y="975" type="curve"/>
      <point x="176" y="870" type="line"/>
      <point x="88" y="926" type="line" smooth="yes"/>
      <point x="60" y="942"/>
      <point x="25" y="932"/>
      <point x="8" y="903" type="curve" smooth="yes"/>
      <point x="-8" y="875"/>
      <point x="1" y="839"/>
      <point x="28" y="823" type="curve"/>
      <point x="121" y="775" type="line"/>
      <point x="28" y="726" type="line" smooth="yes"/>
      <point x="1" y="711"/>
      <point x="-8" y="675"/>
      <point x="8" y="646" type="curve" smooth="yes"/>
      <point x="25" y="618"/>
      <point x="60" y="607"/>
      <point x="88" y="623" type="curve" smooth="yes"/>
      <point x="176" y="679" type="line"/>
      <point x="167" y="575" type="line"/>
      <point x="167" y="544"/>
      <point x="196" y="520"/>
      <point x="231" y="520" type="curve" smooth="yes"/>
      <point x="266" y="520"/>
      <point x="295" y="544"/>
      <point x="295" y="575" type="curve"/>
      <point x="286" y="679" type="line"/>
      <point x="374" y="623" type="line"/>
      <point x="393" y="613"/>
      <point x="414" y="613"/>
      <point x="432" y="624" type="curve" smooth="yes"/>
      <point x="451" y="635"/>
      <point x="462" y="654"/>
      <point x="462" y="676" type="curve" smooth="yes"/>
      <point x="462" y="697"/>
      <point x="452" y="716"/>
      <point x="434" y="726" type="curve" smooth="yes"/>
      <point x="341" y="775" type="line"/>
      <point x="434" y="823" type="line"/>
      <point x="461" y="839"/>
      <point x="470" y="875"/>
      <point x="454" y="903" type="curve" smooth="yes"/>
      <point x="437" y="932"/>
      <point x="402" y="942"/>
      <point x="374" y="926" type="curve" smooth="yes"/>
      <point x="286" y="870" type="line"/>
    </contour>
  </outline>
</glyph>
<glyph name="plus" format="1">
  <advance width="835"/>
  <unicode hex="002B"/>
  <outline>
    <contour>
      <point x="265" y="431" type="line"/>
      <point x="265" y="239" type="line" smooth="yes"/>
      <point x="265" y="199"/>
      <point x="303" y="166"/>
      <point x="350" y="166" type="curve" smooth="yes"/>
      <point x="397" y="166"/>
      <point x="435" y="199"/>
      <point x="435" y="239" type="curve" smooth="yes"/>
      <point x="435" y="431" type="line"/>
      <point x="621" y="431" type="line" smooth="yes"/>
      <point x="665" y="431"/>
      <point x="700" y="467"/>
      <point x="700" y="510" type="curve" smooth="yes"/>
      <point x="700" y="553"/>
      <point x="665" y="589"/>
      <point x="621" y="589" type="curve" smooth="yes"/>
      <point x="435" y="589" type="line"/>
      <point x="435" y="781" type="line" smooth="yes"/>
      <point x="435" y="821"/>
      <point x="397" y="854"/>
      <point x="350" y="854" type="curve" smooth="yes"/>
      <point x="303" y="854"/>
      <point x="265" y="821"/>
      <point x="265" y="781" type="curve" smooth="yes"/>
      <point x="265" y="589" type="line"/>
      <point x="79" y="589" type="line" smooth="yes"/>
      <point x="35" y="589"/>
      <point x="0" y="553"/>
      <point x="0" y="510" type="curve" smooth="yes"/>
      <point x="0" y="467"/>
      <point x="35" y="431"/>
      <point x="79" y="431" type="curve" smooth="yes"/>
    </contour>
  </outline>
</glyph>
<glyph name="comma" format="1">
  <advance width="322"/>
  <unicode hex="002C"/>
  <outline>
    <contour>
      <point x="187" y="102" type="curve" smooth="yes"/>
      <point x="187" y="147"/>
      <point x="145" y="183"/>
      <point x="94" y="183" type="curve" smooth="yes"/>
      <point x="42" y="183"/>
      <point x="0" y="147"/>
      <point x="0" y="102" type="curve" smooth="yes"/>
      <point x="0" y="76" type="line" smooth="yes"/>
      <point x="0" y="47"/>
      <point x="18" y="22"/>
      <point x="44" y="7" type="curve"/>
      <point x="53" y="3"/>
      <point x="58" y="-6"/>
      <point x="58" y="-16" type="curve" smooth="yes"/>
      <point x="58" y="-26"/>
      <point x="53" y="-34"/>
      <point x="44" y="-39" type="curve" smooth="yes"/>
      <point x="18" y="-53" type="line" smooth="yes"/>
      <point x="4" y="-60"/>
      <point x="-1" y="-77"/>
      <point x="6" y="-91" type="curve" smooth="yes"/>
      <point x="13" y="-105"/>
      <point x="30" y="-111"/>
      <point x="44" y="-104" type="curve" smooth="yes"/>
      <point x="123" y="-63"/>
      <point x="187" y="6"/>
    </contour>
  </outline>
</glyph>
<glyph name="hyphen" format="1">
  <advance width="585"/>
  <unicode hex="002D"/>
  <outline>
    <contour>
      <point x="371" y="431" type="line" smooth="yes"/>
      <point x="415" y="431"/>
      <point x="450" y="467"/>
      <point x="450" y="510" type="curve" smooth="yes"/>
      <point x="450" y="553"/>
      <point x="415" y="589"/>
      <point x="371" y="589" type="curve" smooth="yes"/>
      <point x="79" y="589" type="line" smooth="yes"/>
      <point x="35" y="589"/>
      <point x="0" y="553"/>
      <point x="0" y="510" type="curve" smooth="yes"/>
      <point x="0" y="467"/>
      <point x="35" y="431"/>
      <point x="79" y="431" type="curve" smooth="yes"/>
    </contour>
  </outline>
</glyph>
<glyph name="period" format="1">
  <advance width="322"/>
  <unicode hex="002E"/>
  <outline>
    <contour>
      <point x="187" y="102" type="line" smooth="yes"/>
      <point x="187" y="147"/>
      <point x="145" y="183"/>
      <point x="94" y="183" type="curve" smooth="yes"/>
      <point x="42" y="183"/>
      <point x="0" y="147"/>
      <point x="0" y="102" type="curve" smooth="yes"/>
      <point x="0" y="76" type="line" smooth="yes"/>
      <point x="0" y="31"/>
      <point x="42" y="-5"/>
      <point x="94" y="-5" type="curve" smooth="yes"/>
      <point x="145" y="-5"/>
      <point x="187" y="31"/>
      <point x="187" y="76" type="curve" smooth="yes"/>
    </contour>
  </outline>
</glyph>
<glyph name="slash" format="1">
  <advance width="641"/>
  <unicode hex="002F"/>
  <outline>
    <contour>
      <point x="503" y="1000" type="line" smooth="yes"/>
      <point x="515" y="1039"/>
      <point x="490" y="1081"/>
      <point x="446" y="1096" type="curve" smooth="yes"/>
      <point x="403" y="1110"/>
      <point x="357" y="1090"/>
      <point x="345" y="1051" type="curve" smooth="yes"/>
      <point x="3" y="0" type="line" smooth="yes"/>
      <point x="-9" y="-39"/>
      <point x="16" y="-81"/>
      <point x="59" y="-96" type="curve" smooth="yes"/>
      <point x="103" y="-110"/>
      <point x="148" y="-90"/>
      <point x="161" y="-51" type="curve" smooth="yes"/>
    </contour>
  </outline>
</glyph>
<glyph name="0" format="1">
  <advance width="883"/>
  <unicode hex="0030"/>
  <outline>
    <contour>
      <point x="184" y="472" type="curve" smooth="yes"/>
      <point x="184" y="528" type="line" smooth="yes"/>
      <point x="184" y="689"/>
      <point x="263" y="843"/>
      <point x="361" y="843" type="curve" smooth="yes"/>
      <point x="387" y="843" type="line" smooth="yes"/>
      <point x="501" y="843"/>
      <point x="564" y="703"/>
      <point x="564" y="528" type="curve" smooth="yes"/>
      <point x="564" y="472" type="line" smooth="yes"/>
      <point x="564" y="311"/>
      <point x="485" y="157"/>
      <point x="387" y="157" type="curve" smooth="yes"/>
      <point x="361" y="157" type="line" smooth="yes"/>
      <point x="247" y="157"/>
      <point x="184" y="297"/>
    </contour>
    <contour>
      <point x="0" y="472" type="line" smooth="yes"/>
      <point x="0" y="212"/>
      <point x="162" y="0"/>
      <point x="361" y="0" type="curve" smooth="yes"/>
      <point x="387" y="0" type="line" smooth="yes"/>
      <point x="586" y="0"/>
      <point x="748" y="212"/>
      <point x="748" y="472" type="curve" smooth="yes"/>
      <point x="748" y="528" type="line" smooth="yes"/>
      <point x="748" y="788"/>
      <point x="586" y="1000"/>
      <point x="387" y="1000" type="curve" smooth="yes"/>
      <point x="361" y="1000" type="line" smooth="yes"/>
      <point x="162" y="1000"/>
      <point x="0" y="788"/>
      <point x="0" y="528" type="curve" smooth="yes"/>
    </contour>
  </outline>
</glyph>
<glyph name="1" format="1">
  <advance width="506"/>
  <unicode hex="0031"/>
  <outline>
    <contour>
      <point x="370" y="918" type="line" smooth="yes"/>
      <point x="370" y="954"/>
      <point x="348" y="985"/>
      <point x="312" y="998" type="curve" smooth="yes"/>
      <point x="276" y="1012"/>
      <point x="237" y="1004"/>
      <point x="210" y="979" type="curve"/>
      <point x="23" y="786" type="line" smooth="yes"/>
      <point x="-8" y="754"/>
      <point x="-8" y="703"/>
      <point x="24" y="672" type="curve"/>
      <point x="24" y="672" type="line"/>
      <point x="56" y="641"/>
      <point x="107" y="642"/>
      <point x="138" y="674" type="curve" smooth="yes"/>
      <point x="200" y="738" type="line"/>
      <point x="200" y="74" type="line" smooth="yes"/>
      <point x="200" y="30"/>
      <point x="238" y="-5"/>
      <point x="285" y="-5" type="curve" smooth="yes"/>
      <point x="332" y="-5"/>
      <point x="370" y="30"/>
      <point x="370" y="74" type="curve" smooth="yes"/>
    </contour>
  </outline>
</glyph>
<glyph name="one" format="1">
  <advance width="533"/>
  <unicode hex="0031"/>
  <outline>
    <contour>
      <point x="398" y="924" type="line" smooth="yes"/>
      <point x="398" y="957"/>
      <point x="376" y="985"/>
      <point x="341" y="998" type="curve" smooth="yes"/>
      <point x="306" y="1011"/>
      <point x="268" y="1005"/>
      <point x="240" y="983" type="curve"/>
      <point x="23" y="779" type="line" smooth="yes"/>
      <point x="-8" y="750"/>
      <point x="-8" y="701"/>
      <point x="23" y="668" type="curve" smooth="yes"/>
      <point x="53" y="636"/>
      <point x="102" y="633"/>
      <point x="132" y="661" type="curve" smooth="yes"/>
      <point x="228" y="751" type="line"/>
      <point x="228" y="69" type="line" smooth="yes"/>
      <point x="228" y="28"/>
      <point x="266" y="-5"/>
      <point x="313" y="-5" type="curve" smooth="yes"/>
      <point x="359" y="-5"/>
      <point x="398" y="28"/>
      <point x="398" y="69" type="curve" smooth="yes"/>
    </contour>
  </outline>
</glyph>
<glyph name="2" format="1">
  <advance width="812"/>
  <unicode hex="0032"/>
  <outline>
    <contour>
      <point x="240" y="157" type="line"/>
      <point x="592" y="157" type="line" smooth="yes"/>
      <point x="639" y="157"/>
      <point x="677" y="122"/>
      <point x="677" y="79" type="curve"/>
      <point x="677" y="79" type="line"/>
      <point x="677" y="35"/>
      <point x="639" y="0"/>
      <point x="592" y="0" type="curve" smooth="yes"/>
      <point x="106" y="0" type="line" smooth="yes"/>
      <point x="48" y="0"/>
      <point x="0" y="44"/>
      <point x="0" y="98" type="curve"/>
      <point x="0" y="98" type="line"/>
      <point x="0" y="122"/>
      <point x="9" y="144"/>
      <point x="25" y="161" type="curve" smooth="yes"/>
      <point x="483" y="671" type="line" smooth="yes"/>
      <point x="498" y="688"/>
      <point x="507" y="708"/>
      <point x="507" y="729" type="curve"/>
      <point x="507" y="729" type="line"/>
      <point x="507" y="792"/>
      <point x="431" y="843"/>
      <point x="338" y="843" type="curve"/>
      <point x="338" y="843" type="line"/>
      <point x="266" y="843"/>
      <point x="204" y="826"/>
      <point x="162" y="796" type="curve" smooth="yes"/>
      <point x="159" y="794" type="line"/>
      <point x="133" y="759"/>
      <point x="82" y="751"/>
      <point x="46" y="778" type="curve"/>
      <point x="46" y="778" type="line"/>
      <point x="10" y="804"/>
      <point x="1" y="854"/>
      <point x="27" y="890" type="curve"/>
      <point x="24" y="888" type="line"/>
      <point x="100" y="961"/>
      <point x="210" y="1000"/>
      <point x="338" y="1000" type="curve"/>
      <point x="338" y="1000" type="line"/>
      <point x="525" y="1000"/>
      <point x="677" y="879"/>
      <point x="677" y="729" type="curve"/>
      <point x="677" y="729" type="line"/>
      <point x="677" y="678"/>
      <point x="659" y="630"/>
      <point x="628" y="589" type="curve"/>
    </contour>
  </outline>
</glyph>
<glyph name="two" format="1">
  <advance width="813"/>
  <unicode hex="0032"/>
  <outline>
    <contour>
      <point x="251" y="157" type="line"/>
      <point x="631" y="592" type="line"/>
      <point x="661" y="632"/>
      <point x="678" y="679"/>
      <point x="678" y="729" type="curve" smooth="yes"/>
      <point x="678" y="879"/>
      <point x="526" y="1000"/>
      <point x="339" y="1000" type="curve" smooth="yes"/>
      <point x="200" y="1000"/>
      <point x="80" y="950"/>
      <point x="13" y="867" type="curve"/>
      <point x="-3" y="845"/>
      <point x="-4" y="817"/>
      <point x="9" y="791" type="curve" smooth="yes"/>
      <point x="21" y="765"/>
      <point x="45" y="747"/>
      <point x="74" y="743" type="curve" smooth="yes"/>
      <point x="103" y="739"/>
      <point x="129" y="749"/>
      <point x="145" y="771" type="curve" smooth="yes"/>
      <point x="178" y="815"/>
      <point x="252" y="843"/>
      <point x="339" y="843" type="curve" smooth="yes"/>
      <point x="432" y="843"/>
      <point x="508" y="792"/>
      <point x="508" y="729" type="curve" smooth="yes"/>
      <point x="508" y="708"/>
      <point x="499" y="689"/>
      <point x="484" y="672" type="curve" smooth="yes"/>
      <point x="22" y="143" type="line" smooth="yes"/>
      <point x="9" y="128"/>
      <point x="1" y="108"/>
      <point x="1" y="86" type="curve" smooth="yes"/>
      <point x="1" y="39"/>
      <point x="40" y="0"/>
      <point x="88" y="0" type="curve" smooth="yes"/>
      <point x="598" y="0" type="line" smooth="yes"/>
      <point x="642" y="0"/>
      <point x="678" y="35"/>
      <point x="678" y="79" type="curve" smooth="yes"/>
      <point x="678" y="122"/>
      <point x="642" y="157"/>
      <point x="598" y="157" type="curve" smooth="yes"/>
    </contour>
  </outline>
</glyph>
<glyph name="Digit_Three" format="1">
  <advance width="772"/>
  <unicode hex="0033"/>
  <outline>
    <contour>
      <point x="427" y="547" type="curve"/>
      <point x="517" y="573"/>
      <point x="582" y="648"/>
      <point x="582" y="736" type="curve"/>
      <point x="582" y="736" type="line"/>
      <point x="582" y="884"/>
      <point x="445" y="1005"/>
      <point x="276" y="1005" type="curve"/>
      <point x="276" y="1005" type="line"/>
      <point x="191" y="1005"/>
      <point x="119" y="978"/>
      <point x="59" y="926" type="curve"/>
      <point x="60" y="925" type="line"/>
      <point x="29" y="893"/>
      <point x="32" y="842"/>
      <point x="64" y="811" type="curve"/>
      <point x="64" y="811" type="line"/>
      <point x="97" y="781"/>
      <point x="148" y="783"/>
      <point x="178" y="816" type="curve"/>
      <point x="179" y="815" type="line"/>
      <point x="206" y="837"/>
      <point x="238" y="847"/>
      <point x="276" y="847" type="curve"/>
      <point x="276" y="847" type="line"/>
      <point x="346" y="847"/>
      <point x="402" y="797"/>
      <point x="402" y="736" type="curve"/>
      <point x="402" y="736" type="line"/>
      <point x="402" y="674"/>
      <point x="346" y="624"/>
      <point x="276" y="624" type="curve"/>
      <point x="276" y="624" type="line"/>
      <point x="236" y="624"/>
      <point x="203" y="589"/>
      <point x="203" y="545" type="curve"/>
      <point x="203" y="545" type="line"/>
      <point x="203" y="502"/>
      <point x="236" y="467"/>
      <point x="276" y="467" type="curve"/>
      <point x="276" y="467" type="line"/>
      <point x="373" y="467"/>
      <point x="452" y="396"/>
      <point x="452" y="310" type="curve"/>
      <point x="452" y="310" type="line"/>
      <point x="452" y="223"/>
      <point x="373" y="153"/>
      <point x="276" y="153" type="curve"/>
      <point x="276" y="153" type="line"/>
      <point x="223" y="153"/>
      <point x="178" y="168"/>
      <point x="141" y="199" type="curve"/>
      <point x="140" y="198" type="line"/>
      <point x="110" y="230"/>
      <point x="59" y="232"/>
      <point x="26" y="202" type="curve"/>
      <point x="26" y="202" type="line"/>
      <point x="-7" y="172"/>
      <point x="-9" y="121"/>
      <point x="21" y="88" type="curve"/>
      <point x="20" y="87" type="line"/>
      <point x="91" y="26"/>
      <point x="176" y="-5"/>
      <point x="276" y="-5" type="curve"/>
      <point x="276" y="-5" type="line"/>
      <point x="475" y="-5"/>
      <point x="637" y="136"/>
      <point x="637" y="310" type="curve"/>
      <point x="637" y="310" type="line"/>
      <point x="637" y="423"/>
      <point x="548" y="519"/>
    </contour>
  </outline>
</glyph>
<glyph name="three" format="1">
  <advance width="770"/>
  <unicode hex="0033"/>
  <outline>
    <contour>
      <point x="425" y="547" type="curve"/>
      <point x="515" y="573"/>
      <point x="580" y="648"/>
      <point x="580" y="736" type="curve" smooth="yes"/>
      <point x="580" y="884"/>
      <point x="443" y="1005"/>
      <point x="273" y="1005" type="curve" smooth="yes"/>
      <point x="189" y="1005"/>
      <point x="116" y="978"/>
      <point x="57" y="926" type="curve"/>
      <point x="29" y="895"/>
      <point x="33" y="846"/>
      <point x="66" y="815" type="curve" smooth="yes"/>
      <point x="98" y="785"/>
      <point x="147" y="785"/>
      <point x="176" y="815" type="curve"/>
      <point x="203" y="837"/>
      <point x="235" y="847"/>
      <point x="273" y="847" type="curve" smooth="yes"/>
      <point x="347" y="847"/>
      <point x="406" y="797"/>
      <point x="406" y="736" type="curve" smooth="yes"/>
      <point x="406" y="678"/>
      <point x="354" y="630"/>
      <point x="287" y="625" type="curve" smooth="yes"/>
      <point x="199" y="617" type="line" smooth="yes"/>
      <point x="167" y="614"/>
      <point x="142" y="583"/>
      <point x="142" y="545" type="curve" smooth="yes"/>
      <point x="142" y="508"/>
      <point x="167" y="477"/>
      <point x="199" y="474" type="curve" smooth="yes"/>
      <point x="292" y="466" type="line" smooth="yes"/>
      <point x="385" y="458"/>
      <point x="459" y="391"/>
      <point x="459" y="310" type="curve" smooth="yes"/>
      <point x="459" y="223"/>
      <point x="376" y="153"/>
      <point x="273" y="153" type="curve" smooth="yes"/>
      <point x="220" y="153"/>
      <point x="175" y="168"/>
      <point x="138" y="198" type="curve"/>
      <point x="109" y="228"/>
      <point x="60" y="228"/>
      <point x="27" y="198" type="curve" smooth="yes"/>
      <point x="-5" y="168"/>
      <point x="-9" y="119"/>
      <point x="18" y="88" type="curve"/>
      <point x="88" y="26"/>
      <point x="174" y="-5"/>
      <point x="273" y="-5" type="curve" smooth="yes"/>
      <point x="473" y="-5"/>
      <point x="634" y="136"/>
      <point x="634" y="310" type="curve" smooth="yes"/>
      <point x="634" y="423"/>
      <point x="545" y="519"/>
    </contour>
  </outline>
</glyph>
<glyph name="Digit_Four" format="1">
  <advance width="722"/>
  <unicode hex="0034"/>
  <outline>
    <contour>
      <point x="420" y="688" type="line"/>
      <point x="420" y="399" type="line"/>
      <point x="224" y="399" type="line"/>
    </contour>
    <contour>
      <point x="590" y="241" type="line"/>
      <point x="637" y="241" type="line" smooth="yes"/>
      <point x="684" y="241"/>
      <point x="722" y="277"/>
      <point x="722" y="320" type="curve"/>
      <point x="722" y="320" type="line"/>
      <point x="722" y="363"/>
      <point x="684" y="399"/>
      <point x="637" y="399" type="curve" smooth="yes"/>
      <point x="590" y="399" type="line"/>
      <point x="590" y="914" type="line" smooth="yes"/>
      <point x="590" y="964"/>
      <point x="547" y="1005"/>
      <point x="493" y="1005" type="curve"/>
      <point x="493" y="1005" type="line"/>
      <point x="458" y="1005"/>
      <point x="427" y="988"/>
      <point x="410" y="962" type="curve" smooth="yes"/>
      <point x="15" y="380" type="line" smooth="yes"/>
      <point x="5" y="366"/>
      <point x="0" y="349"/>
      <point x="0" y="332" type="curve"/>
      <point x="0" y="332" type="line"/>
      <point x="0" y="282"/>
      <point x="44" y="241"/>
      <point x="98" y="241" type="curve" smooth="yes"/>
      <point x="420" y="241" type="line"/>
      <point x="420" y="74" type="line" smooth="yes"/>
      <point x="420" y="30"/>
      <point x="458" y="-5"/>
      <point x="505" y="-5" type="curve" smooth="yes"/>
      <point x="552" y="-5"/>
      <point x="590" y="30"/>
      <point x="590" y="74" type="curve" smooth="yes"/>
    </contour>
  </outline>
</glyph>
<glyph name="four" format="1">
  <advance width="857"/>
  <unicode hex="0034"/>
  <outline>
    <contour>
      <point x="420" y="690" type="line"/>
      <point x="420" y="399" type="line"/>
      <point x="223" y="399" type="line"/>
    </contour>
    <contour>
      <point x="590" y="241" type="line"/>
      <point x="643" y="241" type="line" smooth="yes"/>
      <point x="687" y="241"/>
      <point x="722" y="277"/>
      <point x="722" y="320" type="curve" smooth="yes"/>
      <point x="722" y="363"/>
      <point x="687" y="399"/>
      <point x="643" y="399" type="curve" smooth="yes"/>
      <point x="590" y="399" type="line"/>
      <point x="590" y="920" type="line" smooth="yes"/>
      <point x="590" y="967"/>
      <point x="547" y="1005"/>
      <point x="493" y="1005" type="curve" smooth="yes"/>
      <point x="457" y="1005"/>
      <point x="425" y="988"/>
      <point x="408" y="963" type="curve" smooth="yes"/>
      <point x="15" y="382" type="line" smooth="yes"/>
      <point x="6" y="368"/>
      <point x="0" y="350"/>
      <point x="0" y="332" type="curve" smooth="yes"/>
      <point x="0" y="282"/>
      <point x="41" y="241"/>
      <point x="91" y="241" type="curve" smooth="yes"/>
      <point x="420" y="241" type="line"/>
      <point x="420" y="69" type="line" smooth="yes"/>
      <point x="420" y="28"/>
      <point x="458" y="-5"/>
      <point x="505" y="-5" type="curve" smooth="yes"/>
      <point x="552" y="-5"/>
      <point x="590" y="28"/>
      <point x="590" y="69" type="curve" smooth="yes"/>
    </contour>
  </outline>
</glyph>
<glyph name="Digit_Five" format="1">
  <advance width="772"/>
  <unicode hex="0035"/>
  <outline>
    <contour>
      <point x="238" y="843" type="line"/>
      <point x="552" y="843" type="line" smooth="yes"/>
      <point x="599" y="843"/>
      <point x="637" y="878"/>
      <point x="637" y="921" type="curve"/>
      <point x="637" y="921" type="line"/>
      <point x="637" y="965"/>
      <point x="599" y="1000"/>
      <point x="552" y="1000" type="curve" smooth="yes"/>
      <point x="166" y="1000" type="line" smooth="yes"/>
      <point x="123" y="1000"/>
      <point x="88" y="971"/>
      <point x="82" y="933" type="curve" smooth="yes"/>
      <point x="14" y="499" type="line" smooth="yes"/>
      <point x="10" y="475"/>
      <point x="17" y="450"/>
      <point x="35" y="431" type="curve"/>
      <point x="35" y="431" type="line"/>
      <point x="65" y="399"/>
      <point x="116" y="398"/>
      <point x="149" y="428" type="curve"/>
      <point x="149" y="428" type="line"/>
      <point x="186" y="454"/>
      <point x="227" y="467"/>
      <point x="276" y="467" type="curve"/>
      <point x="276" y="467" type="line"/>
      <point x="373" y="467"/>
      <point x="452" y="396"/>
      <point x="452" y="310" type="curve"/>
      <point x="452" y="310" type="line"/>
      <point x="452" y="223"/>
      <point x="373" y="153"/>
      <point x="276" y="153" type="curve"/>
      <point x="276" y="153" type="line"/>
      <point x="223" y="153"/>
      <point x="178" y="168"/>
      <point x="141" y="199" type="curve"/>
      <point x="140" y="198" type="line"/>
      <point x="110" y="230"/>
      <point x="59" y="232"/>
      <point x="26" y="202" type="curve"/>
      <point x="26" y="202" type="line"/>
      <point x="-7" y="172"/>
      <point x="-9" y="121"/>
      <point x="21" y="88" type="curve"/>
      <point x="20" y="87" type="line"/>
      <point x="91" y="26"/>
      <point x="176" y="-5"/>
      <point x="276" y="-5" type="curve"/>
      <point x="276" y="-5" type="line"/>
      <point x="475" y="-5"/>
      <point x="637" y="136"/>
      <point x="637" y="310" type="curve"/>
      <point x="637" y="310" type="line"/>
      <point x="637" y="483"/>
      <point x="475" y="624"/>
      <point x="276" y="624" type="curve"/>
      <point x="276" y="624" type="line"/>
      <point x="250" y="624"/>
      <point x="226" y="622"/>
      <point x="202" y="618" type="curve"/>
    </contour>
  </outline>
</glyph>
<glyph name="five" format="1">
  <advance width="770"/>
  <unicode hex="0035"/>
  <outline>
    <contour>
      <point x="235" y="843" type="line"/>
      <point x="555" y="843" type="line" smooth="yes"/>
      <point x="599" y="843"/>
      <point x="634" y="878"/>
      <point x="634" y="921" type="curve" smooth="yes"/>
      <point x="634" y="965"/>
      <point x="599" y="1000"/>
      <point x="555" y="1000" type="curve" smooth="yes"/>
      <point x="158" y="1000" type="line" smooth="yes"/>
      <point x="118" y="1000"/>
      <point x="85" y="971"/>
      <point x="79" y="933" type="curve" smooth="yes"/>
      <point x="14" y="503" type="line" smooth="yes"/>
      <point x="10" y="480"/>
      <point x="18" y="454"/>
      <point x="36" y="435" type="curve" smooth="yes"/>
      <point x="67" y="403"/>
      <point x="116" y="400"/>
      <point x="147" y="428" type="curve"/>
      <point x="183" y="454"/>
      <point x="225" y="467"/>
      <point x="273" y="467" type="curve" smooth="yes"/>
      <point x="371" y="467"/>
      <point x="450" y="396"/>
      <point x="450" y="310" type="curve" smooth="yes"/>
      <point x="450" y="223"/>
      <point x="371" y="153"/>
      <point x="273" y="153" type="curve" smooth="yes"/>
      <point x="220" y="153"/>
      <point x="175" y="168"/>
      <point x="138" y="198" type="curve"/>
      <point x="109" y="228"/>
      <point x="60" y="228"/>
      <point x="27" y="198" type="curve" smooth="yes"/>
      <point x="-5" y="168"/>
      <point x="-9" y="119"/>
      <point x="18" y="88" type="curve"/>
      <point x="88" y="26"/>
      <point x="174" y="-5"/>
      <point x="273" y="-5" type="curve" smooth="yes"/>
      <point x="473" y="-5"/>
      <point x="634" y="136"/>
      <point x="634" y="310" type="curve" smooth="yes"/>
      <point x="634" y="483"/>
      <point x="473" y="624"/>
      <point x="273" y="624" type="curve" smooth="yes"/>
      <point x="248" y="624"/>
      <point x="224" y="622"/>
      <point x="201" y="618" type="curve"/>
    </contour>
  </outline>
</glyph>
<glyph name="6" format="1">
  <advance width="785"/>
  <unicode hex="0036"/>
  <outline>
    <contour>
      <point x="182" y="320" type="curve"/>
      <point x="182" y="413"/>
      <point x="246" y="488"/>
      <point x="325" y="488" type="curve"/>
      <point x="325" y="488" type="line"/>
      <point x="404" y="488"/>
      <point x="468" y="413"/>
      <point x="468" y="320" type="curve"/>
      <point x="468" y="320" type="line"/>
      <point x="468" y="228"/>
      <point x="404" y="153"/>
      <point x="325" y="153" type="curve"/>
      <point x="325" y="153" type="line"/>
      <point x="246" y="153"/>
      <point x="182" y="228"/>
    </contour>
    <contour>
      <point x="313" y="974" type="curve" smooth="yes"/>
      <point x="161" y="779"/>
      <point x="0" y="588"/>
      <point x="0" y="320" type="curve" smooth="yes"/>
      <point x="0" y="141"/>
      <point x="145" y="-5"/>
      <point x="325" y="-5" type="curve"/>
      <point x="325" y="-5" type="line"/>
      <point x="504" y="-5"/>
      <point x="650" y="141"/>
      <point x="650" y="320" type="curve"/>
      <point x="650" y="320" type="line"/>
      <point x="650" y="485"/>
      <point x="516" y="619"/>
      <point x="351" y="619" type="curve"/>
      <point x="351" y="619" type="line"/>
      <point x="314" y="619"/>
      <point x="278" y="612"/>
      <point x="245" y="600" type="curve"/>
      <point x="245" y="600" type="line"/>
      <point x="298" y="698"/>
      <point x="372" y="785"/>
      <point x="441" y="875" type="curve" smooth="yes"/>
      <point x="468" y="910"/>
      <point x="461" y="960"/>
      <point x="426" y="988" type="curve"/>
      <point x="426" y="988" type="line"/>
      <point x="391" y="1015"/>
      <point x="340" y="1009"/>
    </contour>
  </outline>
</glyph>
<glyph name="Digit_Six" format="1">
  <advance width="785"/>
  <unicode hex="0036"/>
  <outline>
    <contour>
      <point x="182" y="320" type="curve"/>
      <point x="182" y="413"/>
      <point x="246" y="488"/>
      <point x="325" y="488" type="curve"/>
      <point x="325" y="488" type="line"/>
      <point x="404" y="488"/>
      <point x="468" y="413"/>
      <point x="468" y="320" type="curve"/>
      <point x="468" y="320" type="line"/>
      <point x="468" y="228"/>
      <point x="404" y="153"/>
      <point x="325" y="153" type="curve"/>
      <point x="325" y="153" type="line"/>
      <point x="246" y="153"/>
      <point x="182" y="228"/>
    </contour>
    <contour>
      <point x="313" y="974" type="curve" smooth="yes"/>
      <point x="161" y="779"/>
      <point x="0" y="588"/>
      <point x="0" y="320" type="curve" smooth="yes"/>
      <point x="0" y="141"/>
      <point x="145" y="-5"/>
      <point x="325" y="-5" type="curve"/>
      <point x="325" y="-5" type="line"/>
      <point x="504" y="-5"/>
      <point x="650" y="141"/>
      <point x="650" y="320" type="curve"/>
      <point x="650" y="320" type="line"/>
      <point x="650" y="486"/>
      <point x="515" y="621"/>
      <point x="349" y="621" type="curve"/>
      <point x="349" y="621" type="line"/>
      <point x="313" y="621"/>
      <point x="279" y="614"/>
      <point x="247" y="603" type="curve"/>
      <point x="247" y="603" type="line"/>
      <point x="300" y="699"/>
      <point x="372" y="786"/>
      <point x="441" y="875" type="curve" smooth="yes"/>
      <point x="468" y="910"/>
      <point x="461" y="960"/>
      <point x="426" y="988" type="curve"/>
      <point x="426" y="988" type="line"/>
      <point x="391" y="1015"/>
      <point x="340" y="1009"/>
    </contour>
  </outline>
</glyph>
<glyph name="six" format="1">
  <advance width="785"/>
  <unicode hex="0036"/>
  <outline>
    <contour>
      <point x="182" y="320" type="curve" smooth="yes"/>
      <point x="182" y="413"/>
      <point x="246" y="488"/>
      <point x="325" y="488" type="curve" smooth="yes"/>
      <point x="404" y="488"/>
      <point x="468" y="413"/>
      <point x="468" y="320" type="curve" smooth="yes"/>
      <point x="468" y="228"/>
      <point x="404" y="153"/>
      <point x="325" y="153" type="curve" smooth="yes"/>
      <point x="246" y="153"/>
      <point x="182" y="228"/>
    </contour>
    <contour>
      <point x="313" y="977" type="curve" smooth="yes"/>
      <point x="160" y="781"/>
      <point x="0" y="589"/>
      <point x="0" y="320" type="curve" smooth="yes"/>
      <point x="0" y="141"/>
      <point x="145" y="-5"/>
      <point x="325" y="-5" type="curve" smooth="yes"/>
      <point x="504" y="-5"/>
      <point x="650" y="141"/>
      <point x="650" y="320" type="curve" smooth="yes"/>
      <point x="650" y="486"/>
      <point x="515" y="621"/>
      <point x="349" y="621" type="curve" smooth="yes"/>
      <point x="313" y="621"/>
      <point x="278" y="614"/>
      <point x="246" y="602" type="curve"/>
      <point x="298" y="700"/>
      <point x="371" y="788"/>
      <point x="441" y="878" type="curve" smooth="yes"/>
      <point x="466" y="911"/>
      <point x="458" y="959"/>
      <point x="423" y="987" type="curve" smooth="yes"/>
      <point x="387" y="1014"/>
      <point x="338" y="1010"/>
    </contour>
  </outline>
</glyph>
<glyph name="Digit_Seven" format="1">
  <advance width="880"/>
  <unicode hex="0037"/>
  <outline>
    <contour>
      <point x="521" y="847" type="line"/>
      <point x="437" y="711" type="line" smooth="yes"/>
      <point x="314" y="510"/>
      <point x="228" y="315"/>
      <point x="228" y="74" type="curve" smooth="yes"/>
      <point x="228" y="30"/>
      <point x="266" y="-5"/>
      <point x="313" y="-5" type="curve" smooth="yes"/>
      <point x="360" y="-5"/>
      <point x="398" y="30"/>
      <point x="398" y="74" type="curve" smooth="yes"/>
      <point x="398" y="282"/>
      <point x="470" y="452"/>
      <point x="576" y="626" type="curve" smooth="yes"/>
      <point x="733" y="881" type="line" smooth="yes"/>
      <point x="749" y="908"/>
      <point x="749" y="938"/>
      <point x="732" y="964" type="curve"/>
      <point x="732" y="964" type="line"/>
      <point x="716" y="990"/>
      <point x="688" y="1005"/>
      <point x="655" y="1005" type="curve" smooth="yes"/>
      <point x="85" y="1005" type="line" smooth="yes"/>
      <point x="38" y="1005"/>
      <point x="0" y="970"/>
      <point x="0" y="926" type="curve"/>
      <point x="0" y="926" type="line"/>
      <point x="0" y="883"/>
      <point x="38" y="847"/>
      <point x="85" y="847" type="curve" smooth="yes"/>
    </contour>
  </outline>
</glyph>
<glyph name="seven" format="1">
  <advance width="835"/>
  <unicode hex="0037"/>
  <outline>
    <contour>
      <point x="491" y="847" type="line"/>
      <point x="388" y="639" type="line" smooth="yes"/>
      <point x="295" y="453"/>
      <point x="219" y="282"/>
      <point x="219" y="69" type="curve" smooth="yes"/>
      <point x="219" y="28"/>
      <point x="257" y="-5"/>
      <point x="304" y="-5" type="curve" smooth="yes"/>
      <point x="351" y="-5"/>
      <point x="389" y="28"/>
      <point x="389" y="69" type="curve" smooth="yes"/>
      <point x="389" y="255"/>
      <point x="454" y="404"/>
      <point x="535" y="566" type="curve" smooth="yes"/>
      <point x="690" y="880" type="line" smooth="yes"/>
      <point x="704" y="908"/>
      <point x="703" y="938"/>
      <point x="686" y="964" type="curve" smooth="yes"/>
      <point x="670" y="990"/>
      <point x="643" y="1005"/>
      <point x="612" y="1005" type="curve" smooth="yes"/>
      <point x="79" y="1005" type="line" smooth="yes"/>
      <point x="35" y="1005"/>
      <point x="0" y="970"/>
      <point x="0" y="926" type="curve" smooth="yes"/>
      <point x="0" y="883"/>
      <point x="35" y="847"/>
      <point x="79" y="847" type="curve" smooth="yes"/>
    </contour>
  </outline>
</glyph>
<glyph name="Digit_Eight" format="1">
  <advance width="722"/>
  <unicode hex="0038"/>
  <outline>
    <contour>
      <point x="361" y="153" type="curve"/>
      <point x="263" y="153"/>
      <point x="184" y="223"/>
      <point x="184" y="310" type="curve"/>
      <point x="184" y="310" type="line"/>
      <point x="184" y="396"/>
      <point x="263" y="467"/>
      <point x="361" y="467" type="curve"/>
      <point x="361" y="467" type="line"/>
      <point x="459" y="467"/>
      <point x="538" y="396"/>
      <point x="538" y="310" type="curve"/>
      <point x="538" y="310" type="line"/>
      <point x="538" y="223"/>
      <point x="459" y="153"/>
    </contour>
    <contour>
      <point x="361" y="624" type="curve"/>
      <point x="291" y="624"/>
      <point x="234" y="674"/>
      <point x="234" y="736" type="curve"/>
      <point x="234" y="736" type="line"/>
      <point x="234" y="797"/>
      <point x="291" y="847"/>
      <point x="361" y="847" type="curve"/>
      <point x="361" y="847" type="line"/>
      <point x="431" y="847"/>
      <point x="488" y="797"/>
      <point x="488" y="736" type="curve"/>
      <point x="488" y="736" type="line"/>
      <point x="488" y="674"/>
      <point x="431" y="624"/>
    </contour>
    <contour>
      <point x="361" y="1005" type="curve"/>
      <point x="192" y="1005"/>
      <point x="54" y="884"/>
      <point x="54" y="736" type="curve"/>
      <point x="54" y="736" type="line"/>
      <point x="54" y="657"/>
      <point x="102" y="588"/>
      <point x="173" y="550" type="curve"/>
      <point x="173" y="550" type="line"/>
      <point x="71" y="507"/>
      <point x="0" y="416"/>
      <point x="0" y="310" type="curve"/>
      <point x="0" y="310" type="line"/>
      <point x="0" y="136"/>
      <point x="162" y="-5"/>
      <point x="361" y="-5" type="curve"/>
      <point x="361" y="-5" type="line"/>
      <point x="560" y="-5"/>
      <point x="722" y="136"/>
      <point x="722" y="310" type="curve"/>
      <point x="722" y="310" type="line"/>
      <point x="722" y="416"/>
      <point x="651" y="507"/>
      <point x="549" y="550" type="curve"/>
      <point x="549" y="550" type="line"/>
      <point x="620" y="588"/>
      <point x="668" y="657"/>
      <point x="668" y="736" type="curve"/>
      <point x="668" y="736" type="line"/>
      <point x="668" y="884"/>
      <point x="530" y="1005"/>
    </contour>
  </outline>
</glyph>
<glyph name="9" format="1">
  <advance width="785"/>
  <unicode hex="0039"/>
  <outline>
    <contour>
      <point x="468" y="680" type="curve"/>
      <point x="468" y="680" type="line"/>
      <point x="468" y="587"/>
      <point x="404" y="512"/>
      <point x="325" y="512" type="curve"/>
      <point x="325" y="512" type="line"/>
      <point x="246" y="512"/>
      <point x="182" y="587"/>
      <point x="182" y="680" type="curve"/>
      <point x="182" y="680" type="line"/>
      <point x="182" y="772"/>
      <point x="246" y="847"/>
      <point x="325" y="847" type="curve"/>
      <point x="325" y="847" type="line"/>
      <point x="404" y="847"/>
      <point x="468" y="772"/>
    </contour>
    <contour>
      <point x="337" y="26" type="curve" smooth="yes"/>
      <point x="489" y="221"/>
      <point x="650" y="412"/>
      <point x="650" y="680" type="curve" smooth="yes"/>
      <point x="650" y="859"/>
      <point x="504" y="1005"/>
      <point x="325" y="1005" type="curve"/>
      <point x="325" y="1005" type="line"/>
      <point x="145" y="1005"/>
      <point x="0" y="859"/>
      <point x="0" y="680" type="curve"/>
      <point x="0" y="680" type="line"/>
      <point x="0" y="515"/>
      <point x="134" y="381"/>
      <point x="299" y="381" type="curve"/>
      <point x="299" y="381" type="line"/>
      <point x="336" y="381"/>
      <point x="372" y="388"/>
      <point x="404" y="400" type="curve"/>
      <point x="404" y="400" type="line"/>
      <point x="352" y="302"/>
      <point x="278" y="215"/>
      <point x="209" y="125" type="curve" smooth="yes"/>
      <point x="182" y="90"/>
      <point x="189" y="40"/>
      <point x="224" y="12" type="curve"/>
      <point x="224" y="12" type="line"/>
      <point x="259" y="-15"/>
      <point x="310" y="-9"/>
    </contour>
  </outline>
</glyph>
<glyph name="Digit_Nine" format="1">
  <advance width="785"/>
  <unicode hex="0039"/>
  <outline>
    <contour>
      <point x="468" y="680" type="curve"/>
      <point x="468" y="680" type="line"/>
      <point x="468" y="587"/>
      <point x="404" y="512"/>
      <point x="325" y="512" type="curve"/>
      <point x="325" y="512" type="line"/>
      <point x="246" y="512"/>
      <point x="182" y="587"/>
      <point x="182" y="680" type="curve"/>
      <point x="182" y="680" type="line"/>
      <point x="182" y="772"/>
      <point x="246" y="847"/>
      <point x="325" y="847" type="curve"/>
      <point x="325" y="847" type="line"/>
      <point x="404" y="847"/>
      <point x="468" y="772"/>
    </contour>
    <contour>
      <point x="337" y="26" type="curve" smooth="yes"/>
      <point x="489" y="221"/>
      <point x="650" y="412"/>
      <point x="650" y="680" type="curve" smooth="yes"/>
      <point x="650" y="859"/>
      <point x="504" y="1005"/>
      <point x="325" y="1005" type="curve"/>
      <point x="325" y="1005" type="line"/>
      <point x="145" y="1005"/>
      <point x="0" y="859"/>
      <point x="0" y="680" type="curve"/>
      <point x="0" y="680" type="line"/>
      <point x="0" y="514"/>
      <point x="135" y="379"/>
      <point x="301" y="379" type="curve"/>
      <point x="301" y="379" type="line"/>
      <point x="336" y="379"/>
      <point x="371" y="386"/>
      <point x="403" y="397" type="curve"/>
      <point x="403" y="397" type="line"/>
      <point x="350" y="301"/>
      <point x="278" y="214"/>
      <point x="209" y="125" type="curve" smooth="yes"/>
      <point x="182" y="90"/>
      <point x="189" y="40"/>
      <point x="224" y="12" type="curve"/>
      <point x="224" y="12" type="line"/>
      <point x="259" y="-15"/>
      <point x="310" y="-9"/>
    </contour>
  </outline>
</glyph>
<glyph name="nine" format="1">
  <advance width="785"/>
  <unicode hex="0039"/>
  <outline>
    <contour>
      <point x="468" y="680" type="curve" smooth="yes"/>
      <point x="468" y="587"/>
      <point x="404" y="512"/>
      <point x="325" y="512" type="curve" smooth="yes"/>
      <point x="246" y="512"/>
      <point x="182" y="587"/>
      <point x="182" y="680" type="curve" smooth="yes"/>
      <point x="182" y="772"/>
      <point x="246" y="847"/>
      <point x="325" y="847" type="curve" smooth="yes"/>
      <point x="404" y="847"/>
      <point x="468" y="772"/>
    </contour>
    <contour>
      <point x="337" y="23" type="curve" smooth="yes"/>
      <point x="489" y="219"/>
      <point x="650" y="411"/>
      <point x="650" y="680" type="curve" smooth="yes"/>
      <point x="650" y="859"/>
      <point x="504" y="1005"/>
      <point x="325" y="1005" type="curve" smooth="yes"/>
      <point x="145" y="1005"/>
      <point x="0" y="859"/>
      <point x="0" y="680" type="curve" smooth="yes"/>
      <point x="0" y="514"/>
      <point x="135" y="379"/>
      <point x="301" y="379" type="curve" smooth="yes"/>
      <point x="337" y="379"/>
      <point x="372" y="386"/>
      <point x="404" y="398" type="curve"/>
      <point x="351" y="300"/>
      <point x="278" y="212"/>
      <point x="209" y="122" type="curve" smooth="yes"/>
      <point x="184" y="89"/>
      <point x="192" y="41"/>
      <point x="227" y="13" type="curve" smooth="yes"/>
      <point x="263" y="-14"/>
      <point x="312" y="-10"/>
    </contour>
  </outline>
</glyph>
<glyph name="colon" format="1">
  <advance width="322"/>
  <unicode hex="003A"/>
  <outline>
    <contour>
      <point x="187" y="102" type="line" smooth="yes"/>
      <point x="187" y="147"/>
      <point x="145" y="183"/>
      <point x="94" y="183" type="curve" smooth="yes"/>
      <point x="42" y="183"/>
      <point x="0" y="147"/>
      <point x="0" y="102" type="curve" smooth="yes"/>
      <point x="0" y="76" type="line" smooth="yes"/>
      <point x="0" y="31"/>
      <point x="42" y="-5"/>
      <point x="94" y="-5" type="curve" smooth="yes"/>
      <point x="145" y="-5"/>
      <point x="187" y="31"/>
      <point x="187" y="76" type="curve" smooth="yes"/>
    </contour>
    <contour>
      <point x="187" y="502" type="line" smooth="yes"/>
      <point x="187" y="547"/>
      <point x="145" y="583"/>
      <point x="94" y="583" type="curve" smooth="yes"/>
      <point x="42" y="583"/>
      <point x="0" y="547"/>
      <point x="0" y="502" type="curve" smooth="yes"/>
      <point x="0" y="476" type="line" smooth="yes"/>
      <point x="0" y="431"/>
      <point x="42" y="395"/>
      <point x="94" y="395" type="curve" smooth="yes"/>
      <point x="145" y="395"/>
      <point x="187" y="431"/>
      <point x="187" y="476" type="curve" smooth="yes"/>
    </contour>
  </outline>
</glyph>
<glyph name="semicolon" format="1">
  <advance width="322"/>
  <unicode hex="003B"/>
  <outline>
    <contour>
      <point x="187" y="102" type="curve" smooth="yes"/>
      <point x="187" y="147"/>
      <point x="145" y="183"/>
      <point x="94" y="183" type="curve" smooth="yes"/>
      <point x="42" y="183"/>
      <point x="0" y="147"/>
      <point x="0" y="102" type="curve" smooth="yes"/>
      <point x="0" y="76" type="line" smooth="yes"/>
      <point x="0" y="47"/>
      <point x="18" y="22"/>
      <point x="44" y="7" type="curve"/>
      <point x="53" y="3"/>
      <point x="58" y="-6"/>
      <point x="58" y="-16" type="curve" smooth="yes"/>
      <point x="58" y="-26"/>
      <point x="53" y="-34"/>
      <point x="44" y="-39" type="curve" smooth="yes"/>
      <point x="18" y="-53" type="line" smooth="yes"/>
      <point x="4" y="-60"/>
      <point x="-1" y="-77"/>
      <point x="6" y="-91" type="curve" smooth="yes"/>
      <point x="13" y="-105"/>
      <point x="30" y="-111"/>
      <point x="44" y="-104" type="curve" smooth="yes"/>
      <point x="123" y="-63"/>
      <point x="187" y="6"/>
    </contour>
    <contour>
      <point x="187" y="502" type="line" smooth="yes"/>
      <point x="187" y="547"/>
      <point x="145" y="583"/>
      <point x="94" y="583" type="curve" smooth="yes"/>
      <point x="42" y="583"/>
      <point x="0" y="547"/>
      <point x="0" y="502" type="curve" smooth="yes"/>
      <point x="0" y="476" type="line" smooth="yes"/>
      <point x="0" y="431"/>
      <point x="42" y="395"/>
      <point x="94" y="395" type="curve" smooth="yes"/>
      <point x="145" y="395"/>
      <point x="187" y="431"/>
      <point x="187" y="476" type="curve" smooth="yes"/>
    </contour>
  </outline>
</glyph>
<glyph name="less" format="1">
  <advance width="735"/>
  <unicode hex="003C"/>
  <outline>
    <contour>
      <point x="487" y="209" type="line" smooth="yes"/>
      <point x="498" y="204"/>
      <point x="509" y="201"/>
      <point x="522" y="201" type="curve" smooth="yes"/>
      <point x="564" y="202"/>
      <point x="599" y="238"/>
      <point x="600" y="281" type="curve"/>
      <point x="600" y="312"/>
      <point x="584" y="338"/>
      <point x="559" y="351" type="curve" smooth="yes"/>
      <point x="243" y="510" type="line"/>
      <point x="559" y="669" type="line" smooth="yes"/>
      <point x="584" y="682"/>
      <point x="600" y="708"/>
      <point x="600" y="739" type="curve" smooth="yes"/>
      <point x="599" y="782"/>
      <point x="564" y="818"/>
      <point x="522" y="819" type="curve" smooth="yes"/>
      <point x="509" y="819"/>
      <point x="498" y="816"/>
      <point x="487" y="811" type="curve" smooth="yes"/>
      <point x="50" y="591" type="line" smooth="yes"/>
      <point x="20" y="576"/>
      <point x="0" y="545"/>
      <point x="0" y="510" type="curve" smooth="yes"/>
      <point x="0" y="475"/>
      <point x="20" y="444"/>
      <point x="50" y="429" type="curve" smooth="yes"/>
    </contour>
  </outline>
</glyph>
<glyph name="equal" format="1">
  <advance width="785"/>
  <unicode hex="003D"/>
  <outline>
    <contour>
      <point x="571" y="596" type="line" smooth="yes"/>
      <point x="615" y="596"/>
      <point x="650" y="632"/>
      <point x="650" y="675" type="curve" smooth="yes"/>
      <point x="650" y="718"/>
      <point x="615" y="754"/>
      <point x="571" y="754" type="curve" smooth="yes"/>
      <point x="79" y="754" type="line" smooth="yes"/>
      <point x="35" y="754"/>
      <point x="0" y="718"/>
      <point x="0" y="675" type="curve" smooth="yes"/>
      <point x="0" y="632"/>
      <point x="35" y="596"/>
      <point x="79" y="596" type="curve" smooth="yes"/>
    </contour>
    <contour>
      <point x="571" y="266" type="line" smooth="yes"/>
      <point x="615" y="266"/>
      <point x="650" y="302"/>
      <point x="650" y="345" type="curve" smooth="yes"/>
      <point x="650" y="388"/>
      <point x="615" y="424"/>
      <point x="571" y="424" type="curve" smooth="yes"/>
      <point x="79" y="424" type="line" smooth="yes"/>
      <point x="35" y="424"/>
      <point x="0" y="388"/>
      <point x="0" y="345" type="curve" smooth="yes"/>
      <point x="0" y="302"/>
      <point x="35" y="266"/>
      <point x="79" y="266" type="curve" smooth="yes"/>
    </contour>
  </outline>
</glyph>
<glyph name="greater" format="1">
  <advance width="735"/>
  <unicode hex="003E"/>
  <outline>
    <contour>
      <point x="113" y="209" type="curve" smooth="yes"/>
      <point x="550" y="429" type="line" smooth="yes"/>
      <point x="580" y="444"/>
      <point x="600" y="475"/>
      <point x="600" y="510" type="curve" smooth="yes"/>
      <point x="600" y="545"/>
      <point x="580" y="576"/>
      <point x="550" y="591" type="curve" smooth="yes"/>
      <point x="113" y="811" type="line" smooth="yes"/>
      <point x="102" y="816"/>
      <point x="91" y="819"/>
      <point x="78" y="819" type="curve" smooth="yes"/>
      <point x="36" y="818"/>
      <point x="1" y="782"/>
      <point x="0" y="739" type="curve" smooth="yes"/>
      <point x="0" y="708"/>
      <point x="16" y="682"/>
      <point x="41" y="669" type="curve" smooth="yes"/>
      <point x="357" y="510" type="line"/>
      <point x="41" y="351" type="line" smooth="yes"/>
      <point x="16" y="338"/>
      <point x="0" y="312"/>
      <point x="0" y="281" type="curve" smooth="yes"/>
      <point x="1" y="238"/>
      <point x="36" y="202"/>
      <point x="78" y="201" type="curve" smooth="yes"/>
      <point x="91" y="201"/>
      <point x="102" y="204"/>
    </contour>
  </outline>
</glyph>
<glyph name="question" format="1">
  <advance width="734"/>
  <unicode hex="003F"/>
  <outline>
    <contour>
      <point x="386" y="102" type="line" smooth="yes"/>
      <point x="386" y="147"/>
      <point x="345" y="183"/>
      <point x="293" y="183" type="curve" smooth="yes"/>
      <point x="241" y="183"/>
      <point x="199" y="147"/>
      <point x="199" y="102" type="curve" smooth="yes"/>
      <point x="199" y="76" type="line" smooth="yes"/>
      <point x="199" y="31"/>
      <point x="241" y="-5"/>
      <point x="293" y="-5" type="curve" smooth="yes"/>
      <point x="345" y="-5"/>
      <point x="386" y="31"/>
      <point x="386" y="76" type="curve" smooth="yes"/>
    </contour>
    <contour>
      <point x="3" y="809" type="curve" smooth="yes"/>
      <point x="-9" y="770"/>
      <point x="18" y="728"/>
      <point x="62" y="714" type="curve" smooth="yes"/>
      <point x="106" y="701"/>
      <point x="151" y="722"/>
      <point x="163" y="761" type="curve" smooth="yes"/>
      <point x="184" y="820"/>
      <point x="247" y="856"/>
      <point x="314" y="846" type="curve" smooth="yes"/>
      <point x="381" y="836"/>
      <point x="429" y="784"/>
      <point x="429" y="722" type="curve" smooth="yes"/>
      <point x="429" y="675"/>
      <point x="393" y="646"/>
      <point x="359" y="624" type="curve" smooth="yes"/>
      <point x="280" y="570"/>
      <point x="208" y="499"/>
      <point x="208" y="393" type="curve" smooth="yes"/>
      <point x="208" y="353"/>
      <point x="246" y="320"/>
      <point x="293" y="320" type="curve" smooth="yes"/>
      <point x="340" y="320"/>
      <point x="378" y="353"/>
      <point x="378" y="393" type="curve" smooth="yes"/>
      <point x="378" y="440"/>
      <point x="414" y="469"/>
      <point x="448" y="491" type="curve" smooth="yes"/>
      <point x="527" y="545"/>
      <point x="599" y="616"/>
      <point x="599" y="722" type="curve" smooth="yes"/>
      <point x="599" y="862"/>
      <point x="491" y="979"/>
      <point x="341" y="1001" type="curve" smooth="yes"/>
      <point x="191" y="1023"/>
      <point x="49" y="943"/>
    </contour>
  </outline>
</glyph>
<glyph name="A" format="1">
  <advance width="1038"/>
  <unicode hex="0041"/>
  <outline>
    <contour>
      <point x="307" y="399" type="line"/>
      <point x="451" y="753" type="line"/>
      <point x="595" y="399" type="line"/>
    </contour>
    <contour>
      <point x="740" y="42" type="line"/>
      <point x="759" y="2"/>
      <point x="809" y="-16"/>
      <point x="852" y="2" type="curve" smooth="yes"/>
      <point x="895" y="20"/>
      <point x="914" y="66"/>
      <point x="895" y="106" type="curve"/>
      <point x="556" y="942" type="line"/>
      <point x="537" y="982"/>
      <point x="497" y="1005"/>
      <point x="449" y="1005" type="curve" smooth="yes"/>
      <point x="402" y="1004"/>
      <point x="363" y="979"/>
      <point x="345" y="938" type="curve" smooth="yes"/>
      <point x="6" y="103" type="line" smooth="yes"/>
      <point x="-11" y="63"/>
      <point x="10" y="17"/>
      <point x="53" y="1" type="curve" smooth="yes"/>
      <point x="97" y="-15"/>
      <point x="146" y="4"/>
      <point x="164" y="44" type="curve" smooth="yes"/>
      <point x="244" y="241" type="line"/>
      <point x="659" y="241" type="line"/>
    </contour>
  </outline>
</glyph>
<glyph name="Latin_Capital_Letter_A" format="1">
  <advance width="1038"/>
  <unicode hex="0041"/>
  <outline>
    <contour>
      <point x="308" y="399" type="line"/>
      <point x="451" y="753" type="line"/>
      <point x="595" y="399" type="line"/>
    </contour>
    <contour>
      <point x="738" y="46" type="line" smooth="yes"/>
      <point x="754" y="6"/>
      <point x="803" y="-15"/>
      <point x="847" y="0" type="curve" smooth="yes"/>
      <point x="891" y="16"/>
      <point x="914" y="61"/>
      <point x="897" y="102" type="curve" smooth="yes"/>
      <point x="559" y="936" type="line" smooth="yes"/>
      <point x="542" y="978"/>
      <point x="500" y="1005"/>
      <point x="451" y="1005" type="curve" smooth="yes"/>
      <point x="402" y="1005"/>
      <point x="361" y="978"/>
      <point x="344" y="936" type="curve" smooth="yes"/>
      <point x="5" y="102" type="line" smooth="yes"/>
      <point x="-11" y="61"/>
      <point x="11" y="16"/>
      <point x="55" y="0" type="curve" smooth="yes"/>
      <point x="99" y="-15"/>
      <point x="148" y="6"/>
      <point x="165" y="46" type="curve" smooth="yes"/>
      <point x="244" y="241" type="line"/>
      <point x="659" y="241" type="line"/>
    </contour>
  </outline>
</glyph>
<glyph name="B" format="1">
  <advance width="857"/>
  <unicode hex="0042"/>
  <outline>
    <contour>
      <point x="170" y="451" type="line"/>
      <point x="393" y="451" type="line" smooth="yes"/>
      <point x="481" y="451"/>
      <point x="552" y="386"/>
      <point x="552" y="304" type="curve"/>
      <point x="552" y="304" type="line"/>
      <point x="552" y="223"/>
      <point x="481" y="157"/>
      <point x="393" y="157" type="curve" smooth="yes"/>
      <point x="170" y="157" type="line"/>
    </contour>
    <contour>
      <point x="170" y="843" type="line"/>
      <point x="345" y="843" type="line" smooth="yes"/>
      <point x="415" y="843"/>
      <point x="472" y="790"/>
      <point x="472" y="726" type="curve"/>
      <point x="472" y="726" type="line"/>
      <point x="472" y="661"/>
      <point x="415" y="609"/>
      <point x="345" y="609" type="curve" smooth="yes"/>
      <point x="170" y="609" type="line"/>
    </contour>
    <contour>
      <point x="393" y="0" type="line" smooth="yes"/>
      <point x="575" y="0"/>
      <point x="722" y="136"/>
      <point x="722" y="304" type="curve"/>
      <point x="722" y="304" type="line"/>
      <point x="722" y="422"/>
      <point x="629" y="520"/>
      <point x="508" y="538" type="curve"/>
      <point x="508" y="538" type="line"/>
      <point x="587" y="569"/>
      <point x="642" y="642"/>
      <point x="642" y="726" type="curve"/>
      <point x="642" y="726" type="line"/>
      <point x="642" y="877"/>
      <point x="509" y="1000"/>
      <point x="345" y="1000" type="curve" smooth="yes"/>
      <point x="98" y="1000" type="line" smooth="yes"/>
      <point x="44" y="1000"/>
      <point x="0" y="960"/>
      <point x="0" y="910" type="curve" smooth="yes"/>
      <point x="0" y="90" type="line" smooth="yes"/>
      <point x="0" y="40"/>
      <point x="44" y="0"/>
      <point x="98" y="0" type="curve" smooth="yes"/>
    </contour>
  </outline>
</glyph>
<glyph name="C" format="1">
  <advance width="910"/>
  <unicode hex="0043"/>
  <outline>
    <contour>
      <point x="455" y="0" type="line" smooth="yes"/>
      <point x="573" y="0"/>
      <point x="679" y="53"/>
      <point x="755" y="138" type="curve" smooth="yes"/>
      <point x="782" y="169"/>
      <point x="779" y="218"/>
      <point x="747" y="249" type="curve" smooth="yes"/>
      <point x="715" y="280"/>
      <point x="666" y="280"/>
      <point x="636" y="251" type="curve"/>
      <point x="589" y="194"/>
      <point x="526" y="157"/>
      <point x="455" y="157" type="curve" smooth="yes"/>
      <point x="426" y="157" type="line" smooth="yes"/>
      <point x="287" y="157"/>
      <point x="190" y="298"/>
      <point x="190" y="472" type="curve" smooth="yes"/>
      <point x="190" y="528" type="line" smooth="yes"/>
      <point x="190" y="694"/>
      <point x="295" y="843"/>
      <point x="426" y="843" type="curve" smooth="yes"/>
      <point x="455" y="843" type="line" smooth="yes"/>
      <point x="530" y="843"/>
      <point x="594" y="808"/>
      <point x="639" y="751" type="curve"/>
      <point x="667" y="721"/>
      <point x="717" y="721"/>
      <point x="749" y="752" type="curve" smooth="yes"/>
      <point x="781" y="782"/>
      <point x="784" y="832"/>
      <point x="756" y="862" type="curve" smooth="yes"/>
      <point x="679" y="947"/>
      <point x="573" y="1000"/>
      <point x="455" y="1000" type="curve" smooth="yes"/>
      <point x="425" y="1000" type="line" smooth="yes"/>
      <point x="190" y="1000"/>
      <point x="0" y="788"/>
      <point x="0" y="528" type="curve" smooth="yes"/>
      <point x="0" y="472" type="line" smooth="yes"/>
      <point x="0" y="212"/>
      <point x="190" y="0"/>
      <point x="425" y="0" type="curve" smooth="yes"/>
    </contour>
  </outline>
</glyph>
<glyph name="D" format="1">
  <advance width="893"/>
  <unicode hex="0044"/>
  <outline>
    <contour>
      <point x="334" y="0" type="line" smooth="yes"/>
      <point x="568" y="0"/>
      <point x="758" y="212"/>
      <point x="758" y="472" type="curve" smooth="yes"/>
      <point x="758" y="528" type="line" smooth="yes"/>
      <point x="758" y="788"/>
      <point x="568" y="1000"/>
      <point x="334" y="1000" type="curve" smooth="yes"/>
      <point x="98" y="1000" type="line" smooth="yes"/>
      <point x="44" y="1000"/>
      <point x="0" y="962"/>
      <point x="0" y="916" type="curve" smooth="yes"/>
      <point x="0" y="84" type="line" smooth="yes"/>
      <point x="0" y="38"/>
      <point x="44" y="0"/>
      <point x="98" y="0" type="curve" smooth="yes"/>
    </contour>
    <contour>
      <point x="170" y="843" type="line"/>
      <point x="353" y="843" type="line" smooth="yes"/>
      <point x="491" y="843"/>
      <point x="588" y="702"/>
      <point x="588" y="528" type="curve" smooth="yes"/>
      <point x="588" y="472" type="line" smooth="yes"/>
      <point x="588" y="306"/>
      <point x="483" y="157"/>
      <point x="353" y="157" type="curve" smooth="yes"/>
      <point x="170" y="157" type="line"/>
    </contour>
  </outline>
</glyph>
<glyph name="E" format="1">
  <advance width="792"/>
  <unicode hex="0045"/>
  <outline>
    <contour>
      <point x="571" y="6" type="line" smooth="yes"/>
      <point x="618" y="6"/>
      <point x="656" y="42"/>
      <point x="656" y="85" type="curve"/>
      <point x="656" y="85" type="line"/>
      <point x="656" y="128"/>
      <point x="618" y="164"/>
      <point x="571" y="164" type="curve" smooth="yes"/>
      <point x="170" y="164" type="line"/>
      <point x="170" y="431" type="line"/>
      <point x="422" y="431" type="line" smooth="yes"/>
      <point x="469" y="431"/>
      <point x="507" y="467"/>
      <point x="507" y="510" type="curve"/>
      <point x="507" y="510" type="line"/>
      <point x="507" y="553"/>
      <point x="469" y="589"/>
      <point x="422" y="589" type="curve" smooth="yes"/>
      <point x="170" y="589" type="line"/>
      <point x="170" y="836" type="line"/>
      <point x="571" y="836" type="line" smooth="yes"/>
      <point x="618" y="836"/>
      <point x="656" y="872"/>
      <point x="656" y="915" type="curve"/>
      <point x="656" y="915" type="line"/>
      <point x="656" y="958"/>
      <point x="618" y="994"/>
      <point x="571" y="994" type="curve" smooth="yes"/>
      <point x="98" y="1000" type="line" smooth="yes"/>
      <point x="44" y="1000"/>
      <point x="0" y="960"/>
      <point x="0" y="910" type="curve" smooth="yes"/>
      <point x="0" y="90" type="line" smooth="yes"/>
      <point x="0" y="40"/>
      <point x="44" y="0"/>
      <point x="98" y="0" type="curve" smooth="yes"/>
    </contour>
  </outline>
</glyph>
<glyph name="F" format="1">
  <advance width="763"/>
  <unicode hex="0046"/>
  <outline>
    <contour>
      <point x="170" y="69" type="curve" smooth="yes"/>
      <point x="170" y="431" type="line"/>
      <point x="417" y="431" type="line" smooth="yes"/>
      <point x="461" y="431"/>
      <point x="496" y="467"/>
      <point x="496" y="510" type="curve" smooth="yes"/>
      <point x="496" y="553"/>
      <point x="461" y="589"/>
      <point x="417" y="589" type="curve" smooth="yes"/>
      <point x="170" y="589" type="line"/>
      <point x="170" y="843" type="line"/>
      <point x="548" y="843" type="line" smooth="yes"/>
      <point x="592" y="843"/>
      <point x="627" y="878"/>
      <point x="627" y="921" type="curve" smooth="yes"/>
      <point x="627" y="965"/>
      <point x="592" y="1000"/>
      <point x="548" y="1000" type="curve" smooth="yes"/>
      <point x="98" y="1000" type="line" smooth="yes"/>
      <point x="44" y="1000"/>
      <point x="0" y="962"/>
      <point x="0" y="916" type="curve" smooth="yes"/>
      <point x="0" y="69" type="line" smooth="yes"/>
      <point x="0" y="28"/>
      <point x="38" y="-5"/>
      <point x="85" y="-5" type="curve" smooth="yes"/>
      <point x="132" y="-5"/>
      <point x="170" y="28"/>
    </contour>
  </outline>
</glyph>
<glyph name="H" format="1">
  <advance width="882"/>
  <unicode hex="0048"/>
  <outline>
    <contour>
      <point x="170" y="431" type="line"/>
      <point x="577" y="431" type="line"/>
      <point x="577" y="69" type="line" smooth="yes"/>
      <point x="577" y="28"/>
      <point x="615" y="-5"/>
      <point x="662" y="-5" type="curve" smooth="yes"/>
      <point x="709" y="-5"/>
      <point x="747" y="28"/>
      <point x="747" y="69" type="curve" smooth="yes"/>
      <point x="747" y="931" type="line" smooth="yes"/>
      <point x="747" y="972"/>
      <point x="709" y="1005"/>
      <point x="662" y="1005" type="curve" smooth="yes"/>
      <point x="615" y="1005"/>
      <point x="577" y="972"/>
      <point x="577" y="931" type="curve" smooth="yes"/>
      <point x="577" y="589" type="line"/>
      <point x="170" y="589" type="line"/>
      <point x="170" y="931" type="line" smooth="yes"/>
      <point x="170" y="972"/>
      <point x="132" y="1005"/>
      <point x="85" y="1005" type="curve" smooth="yes"/>
      <point x="38" y="1005"/>
      <point x="0" y="972"/>
      <point x="0" y="931" type="curve" smooth="yes"/>
      <point x="0" y="69" type="line" smooth="yes"/>
      <point x="0" y="28"/>
      <point x="38" y="-5"/>
      <point x="85" y="-5" type="curve" smooth="yes"/>
      <point x="132" y="-5"/>
      <point x="170" y="28"/>
      <point x="170" y="69" type="curve" smooth="yes"/>
    </contour>
  </outline>
</glyph>
<glyph name="Latin_Capital_Letter_H" format="1">
  <advance width="948"/>
  <unicode hex="0048"/>
  <outline>
    <contour>
      <point x="170" y="431" type="line"/>
      <point x="642" y="431" type="line"/>
      <point x="642" y="74" type="line" smooth="yes"/>
      <point x="642" y="30"/>
      <point x="680" y="-5"/>
      <point x="727" y="-5" type="curve" smooth="yes"/>
      <point x="774" y="-5"/>
      <point x="812" y="30"/>
      <point x="812" y="74" type="curve" smooth="yes"/>
      <point x="812" y="926" type="line" smooth="yes"/>
      <point x="812" y="970"/>
      <point x="774" y="1005"/>
      <point x="727" y="1005" type="curve" smooth="yes"/>
      <point x="680" y="1005"/>
      <point x="642" y="970"/>
      <point x="642" y="926" type="curve" smooth="yes"/>
      <point x="642" y="589" type="line"/>
      <point x="170" y="589" type="line"/>
      <point x="170" y="926" type="line" smooth="yes"/>
      <point x="170" y="970"/>
      <point x="132" y="1005"/>
      <point x="85" y="1005" type="curve" smooth="yes"/>
      <point x="38" y="1005"/>
      <point x="0" y="970"/>
      <point x="0" y="926" type="curve" smooth="yes"/>
      <point x="0" y="74" type="line" smooth="yes"/>
      <point x="0" y="30"/>
      <point x="38" y="-5"/>
      <point x="85" y="-5" type="curve" smooth="yes"/>
      <point x="132" y="-5"/>
      <point x="170" y="30"/>
      <point x="170" y="74" type="curve" smooth="yes"/>
    </contour>
  </outline>
</glyph>
<glyph name="I" format="1">
  <advance width="305"/>
  <unicode hex="0049"/>
  <outline>
    <contour>
      <point x="170" y="931" type="line" smooth="yes"/>
      <point x="170" y="972"/>
      <point x="132" y="1005"/>
      <point x="85" y="1005" type="curve" smooth="yes"/>
      <point x="38" y="1005"/>
      <point x="0" y="972"/>
      <point x="0" y="931" type="curve" smooth="yes"/>
      <point x="0" y="69" type="line" smooth="yes"/>
      <point x="0" y="28"/>
      <point x="38" y="-5"/>
      <point x="85" y="-5" type="curve" smooth="yes"/>
      <point x="132" y="-5"/>
      <point x="170" y="28"/>
      <point x="170" y="69" type="curve" smooth="yes"/>
    </contour>
  </outline>
</glyph>
<glyph name="Latin_Capital_Letter_I" format="1">
  <advance width="170"/>
  <unicode hex="0049"/>
  <outline>
    <contour>
      <point x="170" y="926" type="line" smooth="yes"/>
      <point x="170" y="970"/>
      <point x="132" y="1005"/>
      <point x="85" y="1005" type="curve" smooth="yes"/>
      <point x="38" y="1005"/>
      <point x="0" y="970"/>
      <point x="0" y="926" type="curve" smooth="yes"/>
      <point x="0" y="74" type="line" smooth="yes"/>
      <point x="0" y="30"/>
      <point x="38" y="-5"/>
      <point x="85" y="-5" type="curve" smooth="yes"/>
      <point x="132" y="-5"/>
      <point x="170" y="30"/>
      <point x="170" y="74" type="curve" smooth="yes"/>
    </contour>
  </outline>
</glyph>
<glyph name="J" format="1">
  <advance width="639"/>
  <unicode hex="004A"/>
  <outline>
    <contour>
      <point x="334" y="267" type="line" smooth="yes"/>
      <point x="334" y="220"/>
      <point x="307" y="179"/>
      <point x="264" y="161" type="curve" smooth="yes"/>
      <point x="221" y="143"/>
      <point x="174" y="153"/>
      <point x="140" y="186" type="curve"/>
      <point x="111" y="218"/>
      <point x="60" y="219"/>
      <point x="27" y="188" type="curve" smooth="yes"/>
      <point x="-6" y="157"/>
      <point x="-9" y="107"/>
      <point x="20" y="75" type="curve"/>
      <point x="103" y="-5"/>
      <point x="221" y="-27"/>
      <point x="329" y="16" type="curve" smooth="yes"/>
      <point x="437" y="59"/>
      <point x="504" y="154"/>
      <point x="504" y="267" type="curve" smooth="yes"/>
      <point x="504" y="931" type="line" smooth="yes"/>
      <point x="504" y="972"/>
      <point x="466" y="1005"/>
      <point x="419" y="1005" type="curve" smooth="yes"/>
      <point x="372" y="1005"/>
      <point x="334" y="972"/>
      <point x="334" y="931" type="curve" smooth="yes"/>
    </contour>
  </outline>
</glyph>
<glyph name="Latin_Capital_Letter_J" format="1">
  <advance width="649"/>
  <unicode hex="004A"/>
  <outline>
    <contour>
      <point x="344" y="278" type="line" smooth="yes"/>
      <point x="344" y="226"/>
      <point x="316" y="182"/>
      <point x="270" y="162" type="curve" smooth="yes"/>
      <point x="225" y="142"/>
      <point x="176" y="153"/>
      <point x="141" y="189" type="curve"/>
      <point x="141" y="189" type="line"/>
      <point x="111" y="222"/>
      <point x="60" y="223"/>
      <point x="27" y="192" type="curve"/>
      <point x="27" y="192" type="line"/>
      <point x="-7" y="162"/>
      <point x="-9" y="110"/>
      <point x="21" y="78" type="curve"/>
      <point x="21" y="78" type="line"/>
      <point x="105" y="-5"/>
      <point x="225" y="-28"/>
      <point x="335" y="17" type="curve" smooth="yes"/>
      <point x="446" y="62"/>
      <point x="514" y="161"/>
      <point x="514" y="278" type="curve" smooth="yes"/>
      <point x="514" y="926" type="line" smooth="yes"/>
      <point x="514" y="970"/>
      <point x="476" y="1005"/>
      <point x="429" y="1005" type="curve" smooth="yes"/>
      <point x="382" y="1005"/>
      <point x="344" y="970"/>
      <point x="344" y="926" type="curve" smooth="yes"/>
    </contour>
  </outline>
</glyph>
<glyph name="K" format="1">
  <advance width="803"/>
  <unicode hex="004B"/>
  <outline>
    <contour>
      <point x="170" y="245" type="line"/>
      <point x="272" y="380" type="line"/>
      <point x="513" y="29" type="line" smooth="yes"/>
      <point x="539" y="-6"/>
      <point x="592" y="-15"/>
      <point x="631" y="9" type="curve" smooth="yes"/>
      <point x="670" y="34"/>
      <point x="680" y="83"/>
      <point x="653" y="118" type="curve"/>
      <point x="378" y="519" type="line"/>
      <point x="651" y="879" type="line" smooth="yes"/>
      <point x="679" y="913"/>
      <point x="672" y="962"/>
      <point x="634" y="989" type="curve" smooth="yes"/>
      <point x="597" y="1015"/>
      <point x="544" y="1008"/>
      <point x="515" y="974" type="curve"/>
      <point x="170" y="519" type="line"/>
      <point x="170" y="926" type="line" smooth="yes"/>
      <point x="170" y="970"/>
      <point x="132" y="1005"/>
      <point x="85" y="1005" type="curve" smooth="yes"/>
      <point x="38" y="1005"/>
      <point x="0" y="970"/>
      <point x="0" y="926" type="curve" smooth="yes"/>
      <point x="0" y="74" type="line" smooth="yes"/>
      <point x="0" y="30"/>
      <point x="38" y="-5"/>
      <point x="85" y="-5" type="curve" smooth="yes"/>
      <point x="132" y="-5"/>
      <point x="170" y="30"/>
      <point x="170" y="74" type="curve" smooth="yes"/>
    </contour>
  </outline>
</glyph>
<glyph name="Latin_Capital_Letter_K" format="1">
  <advance width="804"/>
  <unicode hex="004B"/>
  <outline>
    <contour>
      <point x="170" y="245" type="line"/>
      <point x="272" y="380" type="line"/>
      <point x="511" y="32" type="line" smooth="yes"/>
      <point x="528" y="7"/>
      <point x="555" y="-6"/>
      <point x="586" y="-5" type="curve" smooth="yes"/>
      <point x="618" y="-3"/>
      <point x="644" y="12"/>
      <point x="658" y="37" type="curve" smooth="yes"/>
      <point x="673" y="63"/>
      <point x="671" y="92"/>
      <point x="655" y="116" type="curve" smooth="yes"/>
      <point x="378" y="519" type="line"/>
      <point x="652" y="881" type="line" smooth="yes"/>
      <point x="679" y="916"/>
      <point x="670" y="965"/>
      <point x="632" y="990" type="curve" smooth="yes"/>
      <point x="593" y="1015"/>
      <point x="540" y="1007"/>
      <point x="513" y="971" type="curve" smooth="yes"/>
      <point x="170" y="519" type="line"/>
      <point x="170" y="926" type="line" smooth="yes"/>
      <point x="170" y="970"/>
      <point x="132" y="1005"/>
      <point x="85" y="1005" type="curve" smooth="yes"/>
      <point x="38" y="1005"/>
      <point x="0" y="970"/>
      <point x="0" y="926" type="curve" smooth="yes"/>
      <point x="0" y="74" type="line" smooth="yes"/>
      <point x="0" y="30"/>
      <point x="38" y="-5"/>
      <point x="85" y="-5" type="curve" smooth="yes"/>
      <point x="132" y="-5"/>
      <point x="170" y="30"/>
      <point x="170" y="74" type="curve" smooth="yes"/>
    </contour>
  </outline>
</glyph>
<glyph name="L" format="1">
  <advance width="819"/>
  <unicode hex="004C"/>
  <outline>
    <contour>
      <point x="598" y="6" type="line" smooth="yes"/>
      <point x="645" y="6"/>
      <point x="683" y="42"/>
      <point x="683" y="85" type="curve"/>
      <point x="683" y="85" type="line"/>
      <point x="683" y="128"/>
      <point x="645" y="164"/>
      <point x="598" y="164" type="curve" smooth="yes"/>
      <point x="170" y="164" type="line"/>
      <point x="170" y="926" type="line" smooth="yes"/>
      <point x="170" y="970"/>
      <point x="132" y="1005"/>
      <point x="85" y="1005" type="curve" smooth="yes"/>
      <point x="38" y="1005"/>
      <point x="0" y="970"/>
      <point x="0" y="926" type="curve" smooth="yes"/>
      <point x="0" y="86" type="line" smooth="yes"/>
      <point x="0" y="36"/>
      <point x="44" y="-5"/>
      <point x="98" y="-5" type="curve" smooth="yes"/>
    </contour>
  </outline>
</glyph>
<glyph name="Latin_Capital_Letter_L" format="1">
  <advance width="677"/>
  <unicode hex="004C"/>
  <outline>
    <contour>
      <point x="592" y="0" type="line" smooth="yes"/>
      <point x="639" y="0"/>
      <point x="677" y="35"/>
      <point x="677" y="79" type="curve"/>
      <point x="677" y="79" type="line"/>
      <point x="677" y="122"/>
      <point x="639" y="157"/>
      <point x="592" y="157" type="curve" smooth="yes"/>
      <point x="170" y="157" type="line"/>
      <point x="170" y="926" type="line" smooth="yes"/>
      <point x="170" y="970"/>
      <point x="132" y="1005"/>
      <point x="85" y="1005" type="curve" smooth="yes"/>
      <point x="38" y="1005"/>
      <point x="0" y="970"/>
      <point x="0" y="926" type="curve" smooth="yes"/>
      <point x="0" y="90" type="line" smooth="yes"/>
      <point x="0" y="40"/>
      <point x="44" y="0"/>
      <point x="98" y="0" type="curve" smooth="yes"/>
    </contour>
  </outline>
</glyph>
<glyph name="Latin_Capital_Letter_M" format="1">
  <advance width="1128"/>
  <unicode hex="004D"/>
  <outline>
    <contour>
      <point x="470" y="61" type="line" smooth="yes"/>
      <point x="482" y="22"/>
      <point x="518" y="-4"/>
      <point x="561" y="-5" type="curve" smooth="yes"/>
      <point x="605" y="-6"/>
      <point x="642" y="18"/>
      <point x="656" y="56" type="curve"/>
      <point x="839" y="645" type="line"/>
      <point x="960" y="58" type="line" smooth="yes"/>
      <point x="969" y="16"/>
      <point x="1014" y="-12"/>
      <point x="1060" y="-3" type="curve" smooth="yes"/>
      <point x="1106" y="5"/>
      <point x="1136" y="47"/>
      <point x="1126" y="89" type="curve" smooth="yes"/>
      <point x="944" y="932" type="line" smooth="yes"/>
      <point x="935" y="973"/>
      <point x="899" y="1002"/>
      <point x="854" y="1005" type="curve" smooth="yes"/>
      <point x="810" y="1007"/>
      <point x="770" y="983"/>
      <point x="755" y="944" type="curve"/>
      <point x="558" y="286" type="line"/>
      <point x="374" y="939" type="line" smooth="yes"/>
      <point x="362" y="980"/>
      <point x="322" y="1006"/>
      <point x="276" y="1005" type="curve" smooth="yes"/>
      <point x="231" y="1003"/>
      <point x="193" y="974"/>
      <point x="184" y="932" type="curve" smooth="yes"/>
      <point x="2" y="89" type="line" smooth="yes"/>
      <point x="-8" y="47"/>
      <point x="22" y="5"/>
      <point x="68" y="-3" type="curve" smooth="yes"/>
      <point x="114" y="-12"/>
      <point x="159" y="16"/>
      <point x="168" y="58" type="curve" smooth="yes"/>
      <point x="293" y="662" type="line"/>
    </contour>
  </outline>
</glyph>
<glyph name="M" format="1">
  <advance width="1264"/>
  <unicode hex="004D"/>
  <outline>
    <contour>
      <point x="472" y="56" type="line"/>
      <point x="485" y="19"/>
      <point x="521" y="-5"/>
      <point x="564" y="-5" type="curve" smooth="yes"/>
      <point x="607" y="-5"/>
      <point x="643" y="19"/>
      <point x="657" y="56" type="curve"/>
      <point x="839" y="645" type="line"/>
      <point x="960" y="56" type="line"/>
      <point x="971" y="14"/>
      <point x="1017" y="-13"/>
      <point x="1062" y="-3" type="curve" smooth="yes"/>
      <point x="1108" y="7"/>
      <point x="1137" y="49"/>
      <point x="1126" y="92" type="curve" smooth="yes"/>
      <point x="943" y="935" type="line" smooth="yes"/>
      <point x="933" y="975"/>
      <point x="897" y="1003"/>
      <point x="853" y="1005" type="curve" smooth="yes"/>
      <point x="808" y="1007"/>
      <point x="770" y="982"/>
      <point x="755" y="944" type="curve"/>
      <point x="558" y="286" type="line"/>
      <point x="373" y="944" type="line"/>
      <point x="358" y="983"/>
      <point x="319" y="1007"/>
      <point x="275" y="1005" type="curve" smooth="yes"/>
      <point x="230" y="1002"/>
      <point x="194" y="974"/>
      <point x="185" y="933" type="curve" smooth="yes"/>
      <point x="2" y="91" type="line" smooth="yes"/>
      <point x="-8" y="48"/>
      <point x="21" y="6"/>
      <point x="67" y="-3" type="curve" smooth="yes"/>
      <point x="113" y="-12"/>
      <point x="158" y="15"/>
      <point x="168" y="57" type="curve" smooth="yes"/>
      <point x="293" y="662" type="line"/>
    </contour>
  </outline>
</glyph>
<glyph name="Latin_Capital_Letter_N" format="1">
  <advance width="767"/>
  <unicode hex="004E"/>
  <outline>
    <contour>
      <point x="170" y="641" type="line"/>
      <point x="587" y="37" type="line" smooth="yes"/>
      <point x="611" y="3"/>
      <point x="654" y="-13"/>
      <point x="697" y="-1" type="curve" smooth="yes"/>
      <point x="739" y="10"/>
      <point x="767" y="45"/>
      <point x="767" y="86" type="curve" smooth="yes"/>
      <point x="767" y="926" type="line" smooth="yes"/>
      <point x="767" y="970"/>
      <point x="729" y="1005"/>
      <point x="682" y="1005" type="curve" smooth="yes"/>
      <point x="635" y="1005"/>
      <point x="597" y="970"/>
      <point x="597" y="926" type="curve" smooth="yes"/>
      <point x="597" y="359" type="line"/>
      <point x="180" y="963" type="line" smooth="yes"/>
      <point x="156" y="997"/>
      <point x="113" y="1013"/>
      <point x="70" y="1001" type="curve" smooth="yes"/>
      <point x="28" y="990"/>
      <point x="0" y="955"/>
      <point x="0" y="914" type="curve" smooth="yes"/>
      <point x="0" y="74" type="line" smooth="yes"/>
      <point x="0" y="30"/>
      <point x="38" y="-5"/>
      <point x="85" y="-5" type="curve" smooth="yes"/>
      <point x="132" y="-5"/>
      <point x="170" y="30"/>
      <point x="170" y="74" type="curve" smooth="yes"/>
    </contour>
  </outline>
</glyph>
<glyph name="N" format="1">
  <advance width="903"/>
  <unicode hex="004E"/>
  <outline>
    <contour>
      <point x="170" y="642" type="line"/>
      <point x="589" y="34" type="line" smooth="yes"/>
      <point x="614" y="1"/>
      <point x="657" y="-13"/>
      <point x="698" y="-1" type="curve" smooth="yes"/>
      <point x="740" y="11"/>
      <point x="767" y="45"/>
      <point x="767" y="86" type="curve" smooth="yes"/>
      <point x="767" y="926" type="line" smooth="yes"/>
      <point x="767" y="970"/>
      <point x="729" y="1005"/>
      <point x="682" y="1005" type="curve" smooth="yes"/>
      <point x="635" y="1005"/>
      <point x="597" y="970"/>
      <point x="597" y="926" type="curve" smooth="yes"/>
      <point x="597" y="358" type="line"/>
      <point x="178" y="966" type="line" smooth="yes"/>
      <point x="153" y="999"/>
      <point x="110" y="1013"/>
      <point x="69" y="1001" type="curve" smooth="yes"/>
      <point x="27" y="989"/>
      <point x="0" y="955"/>
      <point x="0" y="914" type="curve" smooth="yes"/>
      <point x="0" y="74" type="line" smooth="yes"/>
      <point x="0" y="30"/>
      <point x="38" y="-5"/>
      <point x="85" y="-5" type="curve" smooth="yes"/>
      <point x="132" y="-5"/>
      <point x="170" y="30"/>
      <point x="170" y="74" type="curve" smooth="yes"/>
    </contour>
  </outline>
</glyph>
<glyph name="Latin_Capital_Letter_O" format="1">
  <advance width="880"/>
  <unicode hex="004F"/>
  <outline>
    <contour>
      <point x="189" y="472" type="curve" smooth="yes"/>
      <point x="189" y="528" type="line" smooth="yes"/>
      <point x="189" y="694"/>
      <point x="294" y="843"/>
      <point x="425" y="843" type="curve" smooth="yes"/>
      <point x="455" y="843" type="line" smooth="yes"/>
      <point x="594" y="843"/>
      <point x="691" y="702"/>
      <point x="691" y="528" type="curve" smooth="yes"/>
      <point x="691" y="472" type="line" smooth="yes"/>
      <point x="691" y="306"/>
      <point x="586" y="157"/>
      <point x="455" y="157" type="curve" smooth="yes"/>
      <point x="425" y="157" type="line" smooth="yes"/>
      <point x="286" y="157"/>
      <point x="189" y="298"/>
    </contour>
    <contour>
      <point x="0" y="472" type="line" smooth="yes"/>
      <point x="0" y="212"/>
      <point x="190" y="0"/>
      <point x="425" y="0" type="curve" smooth="yes"/>
      <point x="455" y="0" type="line" smooth="yes"/>
      <point x="690" y="0"/>
      <point x="880" y="212"/>
      <point x="880" y="472" type="curve" smooth="yes"/>
      <point x="880" y="528" type="line" smooth="yes"/>
      <point x="880" y="788"/>
      <point x="690" y="1000"/>
      <point x="455" y="1000" type="curve" smooth="yes"/>
      <point x="425" y="1000" type="line" smooth="yes"/>
      <point x="190" y="1000"/>
      <point x="0" y="788"/>
      <point x="0" y="528" type="curve" smooth="yes"/>
    </contour>
  </outline>
</glyph>
<glyph name="O" format="1">
  <advance width="1015"/>
  <unicode hex="004F"/>
  <outline>
    <contour>
      <point x="178" y="472" type="curve" smooth="yes"/>
      <point x="178" y="528" type="line" smooth="yes"/>
      <point x="178" y="694"/>
      <point x="288" y="843"/>
      <point x="425" y="843" type="curve" smooth="yes"/>
      <point x="455" y="843" type="line" smooth="yes"/>
      <point x="600" y="843"/>
      <point x="702" y="702"/>
      <point x="702" y="528" type="curve" smooth="yes"/>
      <point x="702" y="472" type="line" smooth="yes"/>
      <point x="702" y="306"/>
      <point x="592" y="157"/>
      <point x="455" y="157" type="curve" smooth="yes"/>
      <point x="425" y="157" type="line" smooth="yes"/>
      <point x="279" y="157"/>
      <point x="178" y="298"/>
    </contour>
    <contour>
      <point x="0" y="472" type="line" smooth="yes"/>
      <point x="0" y="212"/>
      <point x="190" y="0"/>
      <point x="425" y="0" type="curve" smooth="yes"/>
      <point x="455" y="0" type="line" smooth="yes"/>
      <point x="690" y="0"/>
      <point x="880" y="212"/>
      <point x="880" y="472" type="curve" smooth="yes"/>
      <point x="880" y="528" type="line" smooth="yes"/>
      <point x="880" y="788"/>
      <point x="690" y="1000"/>
      <point x="455" y="1000" type="curve" smooth="yes"/>
      <point x="425" y="1000" type="line" smooth="yes"/>
      <point x="190" y="1000"/>
      <point x="0" y="788"/>
      <point x="0" y="528" type="curve" smooth="yes"/>
    </contour>
  </outline>
</glyph>
<glyph name="P" format="1">
  <advance width="790"/>
  <unicode hex="0050"/>
  <outline>
    <contour>
      <point x="170" y="69" type="curve" smooth="yes"/>
      <point x="170" y="371" type="line"/>
      <point x="315" y="371" type="line" smooth="yes"/>
      <point x="503" y="371"/>
      <point x="654" y="509"/>
      <point x="654" y="679" type="curve" smooth="yes"/>
      <point x="654" y="692" type="line" smooth="yes"/>
      <point x="654" y="862"/>
      <point x="503" y="1000"/>
      <point x="315" y="1000" type="curve" smooth="yes"/>
      <point x="98" y="1000" type="line" smooth="yes"/>
      <point x="44" y="1000"/>
      <point x="0" y="962"/>
      <point x="0" y="916" type="curve" smooth="yes"/>
      <point x="0" y="69" type="line" smooth="yes"/>
      <point x="0" y="28"/>
      <point x="38" y="-5"/>
      <point x="85" y="-5" type="curve" smooth="yes"/>
      <point x="132" y="-5"/>
      <point x="170" y="28"/>
    </contour>
    <contour>
      <point x="170" y="843" type="line"/>
      <point x="315" y="843" type="line" smooth="yes"/>
      <point x="405" y="843"/>
      <point x="479" y="775"/>
      <point x="479" y="692" type="curve" smooth="yes"/>
      <point x="479" y="679" type="line" smooth="yes"/>
      <point x="479" y="595"/>
      <point x="406" y="529"/>
      <point x="315" y="529" type="curve" smooth="yes"/>
      <point x="170" y="529" type="line"/>
    </contour>
  </outline>
</glyph>
<glyph name="Latin_Capital_Letter_Q" format="1">
  <advance width="1015"/>
  <unicode hex="0051"/>
  <outline>
    <contour>
      <point x="189" y="472" type="curve" smooth="yes"/>
      <point x="189" y="528" type="line" smooth="yes"/>
      <point x="189" y="694"/>
      <point x="294" y="843"/>
      <point x="425" y="843" type="curve" smooth="yes"/>
      <point x="455" y="843" type="line" smooth="yes"/>
      <point x="594" y="843"/>
      <point x="691" y="702"/>
      <point x="691" y="528" type="curve" smooth="yes"/>
      <point x="691" y="472" type="line" smooth="yes"/>
      <point x="691" y="306"/>
      <point x="586" y="157"/>
      <point x="455" y="157" type="curve" smooth="yes"/>
      <point x="425" y="157" type="line" smooth="yes"/>
      <point x="286" y="157"/>
      <point x="189" y="298"/>
    </contour>
    <contour>
      <point x="0" y="473" type="line" smooth="yes"/>
      <point x="0" y="286"/>
      <point x="89" y="128"/>
      <point x="240" y="47" type="curve" smooth="yes"/>
      <point x="702" y="-175" type="line"/>
      <point x="740" y="-201"/>
      <point x="790" y="-193"/>
      <point x="816" y="-157" type="curve"/>
      <point x="816" y="-157" type="line"/>
      <point x="841" y="-121"/>
      <point x="831" y="-71"/>
      <point x="794" y="-46" type="curve"/>
      <point x="604" y="30" type="line"/>
      <point x="765" y="97"/>
      <point x="880" y="270"/>
      <point x="880" y="472" type="curve" smooth="yes"/>
      <point x="880" y="528" type="line" smooth="yes"/>
      <point x="880" y="788"/>
      <point x="690" y="1000"/>
      <point x="455" y="1000" type="curve" smooth="yes"/>
      <point x="425" y="1000" type="line" smooth="yes"/>
      <point x="190" y="1000"/>
      <point x="0" y="788"/>
      <point x="0" y="528" type="curve" smooth="yes"/>
    </contour>
  </outline>
</glyph>
<glyph name="Q" format="1">
  <advance width="1015"/>
  <unicode hex="0051"/>
  <outline>
    <contour>
      <point x="189" y="472" type="curve" smooth="yes"/>
      <point x="189" y="528" type="line" smooth="yes"/>
      <point x="189" y="694"/>
      <point x="294" y="843"/>
      <point x="425" y="843" type="curve" smooth="yes"/>
      <point x="455" y="843" type="line" smooth="yes"/>
      <point x="594" y="843"/>
      <point x="691" y="702"/>
      <point x="691" y="528" type="curve" smooth="yes"/>
      <point x="691" y="472" type="line" smooth="yes"/>
      <point x="691" y="306"/>
      <point x="586" y="157"/>
      <point x="455" y="157" type="curve" smooth="yes"/>
      <point x="425" y="157" type="line" smooth="yes"/>
      <point x="286" y="157"/>
      <point x="189" y="298"/>
    </contour>
    <contour>
      <point x="0" y="473" type="line" smooth="yes"/>
      <point x="0" y="286"/>
      <point x="89" y="128"/>
      <point x="240" y="47" type="curve" smooth="yes"/>
      <point x="658" y="-153" type="line"/>
      <point x="693" y="-178"/>
      <point x="741" y="-168"/>
      <point x="766" y="-132" type="curve" smooth="yes"/>
      <point x="790" y="-96"/>
      <point x="782" y="-47"/>
      <point x="748" y="-23" type="curve"/>
      <point x="608" y="32" type="line"/>
      <point x="767" y="100"/>
      <point x="880" y="272"/>
      <point x="880" y="472" type="curve" smooth="yes"/>
      <point x="880" y="528" type="line" smooth="yes"/>
      <point x="880" y="788"/>
      <point x="690" y="1000"/>
      <point x="455" y="1000" type="curve" smooth="yes"/>
      <point x="425" y="1000" type="line" smooth="yes"/>
      <point x="190" y="1000"/>
      <point x="0" y="788"/>
      <point x="0" y="528" type="curve" smooth="yes"/>
    </contour>
  </outline>
</glyph>
<glyph name="R" format="1">
  <advance width="799"/>
  <unicode hex="0052"/>
  <outline>
    <contour>
      <point x="170" y="371" type="line"/>
      <point x="319" y="371" type="line"/>
      <point x="503" y="38" type="line" smooth="yes"/>
      <point x="517" y="12"/>
      <point x="543" y="-3"/>
      <point x="574" y="-5" type="curve" smooth="yes"/>
      <point x="605" y="-6"/>
      <point x="633" y="7"/>
      <point x="650" y="31" type="curve" smooth="yes"/>
      <point x="667" y="55"/>
      <point x="668" y="84"/>
      <point x="654" y="110" type="curve" smooth="yes"/>
      <point x="489" y="410" type="line"/>
      <point x="593" y="463"/>
      <point x="663" y="563"/>
      <point x="663" y="679" type="curve" smooth="yes"/>
      <point x="663" y="692" type="line" smooth="yes"/>
      <point x="663" y="862"/>
      <point x="512" y="1000"/>
      <point x="325" y="1000" type="curve" smooth="yes"/>
      <point x="98" y="1000" type="line" smooth="yes"/>
      <point x="44" y="1000"/>
      <point x="0" y="960"/>
      <point x="0" y="910" type="curve" smooth="yes"/>
      <point x="0" y="74" type="line" smooth="yes"/>
      <point x="0" y="30"/>
      <point x="38" y="-5"/>
      <point x="85" y="-5" type="curve" smooth="yes"/>
      <point x="132" y="-5"/>
      <point x="170" y="30"/>
      <point x="170" y="74" type="curve" smooth="yes"/>
    </contour>
    <contour>
      <point x="170" y="843" type="line"/>
      <point x="325" y="843" type="line" smooth="yes"/>
      <point x="410" y="843"/>
      <point x="481" y="775"/>
      <point x="481" y="692" type="curve" smooth="yes"/>
      <point x="481" y="679" type="line" smooth="yes"/>
      <point x="481" y="595"/>
      <point x="411" y="529"/>
      <point x="325" y="529" type="curve" smooth="yes"/>
      <point x="170" y="529" type="line"/>
    </contour>
  </outline>
</glyph>
<glyph name="Latin_Capital_Letter_S" format="1">
  <advance width="807"/>
  <unicode hex="0053"/>
  <outline>
    <contour>
      <point x="672" y="310" type="curve" smooth="yes"/>
      <point x="672" y="483"/>
      <point x="518" y="567"/>
      <point x="353" y="621" type="curve"/>
      <point x="353" y="621" type="line"/>
      <point x="298" y="640"/>
      <point x="201" y="674"/>
      <point x="201" y="736" type="curve"/>
      <point x="199" y="736" type="line"/>
      <point x="199" y="797"/>
      <point x="256" y="847"/>
      <point x="326" y="847" type="curve"/>
      <point x="326" y="847" type="line"/>
      <point x="378" y="847"/>
      <point x="422" y="837"/>
      <point x="458" y="815" type="curve"/>
      <point x="459" y="816" type="line"/>
      <point x="489" y="783"/>
      <point x="540" y="781"/>
      <point x="573" y="811" type="curve"/>
      <point x="573" y="811" type="line"/>
      <point x="605" y="842"/>
      <point x="607" y="893"/>
      <point x="577" y="925" type="curve"/>
      <point x="578" y="926" type="line"/>
      <point x="509" y="978"/>
      <point x="425" y="1005"/>
      <point x="326" y="1005" type="curve"/>
      <point x="326" y="1005" type="line"/>
      <point x="157" y="1005"/>
      <point x="19" y="884"/>
      <point x="19" y="736" type="curve" smooth="yes"/>
      <point x="19" y="587"/>
      <point x="163" y="516"/>
      <point x="304" y="470" type="curve"/>
      <point x="304" y="470" type="line"/>
      <point x="380" y="444"/>
      <point x="487" y="396"/>
      <point x="487" y="310" type="curve"/>
      <point x="488" y="310" type="line"/>
      <point x="488" y="223"/>
      <point x="409" y="153"/>
      <point x="311" y="153" type="curve"/>
      <point x="311" y="153" type="line"/>
      <point x="244" y="153"/>
      <point x="188" y="168"/>
      <point x="141" y="199" type="curve"/>
      <point x="140" y="198" type="line"/>
      <point x="110" y="230"/>
      <point x="59" y="232"/>
      <point x="26" y="202" type="curve"/>
      <point x="26" y="202" type="line"/>
      <point x="-7" y="172"/>
      <point x="-9" y="121"/>
      <point x="21" y="88" type="curve"/>
      <point x="20" y="87" type="line"/>
      <point x="101" y="26"/>
      <point x="197" y="-5"/>
      <point x="311" y="-5" type="curve"/>
      <point x="311" y="-5" type="line"/>
      <point x="510" y="-5"/>
      <point x="672" y="136"/>
    </contour>
  </outline>
</glyph>
<glyph name="S" format="1">
  <advance width="798"/>
  <unicode hex="0053"/>
  <outline>
    <contour>
      <point x="663" y="310" type="curve" smooth="yes"/>
      <point x="663" y="483"/>
      <point x="508" y="567"/>
      <point x="343" y="621" type="curve" smooth="yes"/>
      <point x="289" y="640"/>
      <point x="192" y="674"/>
      <point x="191" y="736" type="curve" smooth="yes"/>
      <point x="190" y="797"/>
      <point x="247" y="847"/>
      <point x="317" y="847" type="curve" smooth="yes"/>
      <point x="365" y="847"/>
      <point x="407" y="837"/>
      <point x="442" y="815" type="curve"/>
      <point x="471" y="785"/>
      <point x="520" y="785"/>
      <point x="553" y="815" type="curve" smooth="yes"/>
      <point x="585" y="846"/>
      <point x="589" y="895"/>
      <point x="561" y="926" type="curve"/>
      <point x="494" y="978"/>
      <point x="412" y="1005"/>
      <point x="317" y="1005" type="curve" smooth="yes"/>
      <point x="147" y="1005"/>
      <point x="10" y="884"/>
      <point x="10" y="736" type="curve" smooth="yes"/>
      <point x="10" y="587"/>
      <point x="153" y="516"/>
      <point x="294" y="470" type="curve" smooth="yes"/>
      <point x="371" y="444"/>
      <point x="478" y="396"/>
      <point x="478" y="310" type="curve" smooth="yes"/>
      <point x="478" y="223"/>
      <point x="399" y="153"/>
      <point x="302" y="153" type="curve" smooth="yes"/>
      <point x="238" y="153"/>
      <point x="183" y="168"/>
      <point x="138" y="198" type="curve"/>
      <point x="109" y="228"/>
      <point x="60" y="228"/>
      <point x="27" y="198" type="curve" smooth="yes"/>
      <point x="-5" y="168"/>
      <point x="-9" y="119"/>
      <point x="18" y="88" type="curve"/>
      <point x="96" y="26"/>
      <point x="191" y="-5"/>
      <point x="302" y="-5" type="curve" smooth="yes"/>
      <point x="501" y="-5"/>
      <point x="663" y="136"/>
    </contour>
  </outline>
</glyph>
<glyph name="Latin_Capital_Letter_T" format="1">
  <advance width="948"/>
  <unicode hex="0054"/>
  <outline>
    <contour>
      <point x="491" y="843" type="line"/>
      <point x="727" y="843" type="line" smooth="yes"/>
      <point x="774" y="843"/>
      <point x="812" y="878"/>
      <point x="812" y="921" type="curve"/>
      <point x="812" y="921" type="line"/>
      <point x="812" y="965"/>
      <point x="774" y="1000"/>
      <point x="727" y="1000" type="curve" smooth="yes"/>
      <point x="85" y="1000" type="line" smooth="yes"/>
      <point x="38" y="1000"/>
      <point x="0" y="965"/>
      <point x="0" y="921" type="curve"/>
      <point x="0" y="921" type="line"/>
      <point x="0" y="878"/>
      <point x="38" y="843"/>
      <point x="85" y="843" type="curve" smooth="yes"/>
      <point x="321" y="843" type="line"/>
      <point x="321" y="74" type="line" smooth="yes"/>
      <point x="321" y="30"/>
      <point x="359" y="-5"/>
      <point x="406" y="-5" type="curve" smooth="yes"/>
      <point x="453" y="-5"/>
      <point x="491" y="30"/>
      <point x="491" y="74" type="curve" smooth="yes"/>
    </contour>
  </outline>
</glyph>
<glyph name="T" format="1">
  <advance width="939"/>
  <unicode hex="0054"/>
  <outline>
    <contour>
      <point x="487" y="843" type="line"/>
      <point x="724" y="843" type="line" smooth="yes"/>
      <point x="768" y="843"/>
      <point x="803" y="878"/>
      <point x="803" y="921" type="curve" smooth="yes"/>
      <point x="803" y="965"/>
      <point x="768" y="1000"/>
      <point x="724" y="1000" type="curve" smooth="yes"/>
      <point x="79" y="1000" type="line" smooth="yes"/>
      <point x="35" y="1000"/>
      <point x="0" y="965"/>
      <point x="0" y="921" type="curve" smooth="yes"/>
      <point x="0" y="878"/>
      <point x="35" y="843"/>
      <point x="79" y="843" type="curve" smooth="yes"/>
      <point x="317" y="843" type="line"/>
      <point x="317" y="69" type="line" smooth="yes"/>
      <point x="317" y="28"/>
      <point x="355" y="-5"/>
      <point x="402" y="-5" type="curve" smooth="yes"/>
      <point x="449" y="-5"/>
      <point x="487" y="28"/>
      <point x="487" y="69" type="curve" smooth="yes"/>
    </contour>
  </outline>
</glyph>
<glyph name="U" format="1">
  <advance width="910"/>
  <unicode hex="0055"/>
  <outline>
    <contour>
      <point x="401" y="0" type="line" smooth="yes"/>
      <point x="607" y="0"/>
      <point x="774" y="212"/>
      <point x="774" y="472" type="curve" smooth="yes"/>
      <point x="774" y="931" type="line" smooth="yes"/>
      <point x="774" y="972"/>
      <point x="736" y="1005"/>
      <point x="689" y="1005" type="curve" smooth="yes"/>
      <point x="642" y="1005"/>
      <point x="604" y="972"/>
      <point x="604" y="931" type="curve" smooth="yes"/>
      <point x="604" y="472" type="line" smooth="yes"/>
      <point x="604" y="310"/>
      <point x="514" y="157"/>
      <point x="401" y="157" type="curve" smooth="yes"/>
      <point x="374" y="157" type="line" smooth="yes"/>
      <point x="245" y="157"/>
      <point x="170" y="298"/>
      <point x="170" y="472" type="curve" smooth="yes"/>
      <point x="170" y="931" type="line" smooth="yes"/>
      <point x="170" y="972"/>
      <point x="132" y="1005"/>
      <point x="85" y="1005" type="curve" smooth="yes"/>
      <point x="38" y="1005"/>
      <point x="0" y="972"/>
      <point x="0" y="931" type="curve" smooth="yes"/>
      <point x="0" y="472" type="line" smooth="yes"/>
      <point x="0" y="212"/>
      <point x="167" y="0"/>
      <point x="374" y="0" type="curve" smooth="yes"/>
    </contour>
  </outline>
</glyph>
<glyph name="Latin_Capital_Letter_V" format="1">
  <advance width="993"/>
  <unicode hex="0056"/>
  <outline>
    <contour>
      <point x="308" y="75" type="line" smooth="yes"/>
      <point x="326" y="26"/>
      <point x="373" y="-5"/>
      <point x="429" y="-5" type="curve" smooth="yes"/>
      <point x="484" y="-5"/>
      <point x="531" y="26"/>
      <point x="549" y="75" type="curve" smooth="yes"/>
      <point x="853" y="901" type="line" smooth="yes"/>
      <point x="868" y="942"/>
      <point x="844" y="987"/>
      <point x="800" y="1001" type="curve" smooth="yes"/>
      <point x="755" y="1015"/>
      <point x="707" y="993"/>
      <point x="692" y="951" type="curve" smooth="yes"/>
      <point x="429" y="235" type="line"/>
      <point x="165" y="951" type="line" smooth="yes"/>
      <point x="150" y="993"/>
      <point x="102" y="1015"/>
      <point x="58" y="1001" type="curve" smooth="yes"/>
      <point x="13" y="987"/>
      <point x="-11" y="942"/>
      <point x="5" y="901" type="curve" smooth="yes"/>
    </contour>
  </outline>
</glyph>
<glyph name="V" format="1">
  <advance width="993"/>
  <unicode hex="0056"/>
  <outline>
    <contour>
      <point x="311" y="67" type="line"/>
      <point x="332" y="22"/>
      <point x="378" y="-6"/>
      <point x="432" y="-5" type="curve" smooth="yes"/>
      <point x="485" y="-4"/>
      <point x="530" y="26"/>
      <point x="548" y="73" type="curve" smooth="yes"/>
      <point x="852" y="899" type="line" smooth="yes"/>
      <point x="868" y="940"/>
      <point x="846" y="985"/>
      <point x="802" y="1000" type="curve" smooth="yes"/>
      <point x="758" y="1015"/>
      <point x="709" y="994"/>
      <point x="693" y="953" type="curve" smooth="yes"/>
      <point x="429" y="235" type="line"/>
      <point x="163" y="957" type="line"/>
      <point x="145" y="997"/>
      <point x="95" y="1015"/>
      <point x="52" y="999" type="curve" smooth="yes"/>
      <point x="9" y="982"/>
      <point x="-12" y="935"/>
      <point x="7" y="895" type="curve"/>
    </contour>
  </outline>
</glyph>
<glyph name="Latin_Capital_Letter_W" format="1">
  <advance width="1489"/>
  <unicode hex="0057"/>
  <outline>
    <contour>
      <point x="282" y="59" type="line" smooth="yes"/>
      <point x="294" y="21"/>
      <point x="331" y="-5"/>
      <point x="375" y="-5" type="curve" smooth="yes"/>
      <point x="419" y="-5"/>
      <point x="456" y="21"/>
      <point x="469" y="59" type="curve" smooth="yes"/>
      <point x="677" y="727" type="line"/>
      <point x="885" y="59" type="line" smooth="yes"/>
      <point x="898" y="21"/>
      <point x="935" y="-5"/>
      <point x="979" y="-5" type="curve" smooth="yes"/>
      <point x="1023" y="-5"/>
      <point x="1059" y="21"/>
      <point x="1072" y="59" type="curve" smooth="yes"/>
      <point x="1350" y="903" type="line" smooth="yes"/>
      <point x="1364" y="945"/>
      <point x="1338" y="989"/>
      <point x="1294" y="1001" type="curve" smooth="yes"/>
      <point x="1249" y="1014"/>
      <point x="1201" y="991"/>
      <point x="1187" y="949" type="curve" smooth="yes"/>
      <point x="978" y="277" type="line"/>
      <point x="770" y="941" type="line" smooth="yes"/>
      <point x="758" y="979"/>
      <point x="721" y="1005"/>
      <point x="677" y="1005" type="curve" smooth="yes"/>
      <point x="633" y="1005"/>
      <point x="596" y="979"/>
      <point x="583" y="941" type="curve" smooth="yes"/>
      <point x="376" y="277" type="line"/>
      <point x="166" y="949" type="line" smooth="yes"/>
      <point x="153" y="991"/>
      <point x="105" y="1014"/>
      <point x="60" y="1001" type="curve" smooth="yes"/>
      <point x="15" y="989"/>
      <point x="-10" y="945"/>
      <point x="4" y="903" type="curve" smooth="yes"/>
    </contour>
  </outline>
</glyph>
<glyph name="W" format="1">
  <advance width="1489"/>
  <unicode hex="0057"/>
  <outline>
    <contour>
      <point x="283" y="56" type="line" smooth="yes"/>
      <point x="297" y="19"/>
      <point x="333" y="-5"/>
      <point x="376" y="-5" type="curve" smooth="yes"/>
      <point x="419" y="-4"/>
      <point x="455" y="20"/>
      <point x="468" y="57" type="curve" smooth="yes"/>
      <point x="677" y="727" type="line"/>
      <point x="886" y="56" type="line"/>
      <point x="900" y="19"/>
      <point x="937" y="-5"/>
      <point x="979" y="-5" type="curve" smooth="yes"/>
      <point x="1022" y="-4"/>
      <point x="1058" y="20"/>
      <point x="1072" y="57" type="curve" smooth="yes"/>
      <point x="1349" y="901" type="line" smooth="yes"/>
      <point x="1364" y="943"/>
      <point x="1340" y="987"/>
      <point x="1295" y="1001" type="curve" smooth="yes"/>
      <point x="1251" y="1014"/>
      <point x="1203" y="992"/>
      <point x="1188" y="951" type="curve" smooth="yes"/>
      <point x="978" y="276" type="line"/>
      <point x="769" y="944" type="line"/>
      <point x="755" y="981"/>
      <point x="719" y="1005"/>
      <point x="676" y="1005" type="curve" smooth="yes"/>
      <point x="633" y="1004"/>
      <point x="597" y="980"/>
      <point x="584" y="943" type="curve" smooth="yes"/>
      <point x="376" y="276" type="line"/>
      <point x="165" y="952" type="line" smooth="yes"/>
      <point x="150" y="993"/>
      <point x="102" y="1015"/>
      <point x="57" y="1000" type="curve" smooth="yes"/>
      <point x="13" y="986"/>
      <point x="-11" y="941"/>
      <point x="5" y="900" type="curve"/>
    </contour>
  </outline>
</glyph>
<glyph name="X" format="1">
  <advance width="857"/>
  <unicode hex="0058"/>
  <outline>
    <contour>
      <point x="361" y="347" type="line"/>
      <point x="566" y="31" type="line" smooth="yes"/>
      <point x="591" y="-5"/>
      <point x="644" y="-16"/>
      <point x="683" y="8" type="curve" smooth="yes"/>
      <point x="723" y="32"/>
      <point x="734" y="80"/>
      <point x="708" y="117" type="curve" smooth="yes"/>
      <point x="460" y="500" type="line"/>
      <point x="708" y="883" type="line" smooth="yes"/>
      <point x="734" y="920"/>
      <point x="723" y="968"/>
      <point x="683" y="992" type="curve" smooth="yes"/>
      <point x="644" y="1016"/>
      <point x="591" y="1005"/>
      <point x="566" y="969" type="curve" smooth="yes"/>
      <point x="361" y="653" type="line"/>
      <point x="156" y="969" type="line" smooth="yes"/>
      <point x="131" y="1005"/>
      <point x="78" y="1016"/>
      <point x="39" y="992" type="curve" smooth="yes"/>
      <point x="-1" y="968"/>
      <point x="-12" y="920"/>
      <point x="14" y="883" type="curve" smooth="yes"/>
      <point x="262" y="500" type="line"/>
      <point x="14" y="117" type="line" smooth="yes"/>
      <point x="-12" y="80"/>
      <point x="-1" y="32"/>
      <point x="39" y="8" type="curve" smooth="yes"/>
      <point x="78" y="-16"/>
      <point x="131" y="-5"/>
      <point x="156" y="31" type="curve" smooth="yes"/>
    </contour>
  </outline>
</glyph>
<glyph name="Latin_Capital_Letter_Y" format="1">
  <advance width="812"/>
  <unicode hex="0059"/>
  <outline>
    <contour>
      <point x="321" y="475" type="line"/>
      <point x="321" y="74" type="line" smooth="yes"/>
      <point x="321" y="30"/>
      <point x="359" y="-5"/>
      <point x="406" y="-5" type="curve" smooth="yes"/>
      <point x="453" y="-5"/>
      <point x="491" y="30"/>
      <point x="491" y="74" type="curve" smooth="yes"/>
      <point x="491" y="475" type="line"/>
      <point x="797" y="881" type="line" smooth="yes"/>
      <point x="824" y="917"/>
      <point x="814" y="966"/>
      <point x="776" y="991" type="curve" smooth="yes"/>
      <point x="737" y="1015"/>
      <point x="684" y="1007"/>
      <point x="658" y="971" type="curve" smooth="yes"/>
      <point x="406" y="637" type="line"/>
      <point x="155" y="971" type="line" smooth="yes"/>
      <point x="128" y="1007"/>
      <point x="75" y="1015"/>
      <point x="36" y="991" type="curve" smooth="yes"/>
      <point x="-2" y="966"/>
      <point x="-12" y="917"/>
      <point x="15" y="881" type="curve" smooth="yes"/>
    </contour>
  </outline>
</glyph>
<glyph name="Y" format="1">
  <advance width="948"/>
  <unicode hex="0059"/>
  <outline>
    <contour>
      <point x="321" y="475" type="line"/>
      <point x="321" y="74" type="line" smooth="yes"/>
      <point x="321" y="30"/>
      <point x="359" y="-5"/>
      <point x="406" y="-5" type="curve" smooth="yes"/>
      <point x="453" y="-5"/>
      <point x="491" y="30"/>
      <point x="491" y="74" type="curve" smooth="yes"/>
      <point x="491" y="475" type="line"/>
      <point x="795" y="879" type="line" smooth="yes"/>
      <point x="823" y="913"/>
      <point x="816" y="963"/>
      <point x="778" y="989" type="curve" smooth="yes"/>
      <point x="741" y="1015"/>
      <point x="688" y="1008"/>
      <point x="659" y="973" type="curve" smooth="yes"/>
      <point x="406" y="637" type="line"/>
      <point x="153" y="973" type="line" smooth="yes"/>
      <point x="125" y="1008"/>
      <point x="71" y="1015"/>
      <point x="34" y="989" type="curve" smooth="yes"/>
      <point x="-4" y="963"/>
      <point x="-11" y="913"/>
      <point x="17" y="879" type="curve" smooth="yes"/>
    </contour>
  </outline>
</glyph>
<glyph name="Latin_Capital_Letter_Z" format="1">
  <advance width="678"/>
  <unicode hex="005A"/>
  <outline>
    <contour>
      <point x="457" y="843" type="line"/>
      <point x="15" y="148" type="line" smooth="yes"/>
      <point x="-5" y="117"/>
      <point x="-5" y="81"/>
      <point x="14" y="49" type="curve"/>
      <point x="14" y="49" type="line"/>
      <point x="34" y="18"/>
      <point x="67" y="0"/>
      <point x="107" y="0" type="curve" smooth="yes"/>
      <point x="592" y="0" type="line" smooth="yes"/>
      <point x="639" y="0"/>
      <point x="677" y="35"/>
      <point x="677" y="79" type="curve"/>
      <point x="677" y="79" type="line"/>
      <point x="677" y="122"/>
      <point x="639" y="157"/>
      <point x="592" y="157" type="curve" smooth="yes"/>
      <point x="221" y="157" type="line"/>
      <point x="663" y="852" type="line" smooth="yes"/>
      <point x="683" y="883"/>
      <point x="683" y="919"/>
      <point x="663" y="951" type="curve"/>
      <point x="663" y="951" type="line"/>
      <point x="644" y="982"/>
      <point x="610" y="1000"/>
      <point x="571" y="1000" type="curve" smooth="yes"/>
      <point x="85" y="1000" type="line" smooth="yes"/>
      <point x="38" y="1000"/>
      <point x="0" y="965"/>
      <point x="0" y="921" type="curve"/>
      <point x="0" y="921" type="line"/>
      <point x="0" y="878"/>
      <point x="38" y="843"/>
      <point x="85" y="843" type="curve" smooth="yes"/>
    </contour>
  </outline>
</glyph>
<glyph name="Z" format="1">
  <advance width="830"/>
  <unicode hex="005A"/>
  <outline>
    <contour>
      <point x="478" y="836" type="line"/>
      <point x="17" y="170" type="line" smooth="yes"/>
      <point x="-5" y="136"/>
      <point x="-6" y="97"/>
      <point x="15" y="63" type="curve"/>
      <point x="15" y="63" type="line"/>
      <point x="36" y="28"/>
      <point x="73" y="9"/>
      <point x="115" y="9" type="curve" smooth="yes"/>
      <point x="607" y="6" type="line" smooth="yes"/>
      <point x="654" y="6"/>
      <point x="692" y="42"/>
      <point x="692" y="85" type="curve"/>
      <point x="692" y="85" type="line"/>
      <point x="692" y="128"/>
      <point x="654" y="164"/>
      <point x="607" y="164" type="curve" smooth="yes"/>
      <point x="217" y="164" type="line"/>
      <point x="678" y="830" type="line" smooth="yes"/>
      <point x="700" y="864"/>
      <point x="701" y="903"/>
      <point x="680" y="937" type="curve"/>
      <point x="680" y="937" type="line"/>
      <point x="659" y="972"/>
      <point x="622" y="991"/>
      <point x="580" y="991" type="curve" smooth="yes"/>
      <point x="88" y="994" type="line" smooth="yes"/>
      <point x="41" y="994"/>
      <point x="3" y="958"/>
      <point x="3" y="915" type="curve"/>
      <point x="3" y="915" type="line"/>
      <point x="3" y="872"/>
      <point x="41" y="836"/>
      <point x="88" y="836" type="curve" smooth="yes"/>
    </contour>
  </outline>
</glyph>
<glyph name="bracketleft" format="1">
  <advance width="496"/>
  <unicode hex="005B"/>
  <outline>
    <contour>
      <point x="282" y="-100" type="line" smooth="yes"/>
      <point x="326" y="-100"/>
      <point x="361" y="-65"/>
      <point x="361" y="-21" type="curve" smooth="yes"/>
      <point x="361" y="22"/>
      <point x="326" y="57"/>
      <point x="282" y="57" type="curve" smooth="yes"/>
      <point x="151" y="57" type="line"/>
      <point x="151" y="943" type="line"/>
      <point x="282" y="943" type="line" smooth="yes"/>
      <point x="326" y="943"/>
      <point x="361" y="978"/>
      <point x="361" y="1021" type="curve" smooth="yes"/>
      <point x="361" y="1065"/>
      <point x="326" y="1100"/>
      <point x="282" y="1100" type="curve" smooth="yes"/>
      <point x="98" y="1100" type="line" smooth="yes"/>
      <point x="44" y="1100"/>
      <point x="0" y="1062"/>
      <point x="0" y="1016" type="curve" smooth="yes"/>
      <point x="0" y="-16" type="line" smooth="yes"/>
      <point x="0" y="-62"/>
      <point x="44" y="-100"/>
      <point x="98" y="-100" type="curve" smooth="yes"/>
    </contour>
  </outline>
</glyph>
<glyph name="backslash" format="1">
  <advance width="641"/>
  <unicode hex="005C"/>
  <outline>
    <contour>
      <point x="3" y="1000" type="curve" smooth="yes"/>
      <point x="345" y="-51" type="line" smooth="yes"/>
      <point x="357" y="-90"/>
      <point x="403" y="-110"/>
      <point x="446" y="-96" type="curve" smooth="yes"/>
      <point x="490" y="-81"/>
      <point x="515" y="-39"/>
      <point x="503" y="0" type="curve" smooth="yes"/>
      <point x="161" y="1051" type="line" smooth="yes"/>
      <point x="148" y="1090"/>
      <point x="103" y="1110"/>
      <point x="59" y="1096" type="curve" smooth="yes"/>
      <point x="16" y="1081"/>
      <point x="-9" y="1039"/>
    </contour>
  </outline>
</glyph>
<glyph name="bracketright" format="1">
  <advance width="496"/>
  <unicode hex="005D"/>
  <outline>
    <contour>
      <point x="79" y="-100" type="curve" smooth="yes"/>
      <point x="263" y="-100" type="line" smooth="yes"/>
      <point x="317" y="-100"/>
      <point x="361" y="-62"/>
      <point x="361" y="-16" type="curve" smooth="yes"/>
      <point x="361" y="1016" type="line" smooth="yes"/>
      <point x="361" y="1062"/>
      <point x="317" y="1100"/>
      <point x="263" y="1100" type="curve" smooth="yes"/>
      <point x="79" y="1100" type="line" smooth="yes"/>
      <point x="35" y="1100"/>
      <point x="0" y="1065"/>
      <point x="0" y="1021" type="curve" smooth="yes"/>
      <point x="0" y="978"/>
      <point x="35" y="943"/>
      <point x="79" y="943" type="curve" smooth="yes"/>
      <point x="210" y="943" type="line"/>
      <point x="210" y="57" type="line"/>
      <point x="79" y="57" type="line" smooth="yes"/>
      <point x="35" y="57"/>
      <point x="0" y="22"/>
      <point x="0" y="-21" type="curve" smooth="yes"/>
      <point x="0" y="-65"/>
      <point x="35" y="-100"/>
    </contour>
  </outline>
</glyph>
<glyph name="asciicircum" format="1">
  <advance width="685"/>
  <unicode hex="005E"/>
  <outline>
    <contour>
      <point x="16" y="752" type="line" smooth="yes"/>
      <point x="5" y="739"/>
      <point x="-1" y="722"/>
      <point x="0" y="703" type="curve" smooth="yes"/>
      <point x="2" y="660"/>
      <point x="38" y="624"/>
      <point x="81" y="623" type="curve" smooth="yes"/>
      <point x="106" y="622"/>
      <point x="127" y="632"/>
      <point x="140" y="648" type="curve" smooth="yes"/>
      <point x="275" y="812" type="line"/>
      <point x="410" y="648" type="line" smooth="yes"/>
      <point x="423" y="632"/>
      <point x="445" y="622"/>
      <point x="469" y="623" type="curve" smooth="yes"/>
      <point x="512" y="624"/>
      <point x="548" y="660"/>
      <point x="550" y="703" type="curve" smooth="yes"/>
      <point x="551" y="722"/>
      <point x="545" y="739"/>
      <point x="534" y="752" type="curve" smooth="yes"/>
      <point x="355" y="969" type="line" smooth="yes"/>
      <point x="337" y="991"/>
      <point x="308" y="1005"/>
      <point x="275" y="1005" type="curve" smooth="yes"/>
      <point x="242" y="1005"/>
      <point x="213" y="991"/>
      <point x="195" y="969" type="curve" smooth="yes"/>
    </contour>
  </outline>
</glyph>
<glyph name="underscore" format="1">
  <advance width="960"/>
  <unicode hex="005F"/>
  <outline>
    <contour>
      <point x="746" y="-199" type="line" smooth="yes"/>
      <point x="790" y="-199"/>
      <point x="825" y="-163"/>
      <point x="825" y="-120" type="curve" smooth="yes"/>
      <point x="825" y="-77"/>
      <point x="790" y="-41"/>
      <point x="746" y="-41" type="curve" smooth="yes"/>
      <point x="79" y="-41" type="line" smooth="yes"/>
      <point x="35" y="-41"/>
      <point x="0" y="-77"/>
      <point x="0" y="-120" type="curve" smooth="yes"/>
      <point x="0" y="-163"/>
      <point x="35" y="-199"/>
      <point x="79" y="-199" type="curve" smooth="yes"/>
    </contour>
  </outline>
</glyph>
<glyph name="grave" format="1">
  <advance width="421"/>
  <unicode hex="0060"/>
  <outline>
    <contour>
      <point x="139" y="984" type="line" smooth="yes"/>
      <point x="119" y="1005"/>
      <point x="90" y="1011"/>
      <point x="60" y="998" type="curve" smooth="yes"/>
      <point x="29" y="986"/>
      <point x="8" y="960"/>
      <point x="2" y="929" type="curve" smooth="yes"/>
      <point x="-5" y="897"/>
      <point x="6" y="869"/>
      <point x="31" y="853" type="curve" smooth="yes"/>
      <point x="200" y="749" type="line" smooth="yes"/>
      <point x="222" y="735"/>
      <point x="252" y="742"/>
      <point x="271" y="765" type="curve" smooth="yes"/>
      <point x="290" y="787"/>
      <point x="291" y="818"/>
      <point x="274" y="837" type="curve" smooth="yes"/>
    </contour>
  </outline>
</glyph>
<glyph name="a" format="1">
  <advance width="781"/>
  <unicode hex="0061"/>
  <outline>
    <contour>
      <point x="475" y="325" type="curve" smooth="yes"/>
      <point x="475" y="230"/>
      <point x="408" y="153"/>
      <point x="325" y="153" type="curve" smooth="yes"/>
      <point x="242" y="153"/>
      <point x="175" y="230"/>
      <point x="175" y="325" type="curve" smooth="yes"/>
      <point x="175" y="420"/>
      <point x="242" y="497"/>
      <point x="325" y="497" type="curve" smooth="yes"/>
      <point x="408" y="497"/>
      <point x="475" y="420"/>
    </contour>
    <contour>
      <point x="476" y="593" type="curve"/>
      <point x="434" y="632"/>
      <point x="381" y="655"/>
      <point x="325" y="655" type="curve" smooth="yes"/>
      <point x="146" y="655"/>
      <point x="0" y="507"/>
      <point x="0" y="325" type="curve" smooth="yes"/>
      <point x="0" y="143"/>
      <point x="146" y="-5"/>
      <point x="325" y="-5" type="curve" smooth="yes"/>
      <point x="381" y="-5"/>
      <point x="434" y="18"/>
      <point x="476" y="57" type="curve"/>
      <point x="483" y="22"/>
      <point x="518" y="-5"/>
      <point x="560" y="-5" type="curve" smooth="yes"/>
      <point x="607" y="-5"/>
      <point x="645" y="28"/>
      <point x="645" y="69" type="curve" smooth="yes"/>
      <point x="645" y="581" type="line" smooth="yes"/>
      <point x="645" y="622"/>
      <point x="607" y="655"/>
      <point x="560" y="655" type="curve" smooth="yes"/>
      <point x="518" y="655"/>
      <point x="483" y="628"/>
    </contour>
  </outline>
</glyph>
<glyph name="b" format="1">
  <advance width="781"/>
  <unicode hex="0062"/>
  <outline>
    <contour>
      <point x="170" y="325" type="curve" smooth="yes"/>
      <point x="170" y="420"/>
      <point x="237" y="497"/>
      <point x="320" y="497" type="curve" smooth="yes"/>
      <point x="403" y="497"/>
      <point x="471" y="420"/>
      <point x="471" y="325" type="curve" smooth="yes"/>
      <point x="471" y="230"/>
      <point x="403" y="153"/>
      <point x="320" y="153" type="curve" smooth="yes"/>
      <point x="237" y="153"/>
      <point x="170" y="230"/>
    </contour>
    <contour>
      <point x="170" y="594" type="curve"/>
      <point x="170" y="931" type="line" smooth="yes"/>
      <point x="170" y="972"/>
      <point x="132" y="1005"/>
      <point x="85" y="1005" type="curve" smooth="yes"/>
      <point x="38" y="1005"/>
      <point x="0" y="972"/>
      <point x="0" y="931" type="curve" smooth="yes"/>
      <point x="0" y="69" type="line" smooth="yes"/>
      <point x="0" y="28"/>
      <point x="38" y="-5"/>
      <point x="85" y="-5" type="curve" smooth="yes"/>
      <point x="127" y="-5"/>
      <point x="162" y="22"/>
      <point x="169" y="57" type="curve"/>
      <point x="212" y="18"/>
      <point x="264" y="-5"/>
      <point x="320" y="-5" type="curve" smooth="yes"/>
      <point x="500" y="-5"/>
      <point x="645" y="143"/>
      <point x="645" y="325" type="curve" smooth="yes"/>
      <point x="645" y="507"/>
      <point x="500" y="655"/>
      <point x="320" y="655" type="curve" smooth="yes"/>
      <point x="264" y="655"/>
      <point x="212" y="632"/>
    </contour>
  </outline>
</glyph>
<glyph name="c" format="1">
  <advance width="727"/>
  <unicode hex="0063"/>
  <outline>
    <contour>
      <point x="325" y="655" type="curve" smooth="yes"/>
      <point x="146" y="655"/>
      <point x="0" y="507"/>
      <point x="0" y="325" type="curve" smooth="yes"/>
      <point x="0" y="143"/>
      <point x="146" y="-5"/>
      <point x="325" y="-5" type="curve" smooth="yes"/>
      <point x="420" y="-5"/>
      <point x="501" y="24"/>
      <point x="570" y="82" type="curve"/>
      <point x="599" y="111"/>
      <point x="598" y="160"/>
      <point x="567" y="192" type="curve" smooth="yes"/>
      <point x="536" y="224"/>
      <point x="487" y="226"/>
      <point x="457" y="197" type="curve"/>
      <point x="419" y="167"/>
      <point x="376" y="153"/>
      <point x="325" y="153" type="curve" smooth="yes"/>
      <point x="242" y="153"/>
      <point x="175" y="230"/>
      <point x="175" y="325" type="curve" smooth="yes"/>
      <point x="175" y="420"/>
      <point x="242" y="497"/>
      <point x="325" y="497" type="curve" smooth="yes"/>
      <point x="376" y="497"/>
      <point x="419" y="483"/>
      <point x="457" y="453" type="curve"/>
      <point x="487" y="424"/>
      <point x="536" y="426"/>
      <point x="567" y="458" type="curve" smooth="yes"/>
      <point x="598" y="490"/>
      <point x="599" y="539"/>
      <point x="570" y="568" type="curve"/>
      <point x="501" y="626"/>
      <point x="420" y="655"/>
    </contour>
  </outline>
</glyph>
<glyph name="f" format="1">
  <advance width="693"/>
  <unicode hex="0066"/>
  <outline>
    <contour>
      <point x="157" y="493" type="line"/>
      <point x="157" y="69" type="line" smooth="yes"/>
      <point x="157" y="28"/>
      <point x="195" y="-5"/>
      <point x="242" y="-5" type="curve" smooth="yes"/>
      <point x="289" y="-5"/>
      <point x="327" y="28"/>
      <point x="327" y="69" type="curve" smooth="yes"/>
      <point x="327" y="493" type="line"/>
      <point x="437" y="493" type="line" smooth="yes"/>
      <point x="481" y="493"/>
      <point x="516" y="528"/>
      <point x="516" y="571" type="curve" smooth="yes"/>
      <point x="516" y="615"/>
      <point x="481" y="650"/>
      <point x="437" y="650" type="curve" smooth="yes"/>
      <point x="327" y="650" type="line"/>
      <point x="327" y="769" type="line" smooth="yes"/>
      <point x="327" y="795"/>
      <point x="341" y="817"/>
      <point x="367" y="833" type="curve" smooth="yes"/>
      <point x="393" y="848"/>
      <point x="424" y="852"/>
      <point x="454" y="844" type="curve"/>
      <point x="495" y="830"/>
      <point x="539" y="852"/>
      <point x="554" y="893" type="curve" smooth="yes"/>
      <point x="568" y="934"/>
      <point x="547" y="979"/>
      <point x="507" y="993" type="curve"/>
      <point x="423" y="1017"/>
      <point x="339" y="1006"/>
      <point x="267" y="960" type="curve" smooth="yes"/>
      <point x="195" y="914"/>
      <point x="157" y="847"/>
      <point x="157" y="769" type="curve" smooth="yes"/>
      <point x="157" y="650" type="line"/>
      <point x="79" y="650" type="line" smooth="yes"/>
      <point x="35" y="650"/>
      <point x="0" y="615"/>
      <point x="0" y="571" type="curve" smooth="yes"/>
      <point x="0" y="528"/>
      <point x="35" y="493"/>
      <point x="79" y="493" type="curve" smooth="yes"/>
    </contour>
  </outline>
</glyph>
<glyph name="g" format="1">
  <advance width="781"/>
  <unicode hex="0067"/>
  <outline>
    <contour>
      <point x="475" y="56" type="curve"/>
      <point x="475" y="0" type="line"/>
      <point x="475" y="-25" type="line" smooth="yes"/>
      <point x="475" y="-93"/>
      <point x="407" y="-147"/>
      <point x="323" y="-147" type="curve" smooth="yes"/>
      <point x="272" y="-147"/>
      <point x="228" y="-136"/>
      <point x="191" y="-112" type="curve"/>
      <point x="163" y="-82"/>
      <point x="113" y="-82"/>
      <point x="81" y="-112" type="curve" smooth="yes"/>
      <point x="48" y="-143"/>
      <point x="44" y="-192"/>
      <point x="72" y="-222" type="curve"/>
      <point x="141" y="-277"/>
      <point x="225" y="-305"/>
      <point x="323" y="-305" type="curve" smooth="yes"/>
      <point x="501" y="-305"/>
      <point x="645" y="-180"/>
      <point x="645" y="-25" type="curve" smooth="yes"/>
      <point x="645" y="0" type="line"/>
      <point x="645" y="581" type="line" smooth="yes"/>
      <point x="645" y="622"/>
      <point x="607" y="655"/>
      <point x="560" y="655" type="curve" smooth="yes"/>
      <point x="518" y="655"/>
      <point x="483" y="628"/>
      <point x="476" y="593" type="curve"/>
      <point x="434" y="632"/>
      <point x="381" y="655"/>
      <point x="325" y="655" type="curve" smooth="yes"/>
      <point x="146" y="655"/>
      <point x="0" y="507"/>
      <point x="0" y="325" type="curve" smooth="yes"/>
      <point x="0" y="143"/>
      <point x="146" y="-5"/>
      <point x="325" y="-5" type="curve" smooth="yes"/>
      <point x="381" y="-5"/>
      <point x="433" y="18"/>
    </contour>
    <contour>
      <point x="175" y="325" type="curve" smooth="yes"/>
      <point x="175" y="420"/>
      <point x="242" y="497"/>
      <point x="325" y="497" type="curve" smooth="yes"/>
      <point x="408" y="497"/>
      <point x="475" y="420"/>
      <point x="475" y="325" type="curve" smooth="yes"/>
      <point x="475" y="230"/>
      <point x="408" y="153"/>
      <point x="325" y="153" type="curve" smooth="yes"/>
      <point x="242" y="153"/>
      <point x="175" y="230"/>
    </contour>
  </outline>
</glyph>
<glyph name="i" format="1">
  <advance width="305"/>
  <unicode hex="0069"/>
  <outline>
    <contour>
      <point x="170" y="581" type="line" smooth="yes"/>
      <point x="170" y="622"/>
      <point x="132" y="655"/>
      <point x="85" y="655" type="curve" smooth="yes"/>
      <point x="38" y="655"/>
      <point x="0" y="622"/>
      <point x="0" y="581" type="curve" smooth="yes"/>
      <point x="0" y="69" type="line" smooth="yes"/>
      <point x="0" y="28"/>
      <point x="38" y="-5"/>
      <point x="85" y="-5" type="curve" smooth="yes"/>
      <point x="132" y="-5"/>
      <point x="170" y="28"/>
      <point x="170" y="69" type="curve" smooth="yes"/>
    </contour>
    <contour>
      <point x="170" y="839" type="line" smooth="yes"/>
      <point x="170" y="879"/>
      <point x="132" y="912"/>
      <point x="85" y="912" type="curve" smooth="yes"/>
      <point x="38" y="912"/>
      <point x="0" y="879"/>
      <point x="0" y="839" type="curve" smooth="yes"/>
      <point x="0" y="828" type="line" smooth="yes"/>
      <point x="0" y="788"/>
      <point x="38" y="755"/>
      <point x="85" y="755" type="curve" smooth="yes"/>
      <point x="132" y="755"/>
      <point x="170" y="788"/>
      <point x="170" y="828" type="curve" smooth="yes"/>
    </contour>
  </outline>
</glyph>
<glyph name="j" format="1">
  <advance width="529"/>
  <unicode hex="006A"/>
  <outline>
    <contour>
      <point x="394" y="581" type="line" smooth="yes"/>
      <point x="394" y="622"/>
      <point x="355" y="655"/>
      <point x="309" y="655" type="curve" smooth="yes"/>
      <point x="262" y="655"/>
      <point x="224" y="622"/>
      <point x="224" y="581" type="curve" smooth="yes"/>
      <point x="224" y="-104" type="line" smooth="yes"/>
      <point x="224" y="-122"/>
      <point x="212" y="-137"/>
      <point x="193" y="-144" type="curve" smooth="yes"/>
      <point x="174" y="-151"/>
      <point x="153" y="-147"/>
      <point x="138" y="-135" type="curve"/>
      <point x="109" y="-105"/>
      <point x="60" y="-105"/>
      <point x="27" y="-135" type="curve" smooth="yes"/>
      <point x="-5" y="-166"/>
      <point x="-9" y="-215"/>
      <point x="18" y="-246" type="curve"/>
      <point x="82" y="-305"/>
      <point x="174" y="-321"/>
      <point x="258" y="-289" type="curve" smooth="yes"/>
      <point x="342" y="-258"/>
      <point x="394" y="-187"/>
      <point x="394" y="-104" type="curve" smooth="yes"/>
    </contour>
    <contour>
      <point x="394" y="839" type="line" smooth="yes"/>
      <point x="394" y="879"/>
      <point x="355" y="912"/>
      <point x="309" y="912" type="curve" smooth="yes"/>
      <point x="262" y="912"/>
      <point x="224" y="879"/>
      <point x="224" y="839" type="curve" smooth="yes"/>
      <point x="224" y="828" type="line" smooth="yes"/>
      <point x="224" y="788"/>
      <point x="262" y="755"/>
      <point x="309" y="755" type="curve" smooth="yes"/>
      <point x="355" y="755"/>
      <point x="394" y="788"/>
      <point x="394" y="828" type="curve" smooth="yes"/>
    </contour>
  </outline>
</glyph>
<glyph name="k" format="1">
  <advance width="721"/>
  <unicode hex="006B"/>
  <outline>
    <contour>
      <point x="0" y="69" type="line" smooth="yes"/>
      <point x="0" y="28"/>
      <point x="38" y="-5"/>
      <point x="85" y="-5" type="curve" smooth="yes"/>
      <point x="132" y="-5"/>
      <point x="170" y="28"/>
      <point x="170" y="69" type="curve" smooth="yes"/>
      <point x="170" y="193" type="line"/>
      <point x="248" y="258" type="line"/>
      <point x="444" y="21" type="line" smooth="yes"/>
      <point x="471" y="-11"/>
      <point x="520" y="-14"/>
      <point x="554" y="15" type="curve" smooth="yes"/>
      <point x="589" y="43"/>
      <point x="595" y="92"/>
      <point x="569" y="124" type="curve" smooth="yes"/>
      <point x="373" y="361" type="line"/>
      <point x="559" y="515" type="line" smooth="yes"/>
      <point x="580" y="533"/>
      <point x="589" y="559"/>
      <point x="584" y="587" type="curve" smooth="yes"/>
      <point x="578" y="616"/>
      <point x="559" y="638"/>
      <point x="533" y="649" type="curve" smooth="yes"/>
      <point x="506" y="660"/>
      <point x="478" y="656"/>
      <point x="457" y="638" type="curve" smooth="yes"/>
      <point x="170" y="401" type="line"/>
      <point x="170" y="931" type="line" smooth="yes"/>
      <point x="170" y="972"/>
      <point x="132" y="1005"/>
      <point x="85" y="1005" type="curve" smooth="yes"/>
      <point x="38" y="1005"/>
      <point x="0" y="972"/>
      <point x="0" y="931" type="curve" smooth="yes"/>
    </contour>
  </outline>
</glyph>
<glyph name="m" format="1">
  <advance width="1109"/>
  <unicode hex="006D"/>
  <outline>
    <contour>
      <point x="0" y="69" type="line" smooth="yes"/>
      <point x="0" y="28"/>
      <point x="38" y="-5"/>
      <point x="85" y="-5" type="curve" smooth="yes"/>
      <point x="132" y="-5"/>
      <point x="170" y="28"/>
      <point x="170" y="69" type="curve" smooth="yes"/>
      <point x="170" y="455" type="line"/>
      <point x="170" y="455"/>
      <point x="245" y="514"/>
      <point x="337" y="514" type="curve" smooth="yes"/>
      <point x="373" y="514"/>
      <point x="402" y="487"/>
      <point x="402" y="455" type="curve" smooth="yes"/>
      <point x="402" y="69" type="line" smooth="yes"/>
      <point x="402" y="28"/>
      <point x="440" y="-5"/>
      <point x="487" y="-5" type="curve" smooth="yes"/>
      <point x="534" y="-5"/>
      <point x="572" y="28"/>
      <point x="572" y="69" type="curve" smooth="yes"/>
      <point x="572" y="455" type="line"/>
      <point x="572" y="455"/>
      <point x="647" y="514"/>
      <point x="739" y="514" type="curve" smooth="yes"/>
      <point x="775" y="514"/>
      <point x="804" y="487"/>
      <point x="804" y="455" type="curve" smooth="yes"/>
      <point x="804" y="69" type="line" smooth="yes"/>
      <point x="804" y="28"/>
      <point x="842" y="-5"/>
      <point x="889" y="-5" type="curve" smooth="yes"/>
      <point x="936" y="-5"/>
      <point x="974" y="28"/>
      <point x="974" y="69" type="curve" smooth="yes"/>
      <point x="974" y="455" type="line" smooth="yes"/>
      <point x="974" y="563"/>
      <point x="877" y="650"/>
      <point x="757" y="650" type="curve" smooth="yes"/>
      <point x="668" y="650"/>
      <point x="587" y="614"/>
      <point x="530" y="571" type="curve"/>
      <point x="490" y="619"/>
      <point x="427" y="650"/>
      <point x="355" y="650" type="curve" smooth="yes"/>
      <point x="285" y="650"/>
      <point x="221" y="628"/>
      <point x="168" y="597" type="curve"/>
      <point x="160" y="630"/>
      <point x="126" y="655"/>
      <point x="85" y="655" type="curve" smooth="yes"/>
      <point x="38" y="655"/>
      <point x="0" y="622"/>
      <point x="0" y="581" type="curve" smooth="yes"/>
    </contour>
  </outline>
</glyph>
<glyph name="n" format="1">
  <advance width="707"/>
  <unicode hex="006E"/>
  <outline>
    <contour>
      <point x="0" y="69" type="line" smooth="yes"/>
      <point x="0" y="28"/>
      <point x="38" y="-5"/>
      <point x="85" y="-5" type="curve" smooth="yes"/>
      <point x="132" y="-5"/>
      <point x="170" y="28"/>
      <point x="170" y="69" type="curve" smooth="yes"/>
      <point x="170" y="455" type="line"/>
      <point x="170" y="455"/>
      <point x="245" y="514"/>
      <point x="337" y="514" type="curve" smooth="yes"/>
      <point x="373" y="514"/>
      <point x="402" y="487"/>
      <point x="402" y="455" type="curve" smooth="yes"/>
      <point x="402" y="69" type="line" smooth="yes"/>
      <point x="402" y="28"/>
      <point x="440" y="-5"/>
      <point x="487" y="-5" type="curve" smooth="yes"/>
      <point x="534" y="-5"/>
      <point x="572" y="28"/>
      <point x="572" y="69" type="curve" smooth="yes"/>
      <point x="572" y="455" type="line" smooth="yes"/>
      <point x="572" y="563"/>
      <point x="475" y="650"/>
      <point x="355" y="650" type="curve" smooth="yes"/>
      <point x="285" y="650"/>
      <point x="221" y="628"/>
      <point x="168" y="597" type="curve"/>
      <point x="160" y="630"/>
      <point x="126" y="655"/>
      <point x="85" y="655" type="curve" smooth="yes"/>
      <point x="38" y="655"/>
      <point x="0" y="622"/>
      <point x="0" y="581" type="curve" smooth="yes"/>
    </contour>
  </outline>
</glyph>
<glyph name="p" format="1">
  <advance width="781"/>
  <unicode hex="0070"/>
  <outline>
    <contour>
      <point x="170" y="325" type="curve" smooth="yes"/>
      <point x="170" y="420"/>
      <point x="237" y="497"/>
      <point x="320" y="497" type="curve" smooth="yes"/>
      <point x="403" y="497"/>
      <point x="471" y="420"/>
      <point x="471" y="325" type="curve" smooth="yes"/>
      <point x="471" y="230"/>
      <point x="403" y="153"/>
      <point x="320" y="153" type="curve" smooth="yes"/>
      <point x="237" y="153"/>
      <point x="170" y="230"/>
    </contour>
    <contour>
      <point x="170" y="56" type="line"/>
      <point x="212" y="18"/>
      <point x="264" y="-5"/>
      <point x="320" y="-5" type="curve" smooth="yes"/>
      <point x="500" y="-5"/>
      <point x="645" y="143"/>
      <point x="645" y="325" type="curve" smooth="yes"/>
      <point x="645" y="507"/>
      <point x="500" y="655"/>
      <point x="320" y="655" type="curve" smooth="yes"/>
      <point x="264" y="655"/>
      <point x="212" y="632"/>
      <point x="169" y="593" type="curve"/>
      <point x="162" y="628"/>
      <point x="127" y="655"/>
      <point x="85" y="655" type="curve" smooth="yes"/>
      <point x="38" y="655"/>
      <point x="0" y="622"/>
      <point x="0" y="581" type="curve" smooth="yes"/>
      <point x="0" y="-231" type="line" smooth="yes"/>
      <point x="0" y="-272"/>
      <point x="38" y="-305"/>
      <point x="85" y="-305" type="curve" smooth="yes"/>
      <point x="132" y="-305"/>
      <point x="170" y="-272"/>
      <point x="170" y="-231" type="curve" smooth="yes"/>
    </contour>
  </outline>
</glyph>
<glyph name="q" format="1">
  <advance width="781"/>
  <unicode hex="0071"/>
  <outline>
    <contour>
      <point x="475" y="325" type="curve" smooth="yes"/>
      <point x="475" y="230"/>
      <point x="408" y="153"/>
      <point x="325" y="153" type="curve" smooth="yes"/>
      <point x="242" y="153"/>
      <point x="175" y="230"/>
      <point x="175" y="325" type="curve" smooth="yes"/>
      <point x="175" y="420"/>
      <point x="242" y="497"/>
      <point x="325" y="497" type="curve" smooth="yes"/>
      <point x="408" y="497"/>
      <point x="475" y="420"/>
    </contour>
    <contour>
      <point x="475" y="56" type="curve"/>
      <point x="475" y="-231" type="line" smooth="yes"/>
      <point x="475" y="-272"/>
      <point x="513" y="-305"/>
      <point x="560" y="-305" type="curve" smooth="yes"/>
      <point x="607" y="-305"/>
      <point x="645" y="-272"/>
      <point x="645" y="-231" type="curve" smooth="yes"/>
      <point x="645" y="581" type="line" smooth="yes"/>
      <point x="645" y="622"/>
      <point x="607" y="655"/>
      <point x="560" y="655" type="curve" smooth="yes"/>
      <point x="518" y="655"/>
      <point x="483" y="628"/>
      <point x="476" y="593" type="curve"/>
      <point x="434" y="632"/>
      <point x="381" y="655"/>
      <point x="325" y="655" type="curve" smooth="yes"/>
      <point x="146" y="655"/>
      <point x="0" y="507"/>
      <point x="0" y="325" type="curve" smooth="yes"/>
      <point x="0" y="143"/>
      <point x="146" y="-5"/>
      <point x="325" y="-5" type="curve" smooth="yes"/>
      <point x="381" y="-5"/>
      <point x="433" y="18"/>
    </contour>
  </outline>
</glyph>
<glyph name="r" format="1">
  <advance width="555"/>
  <unicode hex="0072"/>
  <outline>
    <contour>
      <point x="0" y="69" type="line" smooth="yes"/>
      <point x="0" y="28"/>
      <point x="38" y="-5"/>
      <point x="85" y="-5" type="curve" smooth="yes"/>
      <point x="132" y="-5"/>
      <point x="170" y="28"/>
      <point x="170" y="69" type="curve" smooth="yes"/>
      <point x="170" y="382" type="line" smooth="yes"/>
      <point x="170" y="443"/>
      <point x="246" y="493"/>
      <point x="340" y="493" type="curve" smooth="yes"/>
      <point x="384" y="493"/>
      <point x="419" y="528"/>
      <point x="419" y="571" type="curve" smooth="yes"/>
      <point x="419" y="615"/>
      <point x="384" y="650"/>
      <point x="340" y="650" type="curve" smooth="yes"/>
      <point x="246" y="650"/>
      <point x="170" y="601"/>
      <point x="170" y="540" type="curve"/>
      <point x="170" y="581" type="line" smooth="yes"/>
      <point x="170" y="622"/>
      <point x="132" y="655"/>
      <point x="85" y="655" type="curve" smooth="yes"/>
      <point x="38" y="655"/>
      <point x="0" y="622"/>
      <point x="0" y="581" type="curve" smooth="yes"/>
    </contour>
  </outline>
</glyph>
<glyph name="s" format="1">
  <advance width="637"/>
  <unicode hex="0073"/>
  <outline>
    <contour>
      <point x="501" y="199" type="curve" smooth="yes"/>
      <point x="501" y="312"/>
      <point x="369" y="365"/>
      <point x="262" y="400" type="curve" smooth="yes"/>
      <point x="238" y="408"/>
      <point x="173" y="425"/>
      <point x="172" y="451" type="curve" smooth="yes"/>
      <point x="172" y="476"/>
      <point x="200" y="497"/>
      <point x="235" y="497" type="curve" smooth="yes"/>
      <point x="288" y="497"/>
      <point x="333" y="483"/>
      <point x="380" y="458" type="curve" smooth="yes"/>
      <point x="416" y="437"/>
      <point x="464" y="452"/>
      <point x="485" y="490" type="curve" smooth="yes"/>
      <point x="506" y="529"/>
      <point x="493" y="576"/>
      <point x="456" y="597" type="curve" smooth="yes"/>
      <point x="385" y="636"/>
      <point x="316" y="655"/>
      <point x="235" y="655" type="curve" smooth="yes"/>
      <point x="105" y="655"/>
      <point x="0" y="563"/>
      <point x="0" y="451" type="curve" smooth="yes"/>
      <point x="0" y="338"/>
      <point x="106" y="285"/>
      <point x="213" y="250" type="curve" smooth="yes"/>
      <point x="237" y="242"/>
      <point x="328" y="225"/>
      <point x="328" y="199" type="curve" smooth="yes"/>
      <point x="328" y="174"/>
      <point x="282" y="153"/>
      <point x="225" y="153" type="curve" smooth="yes"/>
      <point x="182" y="153"/>
      <point x="150" y="175"/>
      <point x="114" y="193" type="curve" smooth="yes"/>
      <point x="76" y="213"/>
      <point x="30" y="197"/>
      <point x="10" y="158" type="curve" smooth="yes"/>
      <point x="-10" y="118"/>
      <point x="4" y="71"/>
      <point x="42" y="52" type="curve" smooth="yes"/>
      <point x="101" y="22"/>
      <point x="156" y="-5"/>
      <point x="225" y="-5" type="curve" smooth="yes"/>
      <point x="378" y="-5"/>
      <point x="501" y="87"/>
    </contour>
  </outline>
</glyph>
<glyph name="t" format="1">
  <advance width="651"/>
  <unicode hex="0074"/>
  <outline>
    <contour>
      <point x="157" y="650" type="line"/>
      <point x="79" y="650" type="line" smooth="yes"/>
      <point x="35" y="650"/>
      <point x="0" y="615"/>
      <point x="0" y="571" type="curve" smooth="yes"/>
      <point x="0" y="528"/>
      <point x="35" y="493"/>
      <point x="79" y="493" type="curve" smooth="yes"/>
      <point x="157" y="493" type="line"/>
      <point x="157" y="183" type="line" smooth="yes"/>
      <point x="157" y="121"/>
      <point x="186" y="68"/>
      <point x="240" y="31" type="curve" smooth="yes"/>
      <point x="295" y="-5"/>
      <point x="358" y="-15"/>
      <point x="422" y="5" type="curve" smooth="yes"/>
      <point x="462" y="19"/>
      <point x="483" y="64"/>
      <point x="468" y="105" type="curve" smooth="yes"/>
      <point x="454" y="146"/>
      <point x="410" y="168"/>
      <point x="369" y="154" type="curve" smooth="yes"/>
      <point x="359" y="151"/>
      <point x="349" y="152"/>
      <point x="340" y="158" type="curve" smooth="yes"/>
      <point x="331" y="164"/>
      <point x="327" y="173"/>
      <point x="327" y="183" type="curve" smooth="yes"/>
      <point x="327" y="493" type="line"/>
      <point x="437" y="493" type="line" smooth="yes"/>
      <point x="481" y="493"/>
      <point x="516" y="528"/>
      <point x="516" y="571" type="curve" smooth="yes"/>
      <point x="516" y="615"/>
      <point x="481" y="650"/>
      <point x="437" y="650" type="curve" smooth="yes"/>
      <point x="327" y="650" type="line"/>
      <point x="327" y="776" type="line" smooth="yes"/>
      <point x="327" y="817"/>
      <point x="289" y="850"/>
      <point x="242" y="850" type="curve" smooth="yes"/>
      <point x="195" y="850"/>
      <point x="157" y="817"/>
      <point x="157" y="776" type="curve" smooth="yes"/>
    </contour>
  </outline>
</glyph>
<glyph name="v" format="1">
  <advance width="750"/>
  <unicode hex="0076"/>
  <outline>
    <contour>
      <point x="216" y="47" type="line" smooth="yes"/>
      <point x="230" y="15"/>
      <point x="263" y="-5"/>
      <point x="303" y="-5" type="curve" smooth="yes"/>
      <point x="342" y="-5"/>
      <point x="376" y="15"/>
      <point x="390" y="46" type="curve" smooth="yes"/>
      <point x="609" y="553" type="line" smooth="yes"/>
      <point x="625" y="590"/>
      <point x="603" y="633"/>
      <point x="560" y="649" type="curve" smooth="yes"/>
      <point x="516" y="665"/>
      <point x="468" y="647"/>
      <point x="452" y="610" type="curve" smooth="yes"/>
      <point x="304" y="242" type="line"/>
      <point x="163" y="609" type="line" smooth="yes"/>
      <point x="147" y="646"/>
      <point x="99" y="665"/>
      <point x="55" y="649" type="curve" smooth="yes"/>
      <point x="12" y="634"/>
      <point x="-11" y="591"/>
      <point x="5" y="554" type="curve" smooth="yes"/>
    </contour>
  </outline>
</glyph>
<glyph name="w" format="1">
  <advance width="1081"/>
  <unicode hex="0077"/>
  <outline>
    <contour>
      <point x="186" y="51" type="line" smooth="yes"/>
      <point x="199" y="17"/>
      <point x="233" y="-5"/>
      <point x="275" y="-5" type="curve" smooth="yes"/>
      <point x="316" y="-5"/>
      <point x="350" y="17"/>
      <point x="363" y="51" type="curve" smooth="yes"/>
      <point x="473" y="382" type="line"/>
      <point x="582" y="51" type="line" smooth="yes"/>
      <point x="595" y="17"/>
      <point x="630" y="-5"/>
      <point x="671" y="-5" type="curve" smooth="yes"/>
      <point x="712" y="-5"/>
      <point x="747" y="17"/>
      <point x="760" y="51" type="curve" smooth="yes"/>
      <point x="942" y="557" type="line" smooth="yes"/>
      <point x="956" y="595"/>
      <point x="931" y="637"/>
      <point x="887" y="651" type="curve" smooth="yes"/>
      <point x="842" y="664"/>
      <point x="795" y="644"/>
      <point x="781" y="605" type="curve" smooth="yes"/>
      <point x="670" y="270" type="line"/>
      <point x="562" y="599" type="line" smooth="yes"/>
      <point x="549" y="633"/>
      <point x="514" y="655"/>
      <point x="473" y="655" type="curve" smooth="yes"/>
      <point x="432" y="655"/>
      <point x="397" y="633"/>
      <point x="384" y="599" type="curve" smooth="yes"/>
      <point x="275" y="270" type="line"/>
      <point x="164" y="605" type="line" smooth="yes"/>
      <point x="150" y="644"/>
      <point x="103" y="664"/>
      <point x="59" y="651" type="curve" smooth="yes"/>
      <point x="15" y="637"/>
      <point x="-10" y="595"/>
      <point x="4" y="557" type="curve" smooth="yes"/>
    </contour>
  </outline>
</glyph>
<glyph name="x" format="1">
  <advance width="750"/>
  <unicode hex="0078"/>
  <outline>
    <contour>
      <point x="307" y="203" type="line"/>
      <point x="461" y="25" type="line" smooth="yes"/>
      <point x="489" y="-8"/>
      <point x="543" y="-14"/>
      <point x="580" y="10" type="curve" smooth="yes"/>
      <point x="618" y="34"/>
      <point x="625" y="80"/>
      <point x="597" y="112" type="curve" smooth="yes"/>
      <point x="413" y="325" type="line"/>
      <point x="597" y="538" type="line" smooth="yes"/>
      <point x="616" y="559"/>
      <point x="620" y="586"/>
      <point x="607" y="610" type="curve" smooth="yes"/>
      <point x="595" y="635"/>
      <point x="570" y="651"/>
      <point x="539" y="654" type="curve" smooth="yes"/>
      <point x="508" y="657"/>
      <point x="480" y="647"/>
      <point x="461" y="625" type="curve" smooth="yes"/>
      <point x="307" y="447" type="line"/>
      <point x="153" y="625" type="line" smooth="yes"/>
      <point x="125" y="658"/>
      <point x="72" y="664"/>
      <point x="34" y="640" type="curve" smooth="yes"/>
      <point x="-3" y="616"/>
      <point x="-11" y="570"/>
      <point x="17" y="538" type="curve" smooth="yes"/>
      <point x="201" y="325" type="line"/>
      <point x="17" y="112" type="line" smooth="yes"/>
      <point x="-11" y="80"/>
      <point x="-3" y="34"/>
      <point x="34" y="10" type="curve" smooth="yes"/>
      <point x="72" y="-14"/>
      <point x="125" y="-8"/>
      <point x="153" y="25" type="curve" smooth="yes"/>
    </contour>
  </outline>
</glyph>
<glyph name="y" format="1">
  <advance width="745"/>
  <unicode hex="0079"/>
  <outline>
    <contour>
      <point x="83" y="-199" type="line" smooth="yes"/>
      <point x="66" y="-236"/>
      <point x="87" y="-281"/>
      <point x="130" y="-298" type="curve" smooth="yes"/>
      <point x="172" y="-315"/>
      <point x="221" y="-299"/>
      <point x="237" y="-262" type="curve" smooth="yes"/>
      <point x="604" y="549" type="line" smooth="yes"/>
      <point x="621" y="586"/>
      <point x="600" y="631"/>
      <point x="557" y="648" type="curve" smooth="yes"/>
      <point x="515" y="665"/>
      <point x="467" y="649"/>
      <point x="450" y="612" type="curve" smooth="yes"/>
      <point x="305" y="291" type="line"/>
      <point x="160" y="612" type="line" smooth="yes"/>
      <point x="143" y="649"/>
      <point x="95" y="665"/>
      <point x="52" y="648" type="curve" smooth="yes"/>
      <point x="10" y="631"/>
      <point x="-11" y="586"/>
      <point x="6" y="549" type="curve" smooth="yes"/>
      <point x="214" y="89" type="line"/>
    </contour>
  </outline>
</glyph>
<glyph name="braceleft" format="1">
  <advance width="587"/>
  <unicode hex="007B"/>
  <outline>
    <contour>
      <point x="181" y="500" type="curve"/>
      <point x="232" y="525"/>
      <point x="271" y="570"/>
      <point x="271" y="634" type="curve" smooth="yes"/>
      <point x="271" y="842" type="line" smooth="yes"/>
      <point x="271" y="898"/>
      <point x="316" y="943"/>
      <point x="372" y="943" type="curve" smooth="yes"/>
      <point x="416" y="943"/>
      <point x="451" y="978"/>
      <point x="451" y="1021" type="curve" smooth="yes"/>
      <point x="451" y="1065"/>
      <point x="416" y="1100"/>
      <point x="372" y="1100" type="curve" smooth="yes"/>
      <point x="229" y="1100"/>
      <point x="135" y="973"/>
      <point x="135" y="842" type="curve" smooth="yes"/>
      <point x="135" y="634" type="line" smooth="yes"/>
      <point x="135" y="604"/>
      <point x="110" y="579"/>
      <point x="79" y="579" type="curve" smooth="yes"/>
      <point x="35" y="579"/>
      <point x="0" y="543"/>
      <point x="0" y="500" type="curve" smooth="yes"/>
      <point x="0" y="457"/>
      <point x="35" y="421"/>
      <point x="79" y="421" type="curve" smooth="yes"/>
      <point x="110" y="421"/>
      <point x="135" y="396"/>
      <point x="135" y="366" type="curve" smooth="yes"/>
      <point x="135" y="158" type="line" smooth="yes"/>
      <point x="135" y="27"/>
      <point x="229" y="-100"/>
      <point x="372" y="-100" type="curve" smooth="yes"/>
      <point x="416" y="-100"/>
      <point x="451" y="-65"/>
      <point x="451" y="-21" type="curve" smooth="yes"/>
      <point x="451" y="22"/>
      <point x="416" y="57"/>
      <point x="372" y="57" type="curve" smooth="yes"/>
      <point x="316" y="57"/>
      <point x="271" y="102"/>
      <point x="271" y="158" type="curve" smooth="yes"/>
      <point x="271" y="366" type="line" smooth="yes"/>
      <point x="271" y="430"/>
      <point x="232" y="475"/>
    </contour>
  </outline>
</glyph>
<glyph name="braceright" format="1">
  <advance width="587"/>
  <unicode hex="007D"/>
  <outline>
    <contour>
      <point x="270" y="500" type="curve"/>
      <point x="219" y="475"/>
      <point x="180" y="430"/>
      <point x="180" y="366" type="curve" smooth="yes"/>
      <point x="180" y="158" type="line" smooth="yes"/>
      <point x="180" y="102"/>
      <point x="135" y="57"/>
      <point x="79" y="57" type="curve" smooth="yes"/>
      <point x="35" y="57"/>
      <point x="0" y="22"/>
      <point x="0" y="-21" type="curve" smooth="yes"/>
      <point x="0" y="-65"/>
      <point x="35" y="-100"/>
      <point x="79" y="-100" type="curve" smooth="yes"/>
      <point x="222" y="-100"/>
      <point x="316" y="27"/>
      <point x="316" y="158" type="curve" smooth="yes"/>
      <point x="316" y="366" type="line" smooth="yes"/>
      <point x="316" y="396"/>
      <point x="341" y="421"/>
      <point x="372" y="421" type="curve" smooth="yes"/>
      <point x="416" y="421"/>
      <point x="451" y="457"/>
      <point x="451" y="500" type="curve" smooth="yes"/>
      <point x="451" y="543"/>
      <point x="416" y="579"/>
      <point x="372" y="579" type="curve" smooth="yes"/>
      <point x="341" y="579"/>
      <point x="316" y="604"/>
      <point x="316" y="634" type="curve" smooth="yes"/>
      <point x="316" y="842" type="line" smooth="yes"/>
      <point x="316" y="973"/>
      <point x="222" y="1100"/>
      <point x="79" y="1100" type="curve" smooth="yes"/>
      <point x="35" y="1100"/>
      <point x="0" y="1065"/>
      <point x="0" y="1021" type="curve" smooth="yes"/>
      <point x="0" y="978"/>
      <point x="35" y="943"/>
      <point x="79" y="943" type="curve" smooth="yes"/>
      <point x="135" y="943"/>
      <point x="180" y="898"/>
      <point x="180" y="842" type="curve" smooth="yes"/>
      <point x="180" y="634" type="line" smooth="yes"/>
      <point x="180" y="570"/>
      <point x="219" y="525"/>
    </contour>
  </outline>
</glyph>
<glyph name="asciitilde" format="1">
  <advance width="686"/>
  <unicode hex="007E"/>
  <outline>
    <contour>
      <point x="131" y="451" type="curve" smooth="yes"/>
      <point x="157" y="499"/>
      <point x="217" y="455"/>
      <point x="238" y="443" type="curve" smooth="yes"/>
      <point x="334" y="390"/>
      <point x="479" y="385"/>
      <point x="543" y="501" type="curve" smooth="yes"/>
      <point x="554" y="522"/>
      <point x="553" y="545"/>
      <point x="539" y="566" type="curve" smooth="yes"/>
      <point x="525" y="587"/>
      <point x="502" y="600"/>
      <point x="477" y="600" type="curve" smooth="yes"/>
      <point x="452" y="601"/>
      <point x="431" y="589"/>
      <point x="420" y="569" type="curve" smooth="yes"/>
      <point x="393" y="521"/>
      <point x="334" y="565"/>
      <point x="312" y="577" type="curve" smooth="yes"/>
      <point x="216" y="630"/>
      <point x="71" y="635"/>
      <point x="7" y="519" type="curve" smooth="yes"/>
      <point x="-10" y="488"/>
      <point x="4" y="448"/>
      <point x="38" y="429" type="curve" smooth="yes"/>
      <point x="72" y="410"/>
      <point x="114" y="420"/>
    </contour>
  </outline>
</glyph>
<glyph name="exclamdown" format="1">
  <advance width="317"/>
  <unicode hex="00A1"/>
  <outline>
    <contour>
      <point x="182" y="905" type="curve" smooth="yes"/>
      <point x="182" y="926" type="line" smooth="yes"/>
      <point x="182" y="970"/>
      <point x="141" y="1005"/>
      <point x="91" y="1005" type="curve" smooth="yes"/>
      <point x="41" y="1005"/>
      <point x="0" y="970"/>
      <point x="0" y="926" type="curve" smooth="yes"/>
      <point x="0" y="905" type="line" smooth="yes"/>
      <point x="0" y="861"/>
      <point x="41" y="826"/>
      <point x="91" y="826" type="curve" smooth="yes"/>
      <point x="141" y="826"/>
      <point x="182" y="861"/>
    </contour>
    <contour>
      <point x="182" y="74" type="curve" smooth="yes"/>
      <point x="170" y="628" type="line" smooth="yes"/>
      <point x="170" y="666"/>
      <point x="135" y="696"/>
      <point x="91" y="696" type="curve" smooth="yes"/>
      <point x="47" y="696"/>
      <point x="12" y="666"/>
      <point x="12" y="628" type="curve" smooth="yes"/>
      <point x="0" y="74" type="line" smooth="yes"/>
      <point x="0" y="30"/>
      <point x="41" y="-5"/>
      <point x="91" y="-5" type="curve" smooth="yes"/>
      <point x="141" y="-5"/>
      <point x="182" y="30"/>
    </contour>
  </outline>
</glyph>
<glyph name="dieresis" format="1">
  <advance width="616"/>
  <unicode hex="00A8"/>
  <outline>
    <contour>
      <point x="170" y="931" type="line" smooth="yes"/>
      <point x="170" y="972"/>
      <point x="132" y="1005"/>
      <point x="85" y="1005" type="curve" smooth="yes"/>
      <point x="38" y="1005"/>
      <point x="0" y="972"/>
      <point x="0" y="931" type="curve" smooth="yes"/>
      <point x="0" y="921" type="line" smooth="yes"/>
      <point x="0" y="880"/>
      <point x="38" y="847"/>
      <point x="85" y="847" type="curve" smooth="yes"/>
      <point x="132" y="847"/>
      <point x="170" y="880"/>
      <point x="170" y="921" type="curve" smooth="yes"/>
    </contour>
    <contour>
      <point x="480" y="931" type="line" smooth="yes"/>
      <point x="480" y="972"/>
      <point x="442" y="1005"/>
      <point x="395" y="1005" type="curve" smooth="yes"/>
      <point x="348" y="1005"/>
      <point x="310" y="972"/>
      <point x="310" y="931" type="curve" smooth="yes"/>
      <point x="310" y="921" type="line" smooth="yes"/>
      <point x="310" y="880"/>
      <point x="348" y="847"/>
      <point x="395" y="847" type="curve" smooth="yes"/>
      <point x="442" y="847"/>
      <point x="480" y="880"/>
      <point x="480" y="921" type="curve" smooth="yes"/>
    </contour>
  </outline>
</glyph>
<glyph name="macron" format="1">
  <advance width="635"/>
  <unicode hex="00AF"/>
  <outline>
    <contour>
      <point x="421" y="818" type="line" smooth="yes"/>
      <point x="465" y="818"/>
      <point x="500" y="853"/>
      <point x="500" y="896" type="curve" smooth="yes"/>
      <point x="500" y="940"/>
      <point x="465" y="975"/>
      <point x="421" y="975" type="curve" smooth="yes"/>
      <point x="79" y="975" type="line" smooth="yes"/>
      <point x="35" y="975"/>
      <point x="0" y="940"/>
      <point x="0" y="896" type="curve" smooth="yes"/>
      <point x="0" y="853"/>
      <point x="35" y="818"/>
      <point x="79" y="818" type="curve" smooth="yes"/>
    </contour>
  </outline>
</glyph>
<glyph name="acute" format="1">
  <advance width="421"/>
  <unicode hex="00B4"/>
  <outline>
    <contour>
      <point x="147" y="984" type="curve" smooth="yes"/>
      <point x="12" y="837" type="line" smooth="yes"/>
      <point x="-5" y="818"/>
      <point x="-4" y="787"/>
      <point x="15" y="765" type="curve" smooth="yes"/>
      <point x="34" y="742"/>
      <point x="64" y="735"/>
      <point x="85" y="749" type="curve" smooth="yes"/>
      <point x="255" y="853" type="line" smooth="yes"/>
      <point x="279" y="869"/>
      <point x="290" y="897"/>
      <point x="284" y="929" type="curve" smooth="yes"/>
      <point x="278" y="960"/>
      <point x="256" y="986"/>
      <point x="226" y="998" type="curve" smooth="yes"/>
      <point x="196" y="1011"/>
      <point x="167" y="1005"/>
    </contour>
  </outline>
</glyph>
<glyph name="periodcentered" format="1">
  <advance width="322"/>
  <unicode hex="00B7"/>
  <outline>
    <contour>
      <point x="187" y="513" type="line" smooth="yes"/>
      <point x="187" y="558"/>
      <point x="145" y="594"/>
      <point x="94" y="594" type="curve" smooth="yes"/>
      <point x="42" y="594"/>
      <point x="0" y="558"/>
      <point x="0" y="513" type="curve" smooth="yes"/>
      <point x="0" y="487" type="line" smooth="yes"/>
      <point x="0" y="442"/>
      <point x="42" y="406"/>
      <point x="94" y="406" type="curve" smooth="yes"/>
      <point x="145" y="406"/>
      <point x="187" y="442"/>
      <point x="187" y="487" type="curve" smooth="yes"/>
    </contour>
  </outline>
</glyph>
<glyph name="Agrave" format="1">
  <advance width="993"/>
  <unicode hex="00C0"/>
  <outline>
    <contour>
      <point x="303" y="399" type="line"/>
      <point x="429" y="724" type="line"/>
      <point x="555" y="399" type="line"/>
    </contour>
    <contour>
      <point x="692" y="45" type="line" smooth="yes"/>
      <point x="702" y="20"/>
      <point x="725" y="2"/>
      <point x="755" y="-3" type="curve" smooth="yes"/>
      <point x="786" y="-9"/>
      <point x="815" y="0"/>
      <point x="836" y="20" type="curve" smooth="yes"/>
      <point x="857" y="40"/>
      <point x="863" y="66"/>
      <point x="853" y="92" type="curve" smooth="yes"/>
      <point x="521" y="947" type="line" smooth="yes"/>
      <point x="508" y="982"/>
      <point x="472" y="1005"/>
      <point x="429" y="1005" type="curve" smooth="yes"/>
      <point x="386" y="1005"/>
      <point x="350" y="982"/>
      <point x="336" y="947" type="curve" smooth="yes"/>
      <point x="4" y="92" type="line" smooth="yes"/>
      <point x="-10" y="53"/>
      <point x="14" y="12"/>
      <point x="58" y="-1" type="curve" smooth="yes"/>
      <point x="103" y="-14"/>
      <point x="151" y="7"/>
      <point x="166" y="45" type="curve" smooth="yes"/>
      <point x="242" y="241" type="line"/>
      <point x="616" y="241" type="line"/>
    </contour>
    <contour>
      <point x="360" y="1328" type="line" smooth="yes"/>
      <point x="341" y="1350"/>
      <point x="311" y="1355"/>
      <point x="281" y="1343" type="curve" smooth="yes"/>
      <point x="251" y="1331"/>
      <point x="229" y="1305"/>
      <point x="223" y="1273" type="curve" smooth="yes"/>
      <point x="217" y="1241"/>
      <point x="228" y="1213"/>
      <point x="253" y="1198" type="curve" smooth="yes"/>
      <point x="422" y="1093" type="line" smooth="yes"/>
      <point x="444" y="1080"/>
      <point x="473" y="1087"/>
      <point x="492" y="1109" type="curve" smooth="yes"/>
      <point x="511" y="1132"/>
      <point x="512" y="1163"/>
      <point x="495" y="1182" type="curve" smooth="yes"/>
    </contour>
  </outline>
</glyph>
<glyph name="Aacute" format="1">
  <advance width="993"/>
  <unicode hex="00C1"/>
  <outline>
    <contour>
      <point x="303" y="399" type="line"/>
      <point x="429" y="724" type="line"/>
      <point x="555" y="399" type="line"/>
    </contour>
    <contour>
      <point x="692" y="45" type="line" smooth="yes"/>
      <point x="707" y="7"/>
      <point x="755" y="-14"/>
      <point x="799" y="-1" type="curve" smooth="yes"/>
      <point x="844" y="12"/>
      <point x="868" y="53"/>
      <point x="853" y="92" type="curve" smooth="yes"/>
      <point x="521" y="947" type="line" smooth="yes"/>
      <point x="508" y="982"/>
      <point x="472" y="1005"/>
      <point x="429" y="1005" type="curve" smooth="yes"/>
      <point x="386" y="1005"/>
      <point x="350" y="982"/>
      <point x="336" y="947" type="curve" smooth="yes"/>
      <point x="4" y="92" type="line" smooth="yes"/>
      <point x="-10" y="53"/>
      <point x="14" y="12"/>
      <point x="58" y="-1" type="curve" smooth="yes"/>
      <point x="103" y="-14"/>
      <point x="151" y="7"/>
      <point x="166" y="45" type="curve" smooth="yes"/>
      <point x="242" y="241" type="line"/>
      <point x="616" y="241" type="line"/>
    </contour>
    <contour>
      <point x="495" y="1323" type="curve" smooth="yes"/>
      <point x="360" y="1177" type="line" smooth="yes"/>
      <point x="343" y="1158"/>
      <point x="344" y="1127"/>
      <point x="363" y="1105" type="curve" smooth="yes"/>
      <point x="381" y="1082"/>
      <point x="411" y="1075"/>
      <point x="433" y="1088" type="curve" smooth="yes"/>
      <point x="602" y="1193" type="line" smooth="yes"/>
      <point x="627" y="1209"/>
      <point x="638" y="1237"/>
      <point x="632" y="1268" type="curve" smooth="yes"/>
      <point x="626" y="1300"/>
      <point x="604" y="1326"/>
      <point x="574" y="1338" type="curve" smooth="yes"/>
      <point x="544" y="1350"/>
      <point x="514" y="1345"/>
    </contour>
  </outline>
</glyph>
<glyph name="Acircumflex" format="1">
  <advance width="993"/>
  <unicode hex="00C2"/>
  <outline>
    <contour>
      <point x="303" y="399" type="line"/>
      <point x="429" y="724" type="line"/>
      <point x="555" y="399" type="line"/>
    </contour>
    <contour>
      <point x="692" y="45" type="line" smooth="yes"/>
      <point x="707" y="7"/>
      <point x="755" y="-14"/>
      <point x="799" y="-1" type="curve" smooth="yes"/>
      <point x="844" y="12"/>
      <point x="868" y="53"/>
      <point x="853" y="92" type="curve" smooth="yes"/>
      <point x="521" y="947" type="line" smooth="yes"/>
      <point x="508" y="982"/>
      <point x="472" y="1005"/>
      <point x="429" y="1005" type="curve" smooth="yes"/>
      <point x="386" y="1005"/>
      <point x="350" y="982"/>
      <point x="336" y="947" type="curve" smooth="yes"/>
      <point x="4" y="92" type="line" smooth="yes"/>
      <point x="-10" y="53"/>
      <point x="14" y="12"/>
      <point x="58" y="-1" type="curve" smooth="yes"/>
      <point x="103" y="-14"/>
      <point x="151" y="7"/>
      <point x="166" y="45" type="curve" smooth="yes"/>
      <point x="242" y="241" type="line"/>
      <point x="616" y="241" type="line"/>
    </contour>
    <contour>
      <point x="223" y="1209" type="line" smooth="yes"/>
      <point x="210" y="1195"/>
      <point x="203" y="1177"/>
      <point x="204" y="1156" type="curve" smooth="yes"/>
      <point x="205" y="1113"/>
      <point x="241" y="1077"/>
      <point x="284" y="1076" type="curve" smooth="yes"/>
      <point x="306" y="1075"/>
      <point x="326" y="1084"/>
      <point x="340" y="1098" type="curve" smooth="yes"/>
      <point x="429" y="1193" type="line"/>
      <point x="518" y="1098" type="line" smooth="yes"/>
      <point x="531" y="1084"/>
      <point x="551" y="1075"/>
      <point x="573" y="1076" type="curve" smooth="yes"/>
      <point x="616" y="1077"/>
      <point x="652" y="1113"/>
      <point x="654" y="1156" type="curve"/>
      <point x="654" y="1177"/>
      <point x="647" y="1195"/>
      <point x="634" y="1209" type="curve" smooth="yes"/>
      <point x="505" y="1347" type="line" smooth="yes"/>
      <point x="487" y="1366"/>
      <point x="459" y="1378"/>
      <point x="429" y="1378" type="curve" smooth="yes"/>
      <point x="398" y="1378"/>
      <point x="371" y="1366"/>
      <point x="353" y="1347" type="curve" smooth="yes"/>
    </contour>
  </outline>
</glyph>
<glyph name="Atilde" format="1">
  <advance width="993"/>
  <unicode hex="00C3"/>
  <outline>
    <contour>
      <point x="303" y="399" type="line"/>
      <point x="429" y="724" type="line"/>
      <point x="555" y="399" type="line"/>
    </contour>
    <contour>
      <point x="692" y="45" type="line" smooth="yes"/>
      <point x="702" y="20"/>
      <point x="725" y="2"/>
      <point x="755" y="-3" type="curve" smooth="yes"/>
      <point x="786" y="-9"/>
      <point x="815" y="0"/>
      <point x="836" y="20" type="curve" smooth="yes"/>
      <point x="857" y="40"/>
      <point x="863" y="66"/>
      <point x="853" y="92" type="curve" smooth="yes"/>
      <point x="521" y="947" type="line" smooth="yes"/>
      <point x="508" y="982"/>
      <point x="472" y="1005"/>
      <point x="429" y="1005" type="curve" smooth="yes"/>
      <point x="386" y="1005"/>
      <point x="350" y="982"/>
      <point x="336" y="947" type="curve" smooth="yes"/>
      <point x="4" y="92" type="line" smooth="yes"/>
      <point x="-10" y="53"/>
      <point x="14" y="12"/>
      <point x="58" y="-1" type="curve" smooth="yes"/>
      <point x="103" y="-14"/>
      <point x="151" y="7"/>
      <point x="166" y="45" type="curve" smooth="yes"/>
      <point x="242" y="241" type="line"/>
      <point x="616" y="241" type="line"/>
    </contour>
    <contour>
      <point x="311" y="1132" type="curve" smooth="yes"/>
      <point x="331" y="1170"/>
      <point x="379" y="1135"/>
      <point x="397" y="1126" type="curve" smooth="yes"/>
      <point x="473" y="1084"/>
      <point x="590" y="1080"/>
      <point x="640" y="1172" type="curve" smooth="yes"/>
      <point x="649" y="1189"/>
      <point x="648" y="1208"/>
      <point x="637" y="1224" type="curve" smooth="yes"/>
      <point x="626" y="1241"/>
      <point x="608" y="1251"/>
      <point x="588" y="1252" type="curve" smooth="yes"/>
      <point x="567" y="1252"/>
      <point x="551" y="1243"/>
      <point x="542" y="1227" type="curve" smooth="yes"/>
      <point x="521" y="1189"/>
      <point x="473" y="1224"/>
      <point x="456" y="1233" type="curve" smooth="yes"/>
      <point x="379" y="1275"/>
      <point x="263" y="1279"/>
      <point x="212" y="1187" type="curve" smooth="yes"/>
      <point x="198" y="1162"/>
      <point x="209" y="1130"/>
      <point x="237" y="1115" type="curve" smooth="yes"/>
      <point x="264" y="1100"/>
      <point x="297" y="1108"/>
    </contour>
  </outline>
</glyph>
<glyph name="Adieresis" format="1">
  <advance width="993"/>
  <unicode hex="00C4"/>
  <outline>
    <contour>
      <point x="303" y="399" type="line"/>
      <point x="429" y="724" type="line"/>
      <point x="555" y="399" type="line"/>
    </contour>
    <contour>
      <point x="692" y="45" type="line" smooth="yes"/>
      <point x="707" y="7"/>
      <point x="755" y="-14"/>
      <point x="799" y="-1" type="curve" smooth="yes"/>
      <point x="844" y="12"/>
      <point x="868" y="53"/>
      <point x="853" y="92" type="curve" smooth="yes"/>
      <point x="521" y="947" type="line" smooth="yes"/>
      <point x="508" y="982"/>
      <point x="472" y="1005"/>
      <point x="429" y="1005" type="curve" smooth="yes"/>
      <point x="386" y="1005"/>
      <point x="350" y="982"/>
      <point x="336" y="947" type="curve" smooth="yes"/>
      <point x="4" y="92" type="line" smooth="yes"/>
      <point x="-10" y="53"/>
      <point x="14" y="12"/>
      <point x="58" y="-1" type="curve" smooth="yes"/>
      <point x="103" y="-14"/>
      <point x="151" y="7"/>
      <point x="166" y="45" type="curve" smooth="yes"/>
      <point x="242" y="241" type="line"/>
      <point x="616" y="241" type="line"/>
    </contour>
    <contour>
      <point x="359" y="1159" type="line" smooth="yes"/>
      <point x="359" y="1199"/>
      <point x="321" y="1232"/>
      <point x="274" y="1232" type="curve" smooth="yes"/>
      <point x="227" y="1232"/>
      <point x="189" y="1199"/>
      <point x="189" y="1159" type="curve" smooth="yes"/>
      <point x="189" y="1148" type="line" smooth="yes"/>
      <point x="189" y="1108"/>
      <point x="227" y="1075"/>
      <point x="274" y="1075" type="curve" smooth="yes"/>
      <point x="321" y="1075"/>
      <point x="359" y="1108"/>
      <point x="359" y="1148" type="curve" smooth="yes"/>
    </contour>
    <contour>
      <point x="669" y="1159" type="line" smooth="yes"/>
      <point x="669" y="1199"/>
      <point x="631" y="1232"/>
      <point x="584" y="1232" type="curve" smooth="yes"/>
      <point x="537" y="1232"/>
      <point x="499" y="1199"/>
      <point x="499" y="1159" type="curve" smooth="yes"/>
      <point x="499" y="1148" type="line" smooth="yes"/>
      <point x="499" y="1108"/>
      <point x="537" y="1075"/>
      <point x="584" y="1075" type="curve" smooth="yes"/>
      <point x="631" y="1075"/>
      <point x="669" y="1108"/>
      <point x="669" y="1148" type="curve" smooth="yes"/>
    </contour>
  </outline>
</glyph>
<glyph name="Aring" format="1">
  <advance width="993"/>
  <unicode hex="00C5"/>
  <outline>
    <contour>
      <point x="303" y="399" type="line"/>
      <point x="429" y="724" type="line"/>
      <point x="555" y="399" type="line"/>
    </contour>
    <contour>
      <point x="692" y="45" type="line" smooth="yes"/>
      <point x="702" y="20"/>
      <point x="725" y="2"/>
      <point x="755" y="-3" type="curve" smooth="yes"/>
      <point x="786" y="-9"/>
      <point x="815" y="0"/>
      <point x="836" y="20" type="curve" smooth="yes"/>
      <point x="857" y="40"/>
      <point x="863" y="66"/>
      <point x="853" y="92" type="curve" smooth="yes"/>
      <point x="521" y="947" type="line" smooth="yes"/>
      <point x="508" y="982"/>
      <point x="472" y="1005"/>
      <point x="429" y="1005" type="curve" smooth="yes"/>
      <point x="386" y="1005"/>
      <point x="350" y="982"/>
      <point x="336" y="947" type="curve" smooth="yes"/>
      <point x="4" y="92" type="line" smooth="yes"/>
      <point x="-10" y="53"/>
      <point x="14" y="12"/>
      <point x="58" y="-1" type="curve" smooth="yes"/>
      <point x="103" y="-14"/>
      <point x="151" y="7"/>
      <point x="166" y="45" type="curve" smooth="yes"/>
      <point x="242" y="241" type="line"/>
      <point x="616" y="241" type="line"/>
    </contour>
    <contour>
      <point x="352" y="1268" type="curve" smooth="yes"/>
      <point x="352" y="1307"/>
      <point x="385" y="1339"/>
      <point x="426" y="1339" type="curve" smooth="yes"/>
      <point x="467" y="1339"/>
      <point x="500" y="1307"/>
      <point x="500" y="1268" type="curve" smooth="yes"/>
      <point x="500" y="1229"/>
      <point x="467" y="1198"/>
      <point x="426" y="1198" type="curve" smooth="yes"/>
      <point x="385" y="1198"/>
      <point x="352" y="1229"/>
    </contour>
    <contour>
      <point x="222" y="1268" type="curve" smooth="yes"/>
      <point x="222" y="1164"/>
      <point x="314" y="1080"/>
      <point x="426" y="1080" type="curve" smooth="yes"/>
      <point x="539" y="1080"/>
      <point x="630" y="1164"/>
      <point x="630" y="1268" type="curve" smooth="yes"/>
      <point x="630" y="1373"/>
      <point x="539" y="1457"/>
      <point x="426" y="1457" type="curve" smooth="yes"/>
      <point x="314" y="1457"/>
      <point x="222" y="1373"/>
    </contour>
  </outline>
</glyph>
<glyph name="Egrave" format="1">
  <advance width="763"/>
  <unicode hex="00C8"/>
  <outline>
    <contour>
      <point x="548" y="0" type="line" smooth="yes"/>
      <point x="592" y="0"/>
      <point x="627" y="35"/>
      <point x="627" y="79" type="curve" smooth="yes"/>
      <point x="627" y="122"/>
      <point x="592" y="157"/>
      <point x="548" y="157" type="curve" smooth="yes"/>
      <point x="170" y="157" type="line"/>
      <point x="170" y="431" type="line"/>
      <point x="417" y="431" type="line" smooth="yes"/>
      <point x="461" y="431"/>
      <point x="496" y="467"/>
      <point x="496" y="510" type="curve" smooth="yes"/>
      <point x="496" y="553"/>
      <point x="461" y="589"/>
      <point x="417" y="589" type="curve" smooth="yes"/>
      <point x="170" y="589" type="line"/>
      <point x="170" y="843" type="line"/>
      <point x="548" y="843" type="line" smooth="yes"/>
      <point x="592" y="843"/>
      <point x="627" y="878"/>
      <point x="627" y="921" type="curve" smooth="yes"/>
      <point x="627" y="965"/>
      <point x="592" y="1000"/>
      <point x="548" y="1000" type="curve" smooth="yes"/>
      <point x="98" y="1000" type="line" smooth="yes"/>
      <point x="44" y="1000"/>
      <point x="0" y="962"/>
      <point x="0" y="916" type="curve" smooth="yes"/>
      <point x="0" y="84" type="line" smooth="yes"/>
      <point x="0" y="38"/>
      <point x="44" y="0"/>
      <point x="98" y="0" type="curve" smooth="yes"/>
    </contour>
    <contour>
      <point x="248" y="1323" type="line" smooth="yes"/>
      <point x="228" y="1345"/>
      <point x="198" y="1350"/>
      <point x="168" y="1338" type="curve" smooth="yes"/>
      <point x="138" y="1326"/>
      <point x="117" y="1300"/>
      <point x="111" y="1268" type="curve" smooth="yes"/>
      <point x="104" y="1237"/>
      <point x="115" y="1209"/>
      <point x="140" y="1193" type="curve" smooth="yes"/>
      <point x="309" y="1088" type="line" smooth="yes"/>
      <point x="331" y="1075"/>
      <point x="361" y="1082"/>
      <point x="380" y="1105" type="curve" smooth="yes"/>
      <point x="399" y="1127"/>
      <point x="400" y="1158"/>
      <point x="382" y="1177" type="curve" smooth="yes"/>
    </contour>
  </outline>
</glyph>
<glyph name="Eacute" format="1">
  <advance width="763"/>
  <unicode hex="00C9"/>
  <outline>
    <contour>
      <point x="548" y="0" type="line" smooth="yes"/>
      <point x="592" y="0"/>
      <point x="627" y="35"/>
      <point x="627" y="79" type="curve" smooth="yes"/>
      <point x="627" y="122"/>
      <point x="592" y="157"/>
      <point x="548" y="157" type="curve" smooth="yes"/>
      <point x="170" y="157" type="line"/>
      <point x="170" y="431" type="line"/>
      <point x="417" y="431" type="line" smooth="yes"/>
      <point x="461" y="431"/>
      <point x="496" y="467"/>
      <point x="496" y="510" type="curve" smooth="yes"/>
      <point x="496" y="553"/>
      <point x="461" y="589"/>
      <point x="417" y="589" type="curve" smooth="yes"/>
      <point x="170" y="589" type="line"/>
      <point x="170" y="843" type="line"/>
      <point x="548" y="843" type="line" smooth="yes"/>
      <point x="592" y="843"/>
      <point x="627" y="878"/>
      <point x="627" y="921" type="curve" smooth="yes"/>
      <point x="627" y="965"/>
      <point x="592" y="1000"/>
      <point x="548" y="1000" type="curve" smooth="yes"/>
      <point x="98" y="1000" type="line" smooth="yes"/>
      <point x="44" y="1000"/>
      <point x="0" y="962"/>
      <point x="0" y="916" type="curve" smooth="yes"/>
      <point x="0" y="84" type="line" smooth="yes"/>
      <point x="0" y="38"/>
      <point x="44" y="0"/>
      <point x="98" y="0" type="curve" smooth="yes"/>
    </contour>
    <contour>
      <point x="380" y="1323" type="curve" smooth="yes"/>
      <point x="245" y="1177" type="line" smooth="yes"/>
      <point x="228" y="1158"/>
      <point x="229" y="1127"/>
      <point x="248" y="1105" type="curve" smooth="yes"/>
      <point x="266" y="1082"/>
      <point x="296" y="1075"/>
      <point x="318" y="1088" type="curve" smooth="yes"/>
      <point x="487" y="1193" type="line" smooth="yes"/>
      <point x="512" y="1209"/>
      <point x="523" y="1237"/>
      <point x="517" y="1268" type="curve" smooth="yes"/>
      <point x="511" y="1300"/>
      <point x="489" y="1326"/>
      <point x="459" y="1338" type="curve" smooth="yes"/>
      <point x="429" y="1350"/>
      <point x="399" y="1345"/>
    </contour>
  </outline>
</glyph>
<glyph name="Ecircumflex" format="1">
  <advance width="763"/>
  <unicode hex="00CA"/>
  <outline>
    <contour>
      <point x="548" y="0" type="line" smooth="yes"/>
      <point x="592" y="0"/>
      <point x="627" y="35"/>
      <point x="627" y="79" type="curve" smooth="yes"/>
      <point x="627" y="122"/>
      <point x="592" y="157"/>
      <point x="548" y="157" type="curve" smooth="yes"/>
      <point x="170" y="157" type="line"/>
      <point x="170" y="431" type="line"/>
      <point x="417" y="431" type="line" smooth="yes"/>
      <point x="461" y="431"/>
      <point x="496" y="467"/>
      <point x="496" y="510" type="curve" smooth="yes"/>
      <point x="496" y="553"/>
      <point x="461" y="589"/>
      <point x="417" y="589" type="curve" smooth="yes"/>
      <point x="170" y="589" type="line"/>
      <point x="170" y="843" type="line"/>
      <point x="548" y="843" type="line" smooth="yes"/>
      <point x="592" y="843"/>
      <point x="627" y="878"/>
      <point x="627" y="921" type="curve" smooth="yes"/>
      <point x="627" y="965"/>
      <point x="592" y="1000"/>
      <point x="548" y="1000" type="curve" smooth="yes"/>
      <point x="98" y="1000" type="line" smooth="yes"/>
      <point x="44" y="1000"/>
      <point x="0" y="962"/>
      <point x="0" y="916" type="curve" smooth="yes"/>
      <point x="0" y="84" type="line" smooth="yes"/>
      <point x="0" y="38"/>
      <point x="44" y="0"/>
      <point x="98" y="0" type="curve" smooth="yes"/>
    </contour>
    <contour>
      <point x="108" y="1209" type="line" smooth="yes"/>
      <point x="95" y="1195"/>
      <point x="88" y="1177"/>
      <point x="89" y="1156" type="curve" smooth="yes"/>
      <point x="90" y="1113"/>
      <point x="126" y="1077"/>
      <point x="169" y="1076" type="curve" smooth="yes"/>
      <point x="191" y="1075"/>
      <point x="211" y="1084"/>
      <point x="225" y="1098" type="curve" smooth="yes"/>
      <point x="314" y="1193" type="line"/>
      <point x="402" y="1098" type="line" smooth="yes"/>
      <point x="416" y="1084"/>
      <point x="436" y="1075"/>
      <point x="458" y="1076" type="curve" smooth="yes"/>
      <point x="501" y="1077"/>
      <point x="537" y="1113"/>
      <point x="539" y="1156" type="curve"/>
      <point x="539" y="1177"/>
      <point x="532" y="1195"/>
      <point x="519" y="1209" type="curve" smooth="yes"/>
      <point x="390" y="1347" type="line" smooth="yes"/>
      <point x="372" y="1366"/>
      <point x="344" y="1378"/>
      <point x="314" y="1378" type="curve" smooth="yes"/>
      <point x="283" y="1378"/>
      <point x="256" y="1366"/>
      <point x="238" y="1347" type="curve" smooth="yes"/>
    </contour>
  </outline>
</glyph>
